<svg width="360" height="154" viewBox="0 0 360 154" fill="none" xmlns="http://www.w3.org/2000/svg">
<g clip-path="url(#clip0_5_592)">
<path d="M178.076 3.07172C176.853 3.2673 174.992 2.83013 176.098 5.37263C169.435 5.57205 162.769 5.77145 156.099 5.97086C152.766 5.37265 149.364 5.37265 146.031 5.97086C143.316 5.92484 140.605 5.87116 137.897 5.8098L136.621 5.74077C134.208 5.74077 131.784 5.74077 129.37 5.74077C128.424 5.46466 127.563 5.39563 127.159 6.64963C126.819 15.6692 126.819 15.6692 118.345 16.302C118.173 16.3252 118.003 16.3598 117.835 16.4055C115.379 19.0746 116.771 22.1578 117.048 25.1029C116.304 27.5994 114.315 27.4038 112.636 27.1277C108.383 26.541 107.522 28.7269 107.724 32.788C107.968 37.7464 107.724 42.7394 107.66 47.7439C104.183 48.6873 100.855 47.7439 97.5275 46.812L97.5275 41.3244C98.1017 40.7952 98.2186 40.358 97.3362 40.1049C96.4775 39.1662 95.4301 38.4547 94.2757 38.0257C93.1213 37.5967 91.891 37.4617 90.6805 37.6314C87.5441 37.8385 84.3864 37.6314 81.2393 37.6314C79.5807 37.6314 78.3474 37.5509 78.4643 34.8358C78.7939 27.4959 78.6132 27.4844 71.8406 27.5074C70.7774 27.5074 69.7142 27.5074 68.651 27.5764C60.9002 25.2755 53.0538 26.426 45.2605 26.8746L40.1147 26.8746C35.7874 26.2879 31.4602 25.5631 27.1861 27.2313C26.208 27.2313 25.2298 27.2313 24.2623 27.2313C23.4649 26.3685 22.6994 26.2879 21.9658 27.3348C19.8394 28.7269 20.2222 30.9818 20.2753 33.0871L20.2753 34.4331L20.0946 37.0102C15.2357 37.4934 9.30308 35.9978 10.1005 45.2014C10.3238 47.7324 7.76144 47.8014 6.06032 45.8226L6.32612 45.558L6.09221 45.8572C3.96581 45.6846 2.46669 46.1103 1.48855 48.6183C-0.286998 53.1626 6.69061e-05 58.3396 0.276499 62.5273C1.11643 75.4584 0.510412 88.355 0.765581 101.252C0.978222 111.686 0.765574 111.686 10.5258 111.065L10.6214 111.18C10.1643 124.203 9.84532 121.35 19.5523 121.707C19.7331 121.707 19.9032 121.707 20.0839 121.707L20.3072 123.916L20.3072 125.319L20.3072 129.541C19.9138 130.519 19.85 131.371 21.0515 131.704C30.521 131.704 39.9977 131.704 49.4815 131.704L68.8211 131.704C70.5754 131.773 72.3403 131.704 74.084 131.911C77.1353 132.268 78.9641 131.221 78.3368 127.574C77.2204 121.58 80.4631 120.924 84.6309 121.362C86.0769 121.362 87.5228 121.362 88.9688 121.362L91.0101 121.362L93.2535 121.362L96.3049 121.362C96.4353 121.396 96.571 121.398 96.7024 121.369C96.8338 121.34 96.9577 121.28 97.0652 121.193C97.1728 121.106 97.2614 120.995 97.3247 120.867C97.3881 120.739 97.4247 120.598 97.4319 120.453L97.7402 111.502C101.035 110.915 104.397 110.915 107.692 111.502L107.777 111.64L107.851 114.493C107.851 117.162 107.851 119.843 107.851 122.547C107.989 133.556 106.618 131.75 116.548 131.888C116.974 134.971 115.857 138.216 117.346 141.195C122.513 143.002 128.212 143.082 133.23 146.764C132.411 147.028 131.89 147.408 131.518 147.281C127.478 145.809 127.574 149.651 127.34 151.711C126.968 154.886 129.7 153.77 131.157 153.712C136.196 153.482 141.225 152.988 146.254 152.562C149.444 152.562 152.686 152.562 155.897 152.562C156.2 152.678 156.514 152.755 156.833 152.792C157.453 153.377 158.244 153.707 159.066 153.724C159.889 153.741 160.69 153.443 161.33 152.884L196.118 152.884C201.457 154.138 206.983 154.138 212.321 152.884C222.556 152.792 232.792 152.696 243.027 152.596C244.866 154.311 247.077 153.333 249.119 153.551C252.213 153.862 253.467 152.401 253.616 148.949C253.808 144.348 253.085 141.426 247.992 142.311C246.578 142.451 245.156 142.474 243.739 142.38L243.558 140.218C243.154 137.79 246.567 134.373 241.974 133.016C239.327 130.91 236.403 132.164 233.575 132.233C229.96 132.187 226.349 132.149 222.741 132.118C219.913 132.118 217.085 132.038 214.235 132.026C193.205 132.026 172.164 132.026 151.134 131.9C149.561 131.9 147.53 132.889 146.541 130.381C144.585 125.434 146.935 121.638 152.027 121.557C153.261 121.557 154.494 121.431 155.727 121.362L169.676 121.362C174.929 121.3 180.181 121.247 185.433 121.2C188.697 121.258 191.961 121.304 195.236 121.362C198.043 121.362 200.849 121.362 203.656 121.362C211.815 121.362 219.966 121.323 228.11 121.247C229.928 121.108 231.969 122.27 233.426 120.096C234.691 119.026 234.489 117.933 233.5 116.806L233.766 111.122C233.898 111.18 234.042 111.195 234.181 111.166C234.321 111.138 234.45 111.067 234.553 110.961C237.296 110.846 240.039 110.743 242.782 110.628C246.429 110.72 250.065 110.823 253.712 110.915C259.68 110.915 265.641 110.915 271.595 110.915C274.115 110.915 276.624 110.915 279.144 110.915C283.003 110.915 286.862 110.915 290.722 110.915L321.704 110.812C328.529 110.812 335.355 110.904 342.17 110.996C351.314 111.123 351.314 111.134 351.229 121.431C350.92 122.063 350.251 122.811 350.378 123.329C351.154 126.447 347.667 131.474 354.418 131.957C360.925 132.429 359.798 128.115 359.798 124.1C359.798 123.168 359.702 122.224 359.649 121.293L359.649 105.336C359.649 103.46 359.819 101.574 359.777 99.6985C359.532 88.3435 359.511 88.3435 348.964 89.7931C333.197 89.4134 317.43 89.0683 301.673 89.9311C296.982 89.1129 292.211 88.989 287.49 89.563C277.581 89.563 267.672 89.3789 257.773 89.563C254.233 89.632 253.148 88.2514 253.255 84.5585C253.361 81.1071 253.435 78.277 257.688 79.0248C261.941 79.7726 263.727 78.1044 263.004 73.4451C262.366 69.2114 264.354 68.3601 267.863 68.4636C275.816 68.6707 283.811 68.4636 291.732 68.4636C294.975 68.4636 298.207 68.4636 301.45 68.3831C317.341 68.3831 333.239 68.4138 349.145 68.4751C360.372 68.7167 360.372 68.7167 359.479 58.0175L359.596 37.5739C359.557 35.5044 359.624 33.4342 359.798 31.3729C360.372 27.0012 358.607 25.9082 354.78 26.0463C351.59 26.1613 349.825 26.8631 350.197 30.7517C350.421 32.9951 350.282 35.273 350.304 37.5279C350.251 38.8624 350.165 40.1854 350.134 41.5199C349.995 47.8935 348.007 49.9758 342.096 48.7103C334.919 47.1802 327.774 47.997 320.608 48.043C310.997 47.974 301.386 47.9088 291.774 47.8474L252.595 48.0545L243.75 48.1235C243.401 48.0304 243.045 47.9726 242.686 47.951C237.264 48.1466 232.161 48.1696 233.458 39.5066C233.819 37.0447 231.448 37.4128 229.971 37.4128C224.718 37.4128 219.477 37.5164 214.235 37.5854L204.56 37.5854C201.37 37.5854 198.181 37.5279 194.991 37.5049L185.422 37.5049L166.285 37.5049C162.744 37.5049 159.204 37.5049 155.653 37.5049C153.526 37.4358 151.4 37.3668 149.274 37.2863C145.297 37.1482 146.297 33.8349 146.169 31.3959C146.041 28.957 146.041 26.7941 149.274 26.7941C163.478 26.7941 177.693 26.403 191.897 26.564C202.391 26.6906 212.874 27.0472 223.368 26.4375C227.313 27.2058 231.345 27.3029 235.318 26.7251C236.722 26.7251 238.115 26.7251 239.518 26.7251C241.06 26.9552 243.165 28.3817 242.984 24.8613L243.048 17.1303C244.95 16.8424 246.868 16.6964 248.789 16.6931C252.808 16.9807 253.372 14.5533 253.361 10.9984C253.35 7.44345 252.681 4.95846 248.715 5.41864C246.982 5.62572 245.249 5.74077 243.505 5.90183L229.035 5.62572L227.759 5.62572C225.473 5.62572 223.198 5.62572 220.923 5.52218C206.601 5.03899 192.216 6.18946 177.948 5.08502L177.948 3.04871C180.564 4.19917 182.701 2.38144 184.986 1.64515C185.433 1.5071 184.986 0.0575219 184.295 -0.0460191C181.924 -0.218587 179.394 -0.138048 178.076 3.07172Z" fill="#6F0909"/>
<path d="M97.7083 111.617L97.4 120.568L96.273 121.477C95.2098 121.477 94.2316 121.477 93.2216 121.477C92.4773 120.499 91.7331 120.476 90.9782 121.477L88.9369 121.477C88.6554 121.162 88.3183 120.912 87.9457 120.741C87.5731 120.57 87.1726 120.482 86.7679 120.482C86.3633 120.482 85.9628 120.57 85.5902 120.741C85.2176 120.912 84.8805 121.162 84.599 121.477C80.3994 121.039 77.1566 121.695 78.3049 127.689C78.9747 131.336 77.146 132.383 74.0521 132.026C72.3084 131.831 70.5435 131.888 68.7892 131.819C68.5234 121.465 68.5234 121.58 59.2204 121.603C48.2163 121.603 49.524 123.455 49.6516 111.031C61.1661 111.249 59.1353 112.492 59.1247 101.033C59.1059 100.881 59.0559 100.735 58.9784 100.606C58.9009 100.477 58.7978 100.368 58.6766 100.288C58.5554 100.207 58.4192 100.157 58.2779 100.141C58.1366 100.124 57.9936 100.142 57.8595 100.193L55.0952 100.193C54.717 99.9941 54.2952 99.9124 53.8767 99.9571C53.4581 100.002 53.0592 100.171 52.7242 100.446C48.4714 100.446 49.6303 104.013 49.3752 106.624C48.4183 109.316 47.472 111.916 43.9847 111.318C40.0934 110.662 39.9127 113.354 39.8808 116.541C39.8489 119.728 40.2741 122.19 44.1336 121.764C47.1318 121.431 48.6841 122.823 48.6628 126.309C48.795 128.181 49.0833 130.037 49.524 131.854C40.0544 131.854 30.5778 131.854 21.094 131.854L20.3498 129.691L20.3498 125.319C20.4509 125.238 20.5331 125.132 20.5897 125.01C20.6463 124.888 20.6758 124.754 20.6758 124.617C20.6758 124.481 20.6463 124.347 20.5897 124.225C20.5331 124.103 20.4509 123.997 20.3498 123.916L20.1159 121.707C21.9339 118.416 20.573 114.804 20.9877 111.353C25.9103 111.353 30.8435 111.261 35.7555 111.422C39.2641 111.525 39.4555 109.04 39.0834 106.509C38.775 104.427 40.8589 100.976 37.3078 100.469C33.055 99.8481 28.6321 100.044 24.2836 99.8596C22.221 99.7676 20.892 100.469 20.9026 103.023C20.9026 105.807 19.6374 108.603 21.0089 111.376C17.5642 111.295 14.1088 111.226 10.664 111.157L10.5577 111.042C10.4195 104.3 8.43127 96.6038 18.2021 95.3728C20.5411 95.0737 20.1158 93.1294 18.5104 92.3816C11.8973 89.2984 12.1312 83.8107 13.7366 77.7018C13.9174 77.0345 14.449 75.9186 13.439 75.9991C8.208 76.4593 10.547 72.0876 10.7916 70.2468C11.2008 67.6888 11.2008 65.0738 10.7916 62.5158C10.1855 58.7998 10.5151 54.8998 10.5258 51.0803C10.5364 47.2607 13.1625 48.1351 15.1294 48.1811C17.0964 48.2271 20.2966 47.1917 19.8075 50.8041C18.6167 59.5246 23.7414 58.7193 28.7809 58.5007C31.0713 58.3339 33.3695 58.3339 35.6599 58.5007C39.2003 58.8573 40.6144 57.1892 40.0828 53.5307C39.3704 48.6643 41.6563 47.4908 45.5689 48.02C46.9843 48.1265 48.4042 48.1457 49.8217 48.0776L49.5772 51.4484C48.9648 52.2827 48.6315 53.3167 48.6315 54.3821C48.6315 55.4475 48.9648 56.4815 49.5772 57.3157C50.7786 58.9724 52.4797 58.2936 53.9894 58.3511C56.7644 58.4547 59.4649 59.0184 59.4649 54.0369C59.4649 49.4351 58.54 47.1342 54.0107 47.928C53.9044 47.8015 53.7555 47.5484 53.6811 47.5714C53.407 47.6763 53.1404 47.8032 52.8837 47.951C51.8205 48.02 50.7573 48.0776 49.7685 48.1351C49.6622 35.8022 48.4395 37.781 59.433 37.712C71.0538 37.6199 68.6191 38.6898 68.8742 27.5074C69.9375 27.5074 71.0007 27.4499 72.0639 27.4384C78.8364 27.4384 79.0172 27.4384 78.6876 34.7668C78.5707 37.4819 79.7508 37.5394 81.4626 37.5624C84.6522 37.6199 87.7673 37.7925 90.9038 37.5624C92.1143 37.3927 93.3446 37.5277 94.499 37.9567C95.6534 38.3857 96.7007 39.0972 97.5594 40.0359L97.7508 41.2554L97.7508 46.743C97.6976 47.8935 97.6976 49.0439 97.5807 50.1944C97.0491 55.5555 97.5807 59.6972 104.236 58.5582C107.49 57.9945 107.128 60.9281 107.203 63.16C107.437 70.1433 107.702 70.1203 114.241 69.9247C118.675 69.7751 117.665 66.6459 117.739 63.9769C117.813 61.3078 118.313 57.6724 114.05 58.3972C108.829 59.2715 107.607 56.5219 108.138 51.621C108.174 50.2921 108.089 48.9626 107.883 47.6519C107.883 42.6704 108.191 37.6775 107.947 32.696C107.745 28.6349 108.638 26.449 112.859 27.0357C114.539 27.2658 116.527 27.5074 117.271 25.0224C118.473 22.2153 117.463 19.1781 118.058 16.3135C118.226 16.2678 118.396 16.2332 118.568 16.2099C127.074 15.5772 127.074 15.5772 127.382 6.55763C128.116 6.247 128.86 5.94788 129.594 5.64876C132.007 5.64876 134.431 5.64876 136.845 5.64876C137.238 6.29301 137.663 6.35053 138.121 5.71778C140.828 5.77914 143.543 5.83283 146.265 5.87884C146.386 6.99773 146.45 8.1231 146.456 9.24969C146.297 13.0002 146.041 16.0604 151.294 16.0604C156.546 16.0604 156.301 13.0232 156.142 9.26119C156.149 8.13499 156.21 7.00995 156.323 5.89036C162.992 5.69095 169.659 5.49153 176.321 5.29212L178.448 5.18858C192.769 6.33903 207.101 5.18857 221.422 5.62574C223.698 5.70627 225.973 5.69477 228.259 5.71778C228.684 6.33902 229.109 6.33902 229.535 5.71778C234.362 5.80981 239.185 5.89803 244.005 5.98239C245.132 9.7904 242.484 13.4143 243.548 17.2223L243.484 24.9534L240.018 26.8171C238.614 26.8171 237.222 26.8171 235.818 26.8171C233.692 25.6667 233.479 23.6534 233.692 21.479C234.319 16.302 231.108 16.9347 228.025 16.6816C223.846 16.3365 224.421 18.7985 224.984 21.6171C225.335 23.4233 224.399 24.9419 223.825 26.5295C213.331 27.1393 202.848 26.7826 192.354 26.6561C178.15 26.495 163.935 26.8632 149.731 26.8862C146.541 26.8862 146.541 29.095 146.626 31.488C146.711 33.8809 145.754 37.2403 149.731 37.3783C151.857 37.4589 153.984 37.5279 156.11 37.5969C156.206 46.0643 156.493 46.651 163.201 47.882C165.764 48.3652 165.945 50.1139 165.657 51.9891C164.679 58.4086 168.188 58.7653 172.536 58.3051C174.323 58.1095 176.3 58.3741 176.247 55.544C176.194 52.7139 176.321 48.3077 173.663 48.3077C165.838 48.3077 166.529 43.0271 166.742 37.5854L185.88 37.5854C185.88 38.7359 185.88 39.8863 185.88 40.9677C185.965 44.3501 184.816 48.0085 190.388 48.0891C195.959 48.1696 195.523 44.7757 195.416 40.9332C195.416 39.7828 195.416 38.6323 195.416 37.5509C198.606 37.5509 201.796 37.6084 204.985 37.6314C205.06 47.9855 205.06 47.9855 214.554 47.928C214.636 49.0768 214.636 50.2306 214.554 51.3794C213.778 56.706 215.522 59.1219 220.753 58.3971C223.549 58.1039 226.366 58.1039 229.162 58.3971C232.405 58.6272 234.011 57.6494 233.862 53.6918C233.724 50.1829 233.298 47.7324 229.311 47.9395C224.399 48.1236 219.487 48.02 214.575 48.043L214.639 37.7925C219.881 37.7235 225.122 37.6314 230.375 37.6199C231.852 37.6199 234.223 37.2518 233.862 39.7137C232.565 48.3767 237.668 48.3537 243.09 48.1581C243.449 48.1797 243.805 48.2375 244.154 48.3307C243.867 49.4006 243.09 50.6316 243.356 51.5289C244.122 54.6697 243.42 58.7423 248.725 58.6272C254.031 58.5122 252.797 54.8537 252.978 51.7245C253.031 50.574 252.978 49.4236 253.031 48.2731L292.21 48.066L292.21 68.6822C284.258 68.6822 276.262 68.9123 268.341 68.6822C264.833 68.5787 262.845 69.43 263.483 73.6637C264.184 78.323 262.239 79.9567 258.167 79.2434C254.095 78.5301 253.839 81.3717 253.733 84.7771C253.627 88.47 254.711 89.8506 258.252 89.7816C268.15 89.586 278.059 89.7816 287.968 89.7816C289.361 90.932 292.221 90.5179 292.147 93.302C291.923 99.2498 293.476 105.336 291.158 111.134C287.298 111.134 283.439 111.134 279.58 111.134C278.426 110.438 277.126 110.072 275.805 110.072C274.484 110.072 273.185 110.438 272.031 111.134C266.077 111.134 260.116 111.134 254.148 111.134C253.972 109.608 253.919 108.068 253.988 106.532C254.584 101.528 253.212 98.8011 248.034 99.733C244.643 100.331 244.1 97.9268 244.473 95.1312C245.111 90.3683 243.016 89.3789 239.029 89.3789C235.212 89.3789 233.245 90.2993 233.862 94.7745C234.425 98.8242 232.799 100.423 229.067 99.8941C227.831 99.802 226.592 99.802 225.356 99.8941C214.724 99.8941 214.724 99.8941 214.724 111.399C211.949 111.491 208.813 110.731 206.495 111.893C203.603 113.366 205.91 117.45 204.773 120.119L204.082 121.649C201.275 121.649 198.468 121.649 195.661 121.649C195.608 119.348 195.661 117.047 195.48 114.838C195.427 113.941 195.331 112.63 194.81 112.261C192.61 110.72 190.069 111.387 187.698 111.686C185.327 111.985 186.05 114.206 185.965 115.805C185.869 117.692 185.89 119.59 185.858 121.488C180.606 121.534 175.354 121.588 170.102 121.649C168.188 120.407 165.115 120.441 165.849 116.449C166.582 112.457 164.477 111.364 160.979 111.364C157.099 111.364 156.025 113.32 156.269 117.036C156.305 118.571 156.266 120.107 156.152 121.638C154.919 121.707 153.686 121.822 152.453 121.833C147.36 121.914 145.01 125.71 146.966 130.657C147.955 133.165 149.986 132.176 151.559 132.176C172.59 132.279 193.63 132.279 214.66 132.302C217.489 132.302 220.317 132.302 223.166 132.394C224.124 134.019 224.502 135.966 224.229 137.871C224.006 141.759 226.015 142.657 229.184 142.703C232.543 142.703 234.117 141.368 233.904 137.652C233.809 135.938 233.958 134.201 233.989 132.509C236.818 132.44 239.741 131.186 242.389 133.292C242.771 135.731 240.911 138.745 243.973 140.494L244.164 142.657C242.569 145.958 243.76 149.502 243.42 152.907C233.185 153.014 222.95 153.11 212.715 153.195C207.324 152.677 201.902 152.677 196.512 153.195C184.923 153.195 173.327 153.195 161.724 153.195C160.225 153.195 158.725 153.126 157.226 153.103C156.907 153.066 156.593 152.988 156.291 152.873C156.291 151.55 156.291 150.226 156.291 148.903C156.461 145.303 156.663 142.265 151.644 142.438C147.126 142.599 146.328 144.9 146.626 148.88C146.722 150.192 146.626 151.527 146.626 152.85C141.597 153.252 136.568 153.747 131.529 154C130.072 154.058 127.34 155.15 127.712 151.998C127.946 149.939 127.85 146.096 131.89 147.569C132.262 147.696 132.783 147.316 133.602 147.051C128.584 143.37 122.885 143.289 117.718 141.483C117.843 140.927 117.932 140.362 117.984 139.792C118.302 132.648 118.292 132.648 124.82 133.764C125.266 133.844 125.968 133.833 126.191 133.545C128.371 130.738 127.691 127.344 127.435 124.192C127.138 120.637 124.246 122.155 122.396 121.799C119.366 121.212 117.654 122.708 117.271 125.906C117.027 127.977 117.037 130.082 116.92 132.176C106.99 132.072 108.362 133.844 108.223 122.834C108.223 120.154 108.223 117.473 108.223 114.781C110.222 115.034 111.987 114.712 113.252 112.607C111.551 110.961 109.808 111.801 108.138 111.928L108.053 111.79C108.256 109.703 108.349 107.606 108.33 105.508C108.16 102.368 109.201 101.114 112.232 101.022C117.856 100.837 118.951 99.0082 117.93 92.9683C117.122 88.263 113.731 89.9886 111.179 89.655C108.627 89.3214 106.926 90.4258 107.405 93.4745C108.16 97.9268 105.757 99.3994 102.482 99.6295C98.4313 99.9171 97.4212 102.276 97.7827 106.118C97.5275 107.809 97.602 109.719 97.7083 111.617ZM183.509 17.0153C183.626 19.3162 182.339 22.2153 184.955 23.6879C187.389 25.0454 188.729 22.7445 190.175 21.1454C190.271 21.0419 190.504 21.1454 190.685 21.0879C193.088 21.0073 193.152 19.5232 192.461 17.6365C191.557 15.1285 192.461 10.5957 189.463 10.5497C186.464 10.5037 183.083 8.98508 179.118 10.9063C182.073 12.2984 179.904 16.5321 183.477 17.0153L183.509 17.0153ZM214.267 85.1337C214.916 80.8425 213.852 78.231 209.291 79.0478C205.857 79.623 204.326 78.093 204.773 74.2619C205.294 69.8902 203.199 68.7973 199.457 68.6707C195.204 68.5212 194.789 70.9716 195.129 74.423C195.47 77.8744 194.406 79.1399 191.036 79.2204C186.783 79.3124 185.114 77.5637 185.646 73.123C186.177 68.6822 183.519 68.6247 180.659 68.7973C177.969 68.9583 174.482 67.8654 175.014 72.9849C175.492 77.5867 173.323 79.2319 169.421 79.1054C167.199 79.0363 165.317 79.8992 165.541 82.5567C165.764 85.2143 163.606 89.0338 168.507 89.54C174.525 90.1612 175.949 89.3559 175.949 83.5116C175.949 79.2204 177.874 78.8523 180.946 79.2204C184.646 79.6806 184.54 82.7983 184.891 85.5824C185.507 90.4028 188.867 89.3674 191.78 89.5515C194.694 89.7355 195.491 87.8488 195.172 85.2258C194.566 80.3594 197.15 80.0717 200.605 80.1638C204.932 80.2673 204.762 83.2355 204.634 86.4798C204.634 87.6993 203.167 89.3559 204.72 90.0807C207.197 91.2312 210.036 90.886 212.555 90.3568C215.341 89.7816 213.906 86.9745 214.267 85.1337ZM64.3557 89.517L64.3557 89.3559C68.2257 89.563 72.1064 89.609 75.9552 90.0232C77.6776 90.2072 78.3049 89.586 78.273 87.9754C78.1348 81.8894 80.3356 74.7566 77.4543 70.0398C75.1046 66.2202 68.5447 69.2574 63.8879 68.7052C63.3669 68.6477 62.8246 68.7052 62.3037 68.7052C60.0497 68.5787 58.8802 69.7867 59.2098 72.1566C59.9646 77.5867 58.1466 79.6345 52.9262 79.2319C48.918 78.9213 49.7366 82.7638 49.524 85.5249C49.3114 88.286 50.4915 89.678 53.2346 89.563C56.8814 89.4134 60.5919 89.517 64.3025 89.517L64.3557 89.517ZM141.693 79.1629C145.382 79.1629 149.082 79.1629 152.782 79.1629C155.047 79.1629 157.088 79.1629 156.95 75.7115C156.844 72.9159 157.513 70.2008 153.526 69.453C146.328 68.107 139.131 69.246 131.965 68.6822C128.35 68.4061 127.053 69.7176 127.01 73.8017C126.957 78.1274 128.286 79.6115 132.188 79.2434C135.282 78.9213 138.471 79.1629 141.64 79.1629L141.693 79.1629ZM87.9162 78.7832C88.0238 80.6989 88.0238 82.6199 87.9162 84.5355C87.4484 88.7462 89.3515 89.4594 92.8282 89.6205C97.1979 89.8161 97.8465 87.6187 97.5807 83.7532C97.3787 80.7084 97.3787 77.6519 97.5807 74.6071C97.8252 70.8451 97.3574 68.7052 92.9345 68.6132C88.2458 68.5212 87.6185 70.7991 87.9587 74.8141C87.9948 76.1381 87.9629 77.4631 87.863 78.7832L87.9162 78.7832ZM122.587 27.3233C119.111 26.7251 117.271 27.6455 117.452 32.1092C117.654 35.7792 118.388 37.8615 122.268 37.804C125.872 37.804 127.297 36.4465 127.34 32.4314C127.382 28.4163 126.415 26.472 122.534 27.3233L122.587 27.3233ZM166.508 105.957C165.923 109.73 166.965 111.445 170.92 111.479C174.875 111.514 175.769 109.017 175.971 105.876C176.194 102.483 174.631 100.814 171.186 100.768C167.741 100.722 165.7 101.804 166.455 105.957L166.508 105.957ZM243.059 63.3901C243.622 59.7892 242.495 58.3051 238.88 58.2246C234.872 58.1326 234.287 60.0768 234.33 63.7122C234.33 67.1636 234.968 68.8663 238.657 68.8893C242.58 68.9238 243.59 67.0946 243.027 63.4016L243.059 63.3901Z" fill="#6F0909"/>
<path d="M49.6835 48.0661C48.266 48.1342 46.8461 48.115 45.4307 48.0085C41.5181 47.4793 39.2322 48.6528 39.9445 53.5192C40.4761 57.1777 39.0621 58.8458 35.5216 58.4892C33.2312 58.3224 30.9331 58.3224 28.6427 58.4892C23.6031 58.7078 18.4785 59.5131 19.6693 50.7926C20.1584 47.1802 16.905 48.2041 14.9912 48.1696C13.0774 48.1351 10.3982 47.3758 10.3875 51.0687C10.3769 54.7617 10.0473 58.7883 10.6533 62.5043C11.0625 65.0623 11.0625 67.6774 10.6533 70.2354C10.4088 72.0416 8.06975 76.4133 13.3007 75.9876C14.3107 75.9071 13.7791 77.023 13.5984 77.6903C11.9823 83.7992 11.7591 89.2869 18.3722 92.3701C19.9776 93.1179 20.4029 95.0622 18.0638 95.3613C8.31428 96.5923 10.2812 104.289 10.4194 111.03C0.712407 111.652 0.850608 111.652 0.669864 101.217C0.414695 88.3205 1.02073 75.4239 0.180798 62.4928C-0.0956344 58.3051 -0.3827 53.1281 1.39285 48.5838C2.37099 46.0758 3.902 45.6501 5.99651 45.8227C7.69763 47.8015 10.2493 47.7324 10.0367 45.2014C9.23928 35.9978 15.1719 37.4934 20.0308 37.0102C19.9312 37.9379 19.8922 38.8721 19.9138 39.8058C20.2115 42.7625 19.7969 47.0076 22.9971 47.5369C27.9091 48.3422 33.1294 49.159 38.0095 46.8581C38.5411 46.5935 38.9451 45.1324 38.8388 44.3156C38.2222 39.3456 40.3592 37.5279 44.7396 37.2058C47.4188 37.0102 49.4602 35.7102 49.6303 31.7986C49.8004 27.8871 47.5677 27.5764 45.2605 26.8171C53.0857 26.426 60.9321 25.2755 68.651 27.5189C68.3958 38.7014 70.7774 37.6314 59.2098 37.7235C48.2162 37.8155 49.4389 35.8137 49.5346 48.1466L49.6835 48.0661ZM13.0136 93.5666L13.8961 92.4161C13.51 92.0462 13.0937 91.715 12.6521 91.4267C12.078 91.1276 11.5889 91.4267 11.5889 92.117C11.5889 92.8073 11.876 93.6356 12.9924 93.5666L13.0136 93.5666Z" fill="#6F0909"/>
<path d="M351.261 121.649C351.346 111.353 351.346 111.295 342.202 111.215C335.387 111.123 328.561 111.088 321.735 111.03C320.768 109.006 319.907 107.004 320.449 104.565C320.853 102.759 320.683 101.056 318.397 100.872C315.978 100.502 313.536 100.337 311.093 100.377C301.269 101.229 300.96 100.976 301.747 90.1497C317.504 89.2869 333.271 89.632 349.038 90.0117C349.936 91.8382 350.362 93.893 350.272 95.9595C350.08 98.3409 350.686 100.17 353.334 99.8826C357.3 99.4339 358.65 102.183 359.713 105.554L359.713 121.511L351.261 121.649Z" fill="#6F0909"/>
<path d="M320.704 48.2501C327.87 48.2501 335.015 47.3872 342.191 48.9174C348.103 50.1829 350.091 48.1005 350.229 41.727C350.229 40.3925 350.346 39.0695 350.399 37.7349C353.493 37.7349 356.598 37.7349 359.692 37.7349L359.575 58.1785C351.537 58.4201 351.548 58.4201 349.857 67.06C349.703 67.6073 349.496 68.1355 349.24 68.6362C333.335 68.6362 317.437 68.6055 301.545 68.5441C301.471 56.2343 300.578 58.6847 310.646 58.3971C310.827 58.3971 311.008 58.3971 311.178 58.3971C320.555 58.3741 320.555 58.3741 320.704 48.2501Z" fill="#6F0909"/>
<path d="M45.3029 26.7941C47.6101 27.5534 49.8428 27.8295 49.6727 31.7756C49.5026 35.7217 47.4612 36.9872 44.782 37.1827C40.4016 37.5049 38.2645 39.3226 38.8812 44.2925C38.9875 45.1094 38.5835 46.5935 38.0519 46.8351C33.1718 49.136 27.9515 48.3191 23.0395 47.5138C19.8499 46.9846 20.2539 42.7394 19.9562 39.7828C19.9174 38.8272 19.9423 37.8698 20.0306 36.9181L20.2114 34.3411C20.3123 34.266 20.3947 34.1655 20.4517 34.0483C20.5087 33.9311 20.5385 33.8006 20.5385 33.6681C20.5385 33.5356 20.5087 33.4051 20.4517 33.2879C20.3947 33.1706 20.3123 33.0701 20.2114 32.9951C20.1582 30.8437 19.7648 28.5888 21.9019 27.2428L24.1984 27.1393C25.1659 27.1393 26.1441 27.1393 27.1222 27.1393C31.4388 27.4269 35.7767 28.0826 40.0507 26.7826L45.3029 26.7941Z" fill="#6F0909"/>
<path d="M214.278 111.318C214.373 99.8826 214.373 99.8826 224.91 99.8135C226.145 99.7214 227.385 99.7214 228.62 99.8135C232.309 100.343 233.936 98.7436 233.415 94.694C232.799 90.2187 234.766 89.2753 238.582 89.2984C242.569 89.2984 244.664 90.2992 244.026 95.0506C243.654 97.8347 244.196 100.239 247.588 99.6525C252.766 98.7206 254.137 101.447 253.542 106.452C253.472 107.988 253.525 109.527 253.701 111.053C250.054 110.961 246.418 110.858 242.771 110.766C242.835 109.259 242.825 107.752 242.963 106.245C243.292 102.678 242.559 100.665 238.529 100.711C234.702 100.711 234.17 102.736 234.404 106.003C234.521 107.694 234.5 109.397 234.542 111.1C234.439 111.205 234.31 111.276 234.171 111.304C234.031 111.333 233.887 111.318 233.755 111.261C227.284 111.307 220.791 111.326 214.278 111.318Z" fill="#6F0909"/>
<path d="M301.747 90.1497C300.96 100.975 301.269 101.229 311.093 100.377C313.536 100.337 315.978 100.502 318.397 100.872C320.683 101.056 320.853 102.759 320.449 104.565C319.907 107.004 320.768 109.006 321.735 111.03L290.754 111.134C293.071 105.382 291.519 99.2498 291.742 93.3019C291.849 90.5178 288.957 91.001 287.564 89.7816C292.285 89.2076 297.057 89.3315 301.747 90.1497Z" fill="#6F0909"/>
<path d="M320.704 48.2501C320.555 58.3741 320.555 58.3741 311.135 58.4316C310.965 58.4316 310.784 58.4316 310.604 58.4316C300.535 58.7193 301.428 56.2688 301.503 68.5787C298.26 68.5787 295.028 68.6362 291.785 68.6592L291.785 48.043C301.453 48.1197 311.093 48.1887 320.704 48.2501Z" fill="#6F0909"/>
<path d="M49.6834 110.996C49.5665 123.421 48.2587 121.58 59.2522 121.569C68.6084 121.569 68.6084 121.431 68.8211 131.785C62.3568 131.785 55.8961 131.785 49.4389 131.785C48.9982 129.968 48.7099 128.112 48.5777 126.24C48.5777 122.788 47.0467 121.362 44.0485 121.695C40.2422 122.121 39.7957 119.785 39.7957 116.472C39.7957 113.159 40.0083 110.593 43.8996 111.249C47.3869 111.847 48.3332 109.247 49.2901 106.555L49.6834 110.996Z" fill="#6F0909"/>
<path d="M97.7083 111.617C97.602 109.719 97.5701 107.809 97.3893 105.922C97.0278 102.08 98.0379 99.7215 102.089 99.4339C105.363 99.2038 107.766 97.7312 107.011 93.279C106.49 90.2302 108.202 89.1143 110.786 89.4594C113.369 89.8046 116.729 88.0674 117.537 92.7727C118.6 98.7896 117.463 100.619 111.838 100.826C108.808 100.918 107.766 102.172 107.936 105.313C107.955 107.411 107.863 109.508 107.66 111.594C104.364 111.015 101.002 111.023 97.7083 111.617V111.617Z" fill="#6F0909"/>
<path d="M107.66 47.6864C107.865 48.9971 107.951 50.3266 107.915 51.6555C107.383 56.5564 108.606 59.306 113.826 58.4317C118.079 57.7069 117.601 61.1813 117.516 64.0114C117.431 66.8415 118.451 69.7636 114.018 69.9592C107.479 70.1548 107.213 70.1778 106.979 63.1945C106.905 60.8936 107.266 57.983 104.013 58.5927C97.3361 59.7432 96.8257 55.59 97.3574 50.2289C97.4743 49.0785 97.4743 47.928 97.5275 46.7775C100.855 47.6749 104.183 48.6298 107.66 47.6864Z" fill="#6F0909"/>
<path d="M166.487 37.7004C166.274 43.1421 165.583 48.4342 173.408 48.4227C176.066 48.4227 175.939 52.8519 175.992 55.6591C176.045 58.4662 174.067 58.2246 172.281 58.4201C167.933 58.8803 164.424 58.5237 165.402 52.1041C165.689 50.2289 165.509 48.4802 162.946 47.997C156.238 46.766 155.95 46.1793 155.855 37.7119C159.406 37.7119 162.946 37.7004 166.487 37.7004Z" fill="#6F0909"/>
<path d="M214.278 111.318C220.784 111.318 227.291 111.318 233.798 111.318L233.532 117.001L233.458 120.292C232.001 122.42 229.96 121.258 228.142 121.442C226.271 119.831 224.091 120.602 222.05 120.556C213.608 120.384 214.331 121.592 214.331 112.446L214.331 111.295L214.278 111.318Z" fill="#6F0909"/>
<path d="M243.005 152.7C243.346 149.249 242.155 145.797 243.75 142.449C245.167 142.544 246.589 142.52 248.002 142.38C253.095 141.495 253.818 144.451 253.627 149.019C253.478 152.47 252.223 153.965 249.129 153.62C247.056 153.436 244.845 154.414 243.005 152.7Z" fill="#6F0909"/>
<path d="M116.527 131.934C116.644 129.84 116.633 127.735 116.878 125.664C117.26 122.466 119.004 120.97 122.002 121.557C123.873 121.914 126.744 120.407 127.042 123.95C127.297 127.102 127.977 130.496 125.798 133.303C125.575 133.591 124.873 133.602 124.426 133.522C117.898 132.371 117.909 132.371 117.59 139.55C117.539 140.12 117.45 140.685 117.324 141.241C115.836 138.262 116.952 135.017 116.527 131.934Z" fill="#6F0909"/>
<path d="M214.32 111.272L214.32 112.423C214.32 121.569 213.597 120.361 222.039 120.533C224.08 120.533 226.292 119.808 228.131 121.419C219.966 121.419 211.815 121.457 203.677 121.534L204.369 120.004C205.506 117.335 203.199 113.251 206.091 111.778C208.409 110.605 211.545 111.364 214.32 111.272Z" fill="#6F0909"/>
<path d="M243.292 17.3144C242.229 13.5064 244.876 9.88242 243.749 6.07441C245.493 5.92485 247.226 5.80982 248.959 5.60274C252.925 5.14256 253.584 7.60452 253.605 11.1824C253.627 14.7603 253.053 17.1648 249.034 16.8772C247.113 16.8805 245.195 17.0265 243.292 17.3144V17.3144Z" fill="#6F0909"/>
<path d="M20.8812 111.284C20.4666 114.735 21.8275 118.313 20.0094 121.638C19.8393 121.638 19.6692 121.638 19.4884 121.638C9.78141 121.281 10.1004 124.134 10.5575 111.111C14.0023 111.18 17.4577 111.249 20.9025 111.33L20.8812 111.284Z" fill="#6F0909"/>
<path d="M359.724 105.554C358.66 102.241 357.299 99.4339 353.344 99.8826C350.697 100.17 350.091 98.3409 350.282 95.9595C350.373 93.8929 349.947 91.8382 349.049 90.0117C359.596 88.5621 359.617 88.5621 359.862 99.9171C359.894 101.792 359.777 103.679 359.724 105.554Z" fill="#6F0909"/>
<path d="M359.692 37.781C356.598 37.781 353.493 37.781 350.399 37.781C350.399 35.4801 350.516 33.2482 350.293 31.0048C349.921 27.1163 351.633 26.403 354.875 26.2994C358.703 26.1614 360.468 27.2543 359.894 31.626C359.721 33.6721 359.654 35.7269 359.692 37.781V37.781Z" fill="#6F0909"/>
<path d="M155.748 121.431C155.862 119.9 155.901 118.364 155.865 116.829C155.621 113.113 156.695 111.157 160.575 111.157C164.073 111.157 166.21 112.077 165.445 116.242C164.679 120.407 167.784 120.2 169.697 121.442L155.748 121.431Z" fill="#6F0909"/>
<path d="M214.363 37.7925L214.299 48.043C204.73 48.112 204.73 48.112 204.73 37.7464C207.92 37.7579 211.141 37.781 214.363 37.7925Z" fill="#6F0909"/>
<path d="M349.24 68.6822C349.496 68.1815 349.703 67.6533 349.857 67.1061C351.548 58.4661 351.537 58.4661 359.575 58.2245C360.468 68.9238 360.468 68.9238 349.24 68.6822Z" fill="#6F0909"/>
<path d="M185.454 121.304C185.454 119.406 185.454 117.508 185.56 115.621C185.645 114.022 185.071 111.801 187.293 111.502C189.516 111.203 192.205 110.536 194.406 112.077C194.927 112.446 195.023 113.757 195.076 114.654C195.214 116.955 195.204 119.199 195.257 121.465C191.982 121.408 188.718 121.362 185.454 121.304Z" fill="#6F0909"/>
<path d="M195.172 37.6659C195.172 38.8164 195.108 39.9668 195.172 41.0483C195.278 44.8908 195.778 48.2961 190.143 48.2041C184.508 48.1121 185.72 44.4651 185.635 41.0828C185.635 39.9323 185.635 38.7819 185.635 37.7004L195.172 37.6659Z" fill="#6F0909"/>
<path d="M351.261 121.649L359.681 121.511C359.681 122.443 359.83 123.386 359.83 124.318C359.83 128.333 360.957 132.648 354.45 132.176C347.699 131.693 351.186 126.665 350.41 123.547C350.282 123.03 350.952 122.282 351.261 121.649Z" fill="#6F0909"/>
<path d="M156.099 5.97087C155.986 7.09046 155.926 8.21552 155.918 9.34171C156.078 13.1037 156.301 16.1409 151.07 16.1409C145.839 16.1409 146.073 13.0807 146.233 9.3302C146.227 8.20361 146.163 7.07826 146.041 5.95937C149.372 5.36498 152.77 5.36886 156.099 5.97087V5.97087Z" fill="#6F0909"/>
<path d="M233.617 132.302C233.617 134.017 233.437 135.754 233.532 137.445C233.745 141.161 232.171 142.53 228.812 142.495C225.622 142.495 223.634 141.552 223.857 137.664C224.13 135.759 223.752 133.812 222.794 132.187C226.366 132.218 229.974 132.256 233.617 132.302Z" fill="#6F0909"/>
<path d="M146.233 152.631C146.233 151.308 146.339 149.973 146.233 148.662C145.935 144.681 146.733 142.38 151.251 142.219C156.269 142.047 156.067 145.084 155.897 148.685C155.834 150.008 155.897 151.331 155.897 152.654C152.665 152.642 149.444 152.642 146.233 152.631Z" fill="#6F0909"/>
<path d="M223.613 26.6446C224.187 25.0569 225.122 23.5383 224.771 21.7321C224.208 18.9135 223.634 16.4515 227.812 16.7967C230.895 17.0498 234.106 16.417 233.479 21.5941C233.224 23.7684 233.479 25.8162 235.605 26.9322C231.618 27.5148 227.572 27.4177 223.613 26.6446Z" fill="#6F0909"/>
<path d="M252.691 48.2616C252.691 49.412 252.691 50.5625 252.638 51.713C252.489 54.8882 253.829 58.5582 248.385 58.6157C242.942 58.6732 243.782 54.6581 243.016 51.5174C242.793 50.597 243.526 49.389 243.813 48.3191L252.691 48.2616Z" fill="#6F0909"/>
<path d="M234.585 111.134C234.585 109.431 234.585 107.683 234.447 106.037C234.213 102.77 234.744 100.791 238.572 100.745C242.601 100.745 243.335 102.713 243.005 106.279C242.867 107.786 242.878 109.293 242.814 110.8C240.071 110.95 237.328 111.053 234.585 111.134Z" fill="#6F0909"/>
<path d="M243.558 140.287C240.496 138.538 242.357 135.524 241.974 133.085C246.567 134.442 243.186 137.859 243.558 140.287Z" fill="#6F0909"/>
<path d="M107.745 111.709C109.414 111.583 111.158 110.743 112.859 112.388C111.594 114.493 109.829 114.816 107.83 114.562L107.745 111.709Z" fill="#6F0909"/>
<path d="M40.1146 26.7826C35.8618 28.0826 31.5026 27.4269 27.186 27.1393C31.4176 25.4711 35.7448 26.1959 40.1146 26.7826Z" fill="#6F0909"/>
<path d="M117.835 16.371C117.239 19.2356 118.249 22.2728 117.048 25.0799C116.782 22.1118 115.379 19.04 117.835 16.371Z" fill="#6F0909"/>
<path d="M271.627 111.134C272.781 110.438 274.08 110.072 275.401 110.072C276.722 110.072 278.022 110.438 279.175 111.134C276.656 111.134 274.146 111.134 271.627 111.134Z" fill="#6F0909"/>
<path d="M239.762 26.9091L243.228 25.0454C243.409 28.5658 241.304 27.1507 239.762 26.9091Z" fill="#6F0909"/>
<path d="M84.5989 121.488C84.8804 121.174 85.2175 120.924 85.59 120.753C85.9626 120.582 86.3632 120.494 86.7678 120.494C87.1725 120.494 87.573 120.582 87.9456 120.753C88.3182 120.924 88.6552 121.174 88.9368 121.488C87.4908 121.431 86.0448 121.488 84.5989 121.488Z" fill="#6F0909"/>
<path d="M233.458 120.338L233.532 117.047C234.542 118.14 234.68 119.187 233.458 120.338Z" fill="#6F0909"/>
<path d="M24.2196 27.0932L21.9231 27.1968C22.6567 26.1499 23.4222 26.2304 24.2196 27.0932Z" fill="#6F0909"/>
<path d="M20.2752 129.541L21.0194 131.704C19.818 131.417 19.9137 130.565 20.2752 129.541Z" fill="#6F0909"/>
<path d="M90.978 121.431C91.7329 120.464 92.4772 120.487 93.2214 121.431L90.978 121.431Z" fill="#6F0909"/>
<path d="M129.424 5.70628C128.69 6.0054 127.946 6.30452 127.212 6.61514C127.563 5.36113 128.424 5.43016 129.424 5.70628Z" fill="#6F0909"/>
<path d="M229.279 5.80981C228.854 6.41956 228.429 6.41956 228.003 5.80981C228.429 5.80981 228.854 5.80981 229.279 5.80981Z" fill="#6F0909"/>
<path d="M20.2327 32.9951C20.3333 33.0701 20.4155 33.1706 20.4723 33.2879C20.5292 33.4051 20.5589 33.5356 20.5589 33.6681C20.5589 33.8005 20.5292 33.931 20.4723 34.0483C20.4155 34.1655 20.3333 34.266 20.2327 34.3411L20.2327 32.9951Z" fill="#6F0909"/>
<path d="M20.2434 123.789C20.3443 123.87 20.4262 123.976 20.4827 124.098C20.5392 124.22 20.5686 124.354 20.5686 124.491C20.5686 124.627 20.5392 124.762 20.4827 124.884C20.4262 125.005 20.3443 125.111 20.2434 125.193L20.2434 123.789Z" fill="#6F0909"/>
<path d="M96.2729 121.488L97.3999 120.579C97.3927 120.724 97.3562 120.866 97.2928 120.994C97.2294 121.121 97.1408 121.233 97.0333 121.319C96.9257 121.406 96.8019 121.466 96.6705 121.495C96.5391 121.525 96.4034 121.522 96.2729 121.488V121.488Z" fill="#6F0909"/>
<path d="M97.5276 41.2668L97.3362 40.0474C98.2505 40.3005 98.1336 40.7376 97.5276 41.2668Z" fill="#6F0909"/>
<path d="M6.01765 45.7651L6.2509 45.466L5.98584 45.7306L6.01765 45.7651Z" fill="#6F0909"/>
<path d="M137.929 5.79832C137.472 6.43108 137.047 6.37356 136.653 5.72929L137.929 5.79832Z" fill="#6F0909"/>
<path d="M214.267 85.1337C213.905 86.9399 215.33 89.7356 212.555 90.3683C209.993 90.8975 207.239 91.2311 204.719 90.0922C203.167 89.3674 204.592 87.7107 204.634 86.4912C204.762 83.247 204.932 80.2788 200.605 80.1753C197.149 80.0832 194.566 80.3708 195.172 85.2373C195.491 87.8603 194.8 89.747 191.78 89.563C188.761 89.3789 185.507 90.4143 184.891 85.5939C184.54 82.8098 184.646 79.6921 180.946 79.2319C177.874 78.8637 175.938 79.2319 175.949 83.5231C175.949 89.3674 174.514 90.1727 168.507 89.5515C163.605 89.0453 165.753 85.1337 165.54 82.5682C165.328 80.0027 167.199 79.0133 169.421 79.1169C173.323 79.2434 175.492 77.6098 175.014 72.9964C174.482 67.8769 177.969 68.9698 180.659 68.8088C183.53 68.6362 186.166 68.7167 185.646 73.1345C185.125 77.5522 186.794 79.3239 191.036 79.2319C194.406 79.1513 195.459 77.7823 195.129 74.4345C194.8 71.0867 195.193 68.5557 199.456 68.6822C203.21 68.8088 205.304 69.9017 204.772 74.2734C204.326 78.1044 205.836 79.6345 209.291 79.0593C213.852 78.277 214.915 80.8425 214.267 85.1337Z" fill="#6F0909"/>
<path d="M64.3024 89.517C60.5918 89.517 56.8599 89.4134 53.1813 89.517C50.4382 89.632 49.2793 88.3665 49.4707 85.4789C49.6621 82.5912 48.8647 78.8753 52.8729 79.1859C58.072 79.5886 59.9113 77.5407 59.1565 72.1106C58.8269 69.7521 59.9964 68.5441 62.2504 68.6592C62.782 68.6592 63.3136 68.6017 63.8345 68.6592C68.4914 69.2114 75.0513 66.1742 77.401 69.9937C80.2823 74.7106 78.0814 81.8434 78.2197 87.9293C78.2197 89.54 77.6243 90.1612 75.9019 89.9771C72.0531 89.563 68.1724 89.517 64.3024 89.3099L64.3024 89.517Z" fill="#6F0909"/>
<path d="M141.64 79.1628C138.45 79.1628 135.26 78.9213 132.135 79.2204C128.233 79.5885 126.904 78.0699 126.957 73.7787C126.957 69.6946 128.296 68.3831 131.911 68.6592C139.077 69.2229 146.275 68.084 153.473 69.43C157.46 70.1778 156.79 72.8814 156.897 75.6885C157.035 79.1398 154.994 79.1398 152.729 79.1398C149.029 79.1398 145.286 79.1398 141.64 79.1398L141.64 79.1628Z" fill="#6F0909"/>
<path d="M20.9026 111.307C19.531 108.534 20.7963 105.738 20.7963 102.954C20.7963 100.4 22.1146 99.6985 24.1772 99.7906C28.5257 99.9746 32.9061 99.7905 37.2014 100.4C40.7525 100.906 38.6687 104.358 38.977 106.44C39.3491 108.971 39.1577 111.456 35.6492 111.353C30.7372 111.192 25.8039 111.295 20.8813 111.284L20.9026 111.307Z" fill="#6F0909"/>
<path d="M87.863 78.7832C87.9322 77.4497 87.9322 76.1131 87.863 74.7796C87.4909 70.7645 88.1501 68.4867 92.8388 68.5787C97.2617 68.6707 97.7295 70.8106 97.485 74.5726C97.283 77.6173 97.283 80.6739 97.485 83.7187C97.7508 87.5842 97.1022 89.7816 92.7325 89.586C89.2558 89.4249 87.3527 88.7117 87.8205 84.501C87.941 82.5977 87.9552 80.6883 87.863 78.7832V78.7832Z" fill="#6F0909"/>
<path d="M214.299 48.043C219.211 48.043 224.123 48.1236 229.035 47.9395C233.022 47.7784 233.447 50.2404 233.585 53.6918C233.734 57.6493 232.129 58.6272 228.886 58.3971C226.089 58.1038 223.273 58.1038 220.476 58.3971C215.245 59.1219 213.501 56.7059 214.277 51.3793C214.359 50.2306 214.359 49.0767 214.277 47.928L214.299 48.043Z" fill="#6F0909"/>
<path d="M183.477 16.9692C179.904 16.486 182.073 12.2524 179.117 10.8603C183.073 8.93905 186.4 10.4576 189.462 10.5037C192.524 10.5497 191.589 15.1055 192.461 17.5905C193.152 19.5232 193.088 21.0418 190.685 21.0418C190.504 21.0418 190.27 21.0418 190.175 21.0994C188.729 22.6985 187.389 24.9994 184.954 23.6419C182.339 22.1693 183.625 19.3046 183.508 16.9692L183.785 16.486L183.477 16.9692Z" fill="#6F0909"/>
<path d="M49.6834 110.996L49.407 106.567C49.6622 103.955 48.482 100.446 52.7454 100.4C53.111 100.656 53.5462 100.769 53.9792 100.721C54.4121 100.673 54.817 100.466 55.127 100.136C56.052 100.136 56.9663 100.136 57.8913 100.136L59.1565 100.976C59.114 112.457 61.1447 111.215 49.6834 110.996Z" fill="#6F0909"/>
<path d="M49.4175 51.4369L49.662 48.066L52.7878 47.8934L53.9148 47.8934C58.4441 47.1341 59.3691 49.4466 59.3691 54.0024C59.3691 58.9838 56.6685 58.4201 53.8936 58.3166C52.3838 58.2591 50.704 58.9378 49.4813 57.2812L49.4175 51.4369Z" fill="#6F0909"/>
<path d="M122.534 27.3233C126.415 26.472 127.318 28.4738 127.287 32.4314C127.255 36.3889 125.819 37.7925 122.215 37.804C118.334 37.804 117.601 35.7792 117.399 32.1092C117.165 27.6455 119.057 26.7251 122.534 27.3233Z" fill="#6F0909"/>
<path d="M166.455 105.957C165.7 101.804 167.518 100.722 171.133 100.768C174.748 100.814 176.141 102.483 175.917 105.876C175.715 109.017 174.854 111.514 170.867 111.479C166.88 111.445 165.87 109.73 166.455 105.957Z" fill="#6F0909"/>
<path d="M243.026 63.4016C243.59 67.0946 242.58 68.9238 238.625 68.9008C234.936 68.9008 234.372 67.1636 234.298 63.7237C234.298 60.0883 234.84 58.144 238.848 58.236C242.463 58.3166 243.59 59.8007 243.026 63.4016Z" fill="#6F0909"/>
<path d="M49.4176 51.4369L49.4176 57.3042C48.8052 56.4699 48.4719 55.4359 48.4719 54.3705C48.4719 53.3052 48.8052 52.2711 49.4176 51.4369Z" fill="#6F0909"/>
<path d="M55.074 100.136C54.764 100.466 54.3591 100.673 53.9261 100.721C53.4932 100.769 53.058 100.656 52.6924 100.4C53.0274 100.121 53.4277 99.9484 53.8484 99.9016C54.2691 99.8549 54.6935 99.9359 55.074 100.136V100.136Z" fill="#6F0909"/>
<path d="M53.8619 47.8589L52.7349 47.8589C52.9892 47.7028 53.2561 47.5719 53.5323 47.4678C53.6067 47.5368 53.7555 47.7899 53.8619 47.8589Z" fill="#6F0909"/>
<path d="M59.1033 100.999L57.8381 100.159C57.9723 100.108 58.1152 100.09 58.2565 100.106C58.3979 100.122 58.5341 100.173 58.6552 100.253C58.7764 100.334 58.8795 100.442 58.957 100.571C59.0345 100.7 59.0845 100.846 59.1033 100.999V100.999Z" fill="#6F0909"/>
<path d="M12.9922 93.5666C11.8759 93.6356 11.5782 93.0028 11.5994 92.1745C11.6207 91.3462 12.0566 91.1852 12.6626 91.4843C13.1041 91.7726 13.5205 92.1037 13.9066 92.4736L12.9922 93.5666Z" fill="#6F0909"/>
<path d="M183.477 16.9692L183.784 16.5321L183.508 17.0153L183.477 16.9692Z" fill="#6F0909"/>
</g>
<defs>
<clipPath id="clip0_5_592">
<rect width="154" height="360" fill="white" transform="translate(0 154) rotate(-90)"/>
</clipPath>
</defs>
</svg>
