<svg width="47" height="74" viewBox="0 0 47 74" fill="none" xmlns="http://www.w3.org/2000/svg">
<path d="M37 7.19228e-06C36.8 4.73001 36.15 9.33001 43.51 9.32001C46.01 9.32001 45.89 13.17 45.94 15.61C45.99 18.05 44.13 17.84 42.45 18.01C38.36 18.41 35.06 18.1 35.98 12.52C36.25 10.89 36.08 9.37 33.67 8.95C27.36 7.88 27.09 7.37 27 0.0100021C30.34 0.010002 33.67 7.33784e-06 37 7.19228e-06Z" fill="#EC7382"/>
<path d="M5.40525 63.5357C10.1352 63.7357 14.7353 64.3857 14.7253 57.0257C14.7253 54.5257 18.5752 54.6457 21.0152 54.5957C23.4552 54.5457 23.2452 56.4057 23.4152 58.0857C23.8152 62.1757 23.5053 65.4757 17.9253 64.5557C16.2953 64.2857 14.7752 64.4557 14.3552 66.8657C13.2852 73.1757 12.7752 73.4457 5.41525 73.5357C5.41524 70.1957 5.40525 66.8657 5.40525 63.5357Z" fill="#EC7382"/>
<path d="M13.8114 36.04C10.8114 36.04 7.81143 35.83 4.87143 36.09C1.20143 36.41 -0.0485656 35.09 0.00143424 31.36C0.00143408 27.81 1.26144 26.67 4.66144 26.91C11.4014 27.4 18.1714 26.41 24.9414 27.58C28.6914 28.23 28.0614 30.58 28.1614 33.02C28.2914 36.02 26.3715 36.02 24.2415 36.02C20.7615 36.02 17.2414 36.02 13.8114 36.02L13.8114 36.04Z" fill="#F5AFB8"/>
<path d="M37.1515 59.33C36.4415 55.72 38.1516 54.78 41.5516 54.82C44.9516 54.86 46.2616 56.31 46.0516 59.26C45.8616 61.99 45.0516 64.16 41.3016 64.13C37.5516 64.1 36.6015 62.61 37.1515 59.33Z" fill="#F5AFB8"/>
</svg>
