<svg width="542" height="211" viewBox="0 0 542 211" fill="none" xmlns="http://www.w3.org/2000/svg">
<rect width="542" height="211" fill="#C4C4C4"/>
<g clip-path="url(#clip0_5_531)">
<path d="M269.49 41.67C268.34 41.84 266.59 41.46 267.63 43.67C261.363 43.8433 255.093 44.0166 248.82 44.19C245.685 43.67 242.485 43.67 239.35 44.19C236.797 44.15 234.247 44.1033 231.7 44.05L230.5 43.99C228.23 43.99 225.95 43.99 223.68 43.99C222.79 43.75 221.98 43.69 221.6 44.78C221.28 52.62 221.28 52.62 213.31 53.17C213.148 53.1902 212.988 53.2202 212.83 53.26C210.52 55.58 211.83 58.26 212.09 60.82C211.39 62.99 209.52 62.82 207.94 62.58C203.94 62.07 203.13 63.97 203.32 67.5C203.55 71.81 203.32 76.15 203.26 80.5C199.99 81.32 196.86 80.5 193.73 79.69L193.73 74.92C194.27 74.46 194.38 74.08 193.55 73.86C192.742 73.0441 191.757 72.4256 190.672 72.0527C189.586 71.6798 188.429 71.5625 187.29 71.71C184.34 71.89 181.37 71.71 178.41 71.71C176.85 71.71 175.69 71.64 175.8 69.28C176.11 62.9 175.94 62.89 169.57 62.91C168.57 62.91 167.57 62.91 166.57 62.97C159.28 60.97 151.9 61.97 144.57 62.36L139.73 62.36C135.66 61.85 131.59 61.22 127.57 62.67C126.65 62.67 125.73 62.67 124.82 62.67C124.07 61.92 123.35 61.85 122.66 62.76C120.66 63.97 121.02 65.93 121.07 67.76L121.07 68.93L120.9 71.17C116.33 71.59 110.75 70.29 111.5 78.29C111.71 80.49 109.3 80.55 107.7 78.83L107.95 78.6L107.73 78.86C105.73 78.71 104.32 79.08 103.4 81.26C101.73 85.21 102 89.71 102.26 93.35C103.05 104.59 102.48 115.8 102.72 127.01C102.92 136.08 102.72 136.08 111.9 135.54L111.99 135.64C111.56 146.96 111.26 144.48 120.39 144.79C120.56 144.79 120.72 144.79 120.89 144.79L121.1 146.71L121.1 147.93L121.1 151.6C120.73 152.45 120.67 153.19 121.8 153.48C130.707 153.48 139.62 153.48 148.54 153.48L166.73 153.48C168.38 153.54 170.04 153.48 171.68 153.66C174.55 153.97 176.27 153.06 175.68 149.89C174.63 144.68 177.68 144.11 181.6 144.49C182.96 144.49 184.32 144.49 185.68 144.49L187.6 144.49L189.71 144.49L192.58 144.49C192.703 144.52 192.83 144.522 192.954 144.496C193.078 144.471 193.194 144.419 193.295 144.343C193.396 144.268 193.48 144.171 193.539 144.06C193.599 143.949 193.633 143.826 193.64 143.7L193.93 135.92C197.029 135.41 200.191 135.41 203.29 135.92L203.37 136.04L203.44 138.52C203.44 140.84 203.44 143.17 203.44 145.52C203.57 155.09 202.28 153.52 211.62 153.64C212.02 156.32 210.97 159.14 212.37 161.73C217.23 163.3 222.59 163.37 227.31 166.57C226.54 166.8 226.05 167.13 225.7 167.02C221.9 165.74 221.99 169.08 221.77 170.87C221.42 173.63 223.99 172.66 225.36 172.61C230.1 172.41 234.83 171.98 239.56 171.61C242.56 171.61 245.61 171.61 248.63 171.61C248.915 171.711 249.21 171.778 249.51 171.81C250.093 172.319 250.837 172.605 251.611 172.62C252.384 172.635 253.138 172.376 253.74 171.89L286.46 171.89C291.482 172.98 296.679 172.98 301.7 171.89C311.327 171.81 320.953 171.727 330.58 171.64C332.31 173.13 334.39 172.28 336.31 172.47C339.22 172.74 340.4 171.47 340.54 168.47C340.72 164.47 340.04 161.93 335.25 162.7C333.92 162.821 332.583 162.841 331.25 162.76L331.08 160.88C330.7 158.77 333.91 155.8 329.59 154.62C327.1 152.79 324.35 153.88 321.69 153.94C318.29 153.9 314.893 153.867 311.5 153.84C308.84 153.84 306.18 153.77 303.5 153.76C283.72 153.76 263.93 153.76 244.15 153.65C242.67 153.65 240.76 154.51 239.83 152.33C237.99 148.03 240.2 144.73 244.99 144.66C246.15 144.66 247.31 144.55 248.47 144.49L261.59 144.49C266.53 144.437 271.47 144.39 276.41 144.35C279.48 144.4 282.55 144.44 285.63 144.49C288.27 144.49 290.91 144.49 293.55 144.49C301.223 144.49 308.89 144.457 316.55 144.39C318.26 144.27 320.18 145.28 321.55 143.39C322.74 142.46 322.55 141.51 321.62 140.53L321.87 135.59C321.994 135.64 322.129 135.653 322.261 135.628C322.392 135.603 322.513 135.541 322.61 135.45C325.19 135.35 327.77 135.26 330.35 135.16C333.78 135.24 337.2 135.33 340.63 135.41C346.243 135.41 351.85 135.41 357.45 135.41C359.82 135.41 362.18 135.41 364.55 135.41C368.18 135.41 371.81 135.41 375.44 135.41L404.58 135.32C411 135.32 417.42 135.4 423.83 135.48C432.43 135.59 432.43 135.6 432.35 144.55C432.06 145.1 431.43 145.75 431.55 146.2C432.28 148.91 429 153.28 435.35 153.7C441.47 154.11 440.41 150.36 440.41 146.87C440.41 146.06 440.32 145.24 440.27 144.43L440.27 130.56C440.27 128.93 440.43 127.29 440.39 125.66C440.16 115.79 440.14 115.79 430.22 117.05C415.39 116.72 400.56 116.42 385.74 117.17C381.329 116.459 376.841 116.351 372.4 116.85C363.08 116.85 353.76 116.69 344.45 116.85C341.12 116.91 340.1 115.71 340.2 112.5C340.3 109.5 340.37 107.04 344.37 107.69C348.37 108.34 350.05 106.89 349.37 102.84C348.77 99.16 350.64 98.42 353.94 98.51C361.42 98.69 368.94 98.51 376.39 98.51C379.44 98.51 382.48 98.51 385.53 98.44C400.477 98.44 415.43 98.4666 430.39 98.52C440.95 98.73 440.95 98.7299 440.11 89.4299L440.22 71.66C440.183 69.8612 440.246 68.0617 440.41 66.27C440.95 62.47 439.29 61.52 435.69 61.64C432.69 61.74 431.03 62.35 431.38 65.73C431.59 67.68 431.46 69.66 431.48 71.62C431.43 72.78 431.35 73.93 431.32 75.09C431.19 80.63 429.32 82.44 423.76 81.34C417.01 80.01 410.29 80.72 403.55 80.76C394.51 80.7 385.47 80.6433 376.43 80.59L339.58 80.77L331.26 80.83C330.932 80.749 330.597 80.6988 330.26 80.68C325.16 80.85 320.36 80.87 321.58 73.34C321.92 71.2 319.69 71.52 318.3 71.52C313.36 71.52 308.43 71.61 303.5 71.67L294.4 71.67C291.4 71.67 288.4 71.62 285.4 71.6L276.4 71.6L258.4 71.6C255.07 71.6 251.74 71.6 248.4 71.6C246.4 71.54 244.4 71.48 242.4 71.41C238.66 71.29 239.6 68.41 239.48 66.29C239.36 64.17 239.36 62.29 242.4 62.29C255.76 62.29 269.13 61.95 282.49 62.09C292.36 62.2 302.22 62.51 312.09 61.98C315.801 62.6478 319.593 62.7322 323.33 62.23C324.65 62.23 325.96 62.23 327.28 62.23C328.73 62.43 330.71 63.67 330.54 60.61L330.6 53.89C332.389 53.6398 334.194 53.5128 336 53.51C339.78 53.76 340.31 51.65 340.3 48.56C340.29 45.47 339.66 43.31 335.93 43.71C334.3 43.89 332.67 43.99 331.03 44.13L317.42 43.89L316.22 43.89C314.07 43.89 311.93 43.89 309.79 43.8C296.32 43.38 282.79 44.38 269.37 43.42L269.37 41.65C271.83 42.65 273.84 41.07 275.99 40.43C276.41 40.31 275.99 39.05 275.34 38.96C273.11 38.81 270.73 38.88 269.49 41.67Z" fill="#FCFCFC"/>
<path d="M193.9 136.02L193.61 143.8L192.55 144.59C191.55 144.59 190.63 144.59 189.68 144.59C188.98 143.74 188.28 143.72 187.57 144.59L185.65 144.59C185.385 144.317 185.068 144.099 184.718 143.951C184.367 143.802 183.991 143.726 183.61 143.726C183.229 143.726 182.853 143.802 182.502 143.951C182.152 144.099 181.835 144.317 181.57 144.59C177.62 144.21 174.57 144.78 175.65 149.99C176.28 153.16 174.56 154.07 171.65 153.76C170.01 153.59 168.35 153.64 166.7 153.58C166.45 144.58 166.45 144.68 157.7 144.7C147.35 144.7 148.58 146.31 148.7 135.51C159.53 135.7 157.62 136.78 157.61 126.82C157.592 126.687 157.545 126.561 157.472 126.448C157.399 126.336 157.302 126.242 157.189 126.172C157.075 126.102 156.946 126.059 156.813 126.044C156.681 126.03 156.546 126.046 156.42 126.09L153.82 126.09C153.464 125.917 153.068 125.846 152.674 125.885C152.28 125.924 151.905 126.071 151.59 126.31C147.59 126.31 148.68 129.41 148.44 131.68C147.54 134.02 146.65 136.28 143.37 135.76C139.71 135.19 139.54 137.53 139.51 140.3C139.48 143.07 139.88 145.21 143.51 144.84C146.33 144.55 147.79 145.76 147.77 148.79C147.894 150.418 148.165 152.031 148.58 153.61C139.673 153.61 130.76 153.61 121.84 153.61L121.14 151.73L121.14 147.93C121.235 147.859 121.312 147.767 121.366 147.661C121.419 147.555 121.447 147.439 121.447 147.32C121.447 147.201 121.419 147.085 121.366 146.979C121.312 146.873 121.235 146.781 121.14 146.71L120.92 144.79C122.63 141.93 121.35 138.79 121.74 135.79C126.37 135.79 131.01 135.71 135.63 135.85C138.93 135.94 139.11 133.78 138.76 131.58C138.47 129.77 140.43 126.77 137.09 126.33C133.09 125.79 128.93 125.96 124.84 125.8C122.9 125.72 121.65 126.33 121.66 128.55C121.66 130.97 120.47 133.4 121.76 135.81C118.52 135.74 115.27 135.68 112.03 135.62L111.93 135.52C111.8 129.66 109.93 122.97 119.12 121.9C121.32 121.64 120.92 119.95 119.41 119.3C113.19 116.62 113.41 111.85 114.92 106.54C115.09 105.96 115.59 104.99 114.64 105.06C109.72 105.46 111.92 101.66 112.15 100.06C112.535 97.8365 112.535 95.5634 112.15 93.34C111.58 90.11 111.89 86.72 111.9 83.4C111.91 80.08 114.38 80.84 116.23 80.88C118.08 80.92 121.09 80.02 120.63 83.16C119.51 90.74 124.33 90.04 129.07 89.85C131.224 89.705 133.386 89.705 135.54 89.85C138.87 90.16 140.2 88.71 139.7 85.53C139.03 81.3 141.18 80.28 144.86 80.74C146.191 80.8325 147.527 80.8492 148.86 80.79L148.63 83.72C148.054 84.4451 147.74 85.3439 147.74 86.27C147.74 87.196 148.054 88.0948 148.63 88.82C149.76 90.26 151.36 89.67 152.78 89.72C155.39 89.81 157.93 90.3 157.93 85.97C157.93 81.97 157.06 79.97 152.8 80.66C152.7 80.55 152.56 80.33 152.49 80.35C152.232 80.4412 151.981 80.5515 151.74 80.68C150.74 80.74 149.74 80.79 148.81 80.84C148.71 70.12 147.56 71.84 157.9 71.78C168.83 71.7 166.54 72.63 166.78 62.91C167.78 62.91 168.78 62.86 169.78 62.85C176.15 62.85 176.32 62.85 176.01 69.22C175.9 71.58 177.01 71.63 178.62 71.65C181.62 71.7 184.55 71.85 187.5 71.65C188.638 71.5025 189.796 71.6198 190.881 71.9927C191.967 72.3656 192.952 72.9841 193.76 73.8L193.94 74.86L193.94 79.63C193.89 80.63 193.89 81.63 193.78 82.63C193.28 87.29 193.78 90.89 200.04 89.9C203.1 89.41 202.76 91.96 202.83 93.9C203.05 99.97 203.3 99.95 209.45 99.78C213.62 99.65 212.67 96.93 212.74 94.61C212.81 92.29 213.28 89.13 209.27 89.76C204.36 90.52 203.21 88.13 203.71 83.87C203.744 82.7149 203.663 81.5593 203.47 80.42C203.47 76.09 203.76 71.75 203.53 67.42C203.34 63.89 204.18 61.99 208.15 62.5C209.73 62.7 211.6 62.91 212.3 60.75C213.43 58.31 212.48 55.67 213.04 53.18C213.198 53.1402 213.358 53.1102 213.52 53.09C221.52 52.54 221.52 52.54 221.81 44.7C222.5 44.43 223.2 44.17 223.89 43.91C226.16 43.91 228.44 43.91 230.71 43.91C231.08 44.47 231.48 44.52 231.91 43.97C234.457 44.0233 237.01 44.07 239.57 44.11C239.684 45.0825 239.744 46.0607 239.75 47.04C239.6 50.3 239.36 52.96 244.3 52.96C249.24 52.96 249.01 50.32 248.86 47.05C248.867 46.0711 248.924 45.0931 249.03 44.12C255.303 43.9466 261.573 43.7733 267.84 43.6L269.84 43.51C283.31 44.51 296.79 43.51 310.26 43.89C312.4 43.96 314.54 43.95 316.69 43.97C317.09 44.51 317.49 44.51 317.89 43.97C322.43 44.05 326.967 44.1266 331.5 44.2C332.56 47.51 330.07 50.66 331.07 53.97L331.01 60.69L327.75 62.31C326.43 62.31 325.12 62.31 323.8 62.31C321.8 61.31 321.6 59.56 321.8 57.67C322.39 53.17 319.37 53.72 316.47 53.5C312.54 53.2 313.08 55.34 313.61 57.79C313.94 59.36 313.06 60.68 312.52 62.06C302.65 62.59 292.79 62.28 282.92 62.17C269.56 62.03 256.19 62.35 242.83 62.37C239.83 62.37 239.83 64.29 239.91 66.37C239.99 68.45 239.09 71.37 242.83 71.49C244.83 71.56 246.83 71.62 248.83 71.68C248.92 79.04 249.19 79.55 255.5 80.62C257.91 81.04 258.08 82.56 257.81 84.19C256.89 89.77 260.19 90.08 264.28 89.68C265.96 89.51 267.82 89.74 267.77 87.28C267.72 84.82 267.84 80.99 265.34 80.99C257.98 80.99 258.63 76.4 258.83 71.67L276.83 71.67C276.83 72.67 276.83 73.67 276.83 74.61C276.91 77.55 275.83 80.73 281.07 80.8C286.31 80.87 285.9 77.92 285.8 74.58C285.8 73.58 285.8 72.58 285.8 71.64C288.8 71.64 291.8 71.69 294.8 71.71C294.87 80.71 294.87 80.71 303.8 80.66C303.877 81.6585 303.877 82.6614 303.8 83.66C303.07 88.29 304.71 90.39 309.63 89.76C312.26 89.505 314.909 89.505 317.54 89.76C320.59 89.96 322.1 89.11 321.96 85.67C321.83 82.62 321.43 80.49 317.68 80.67C313.06 80.83 308.44 80.74 303.82 80.76L303.88 71.85C308.81 71.79 313.74 71.71 318.68 71.7C320.07 71.7 322.3 71.38 321.96 73.52C320.74 81.05 325.54 81.03 330.64 80.86C330.977 80.8787 331.312 80.929 331.64 81.01C331.37 81.94 330.64 83.01 330.89 83.79C331.61 86.52 330.95 90.06 335.94 89.96C340.93 89.86 339.77 86.68 339.94 83.96C339.99 82.96 339.94 81.96 339.99 80.96L376.84 80.78L376.84 98.7C369.36 98.7 361.84 98.9 354.39 98.7C351.09 98.61 349.22 99.35 349.82 103.03C350.48 107.08 348.65 108.5 344.82 107.88C340.99 107.26 340.75 109.73 340.65 112.69C340.55 115.9 341.57 117.1 344.9 117.04C354.21 116.87 363.53 117.04 372.85 117.04C374.16 118.04 376.85 117.68 376.78 120.1C376.57 125.27 378.03 130.56 375.85 135.6C372.22 135.6 368.59 135.6 364.96 135.6C363.875 134.995 362.653 134.677 361.41 134.677C360.167 134.677 358.945 134.995 357.86 135.6C352.26 135.6 346.653 135.6 341.04 135.6C340.875 134.273 340.824 132.935 340.89 131.6C341.45 127.25 340.16 124.88 335.29 125.69C332.1 126.21 331.59 124.12 331.94 121.69C332.54 117.55 330.57 116.69 326.82 116.69C323.23 116.69 321.38 117.49 321.96 121.38C322.49 124.9 320.96 126.29 317.45 125.83C316.288 125.75 315.122 125.75 313.96 125.83C303.96 125.83 303.96 125.83 303.96 135.83C301.35 135.91 298.4 135.25 296.22 136.26C293.5 137.54 295.67 141.09 294.6 143.41L293.95 144.74C291.31 144.74 288.67 144.74 286.03 144.74C285.98 142.74 286.03 140.74 285.86 138.82C285.81 138.04 285.72 136.9 285.23 136.58C283.16 135.24 280.77 135.82 278.54 136.08C276.31 136.34 276.99 138.27 276.91 139.66C276.82 141.3 276.84 142.95 276.81 144.6C271.87 144.64 266.93 144.687 261.99 144.74C260.19 143.66 257.3 143.69 257.99 140.22C258.68 136.75 256.7 135.8 253.41 135.8C249.76 135.8 248.75 137.5 248.98 140.73C249.014 142.064 248.977 143.4 248.87 144.73C247.71 144.79 246.55 144.89 245.39 144.9C240.6 144.97 238.39 148.27 240.23 152.57C241.16 154.75 243.07 153.89 244.55 153.89C264.33 153.98 284.12 153.98 303.9 154C306.56 154 309.22 154 311.9 154.08C312.801 155.492 313.156 157.184 312.9 158.84C312.69 162.22 314.58 163 317.56 163.04C320.72 163.04 322.2 161.88 322 158.65C321.91 157.16 322.05 155.65 322.08 154.18C324.74 154.12 327.49 153.03 329.98 154.86C330.34 156.98 328.59 159.6 331.47 161.12L331.65 163C330.15 165.87 331.27 168.95 330.95 171.91C321.323 172.003 311.697 172.087 302.07 172.16C297 171.71 291.9 171.71 286.83 172.16C275.93 172.16 265.023 172.16 254.11 172.16C252.7 172.16 251.29 172.1 249.88 172.08C249.58 172.048 249.284 171.981 249 171.88C249 170.73 249 169.58 249 168.43C249.16 165.3 249.35 162.66 244.63 162.81C240.38 162.95 239.63 164.95 239.91 168.41C240 169.55 239.91 170.71 239.91 171.86C235.18 172.21 230.45 172.64 225.71 172.86C224.34 172.91 221.77 173.86 222.12 171.12C222.34 169.33 222.25 165.99 226.05 167.27C226.4 167.38 226.89 167.05 227.66 166.82C222.94 163.62 217.58 163.55 212.72 161.98C212.838 161.497 212.922 161.005 212.97 160.51C213.27 154.3 213.26 154.3 219.4 155.27C219.82 155.34 220.48 155.33 220.69 155.08C222.74 152.64 222.1 149.69 221.86 146.95C221.58 143.86 218.86 145.18 217.12 144.87C214.27 144.36 212.66 145.66 212.3 148.44C212.07 150.24 212.08 152.07 211.97 153.89C202.63 153.8 203.92 155.34 203.79 145.77C203.79 143.44 203.79 141.11 203.79 138.77C205.67 138.99 207.33 138.71 208.52 136.88C206.92 135.45 205.28 136.18 203.71 136.29L203.63 136.17C203.821 134.356 203.908 132.533 203.89 130.71C203.73 127.98 204.71 126.89 207.56 126.81C212.85 126.65 213.88 125.06 212.92 119.81C212.16 115.72 208.97 117.22 206.57 116.93C204.17 116.64 202.57 117.6 203.02 120.25C203.73 124.12 201.47 125.4 198.39 125.6C194.58 125.85 193.63 127.9 193.97 131.24C193.73 132.71 193.8 134.37 193.9 136.02ZM274.6 53.79C274.71 55.79 273.5 58.31 275.96 59.59C278.25 60.77 279.51 58.77 280.87 57.38C280.96 57.29 281.18 57.38 281.35 57.33C283.61 57.26 283.67 55.97 283.02 54.33C282.17 52.15 283.02 48.21 280.2 48.17C277.38 48.13 274.2 46.81 270.47 48.48C273.25 49.69 271.21 53.37 274.57 53.79L274.6 53.79ZM303.53 113C304.14 109.27 303.14 107 298.85 107.71C295.62 108.21 294.18 106.88 294.6 103.55C295.09 99.75 293.12 98.8 289.6 98.69C285.6 98.56 285.21 100.69 285.53 103.69C285.85 106.69 284.85 107.79 281.68 107.86C277.68 107.94 276.11 106.42 276.61 102.56C277.11 98.7 274.61 98.65 271.92 98.8C269.39 98.94 266.11 97.99 266.61 102.44C267.06 106.44 265.02 107.87 261.35 107.76C259.26 107.7 257.49 108.45 257.7 110.76C257.91 113.07 255.88 116.39 260.49 116.83C266.15 117.37 267.49 116.67 267.49 111.59C267.49 107.86 269.3 107.54 272.19 107.86C275.67 108.26 275.57 110.97 275.9 113.39C276.48 117.58 279.64 116.68 282.38 116.84C285.12 117 285.87 115.36 285.57 113.08C285 108.85 287.43 108.6 290.68 108.68C294.75 108.77 294.59 111.35 294.47 114.17C294.47 115.23 293.09 116.67 294.55 117.3C296.88 118.3 299.55 118 301.92 117.54C304.54 117.04 303.19 114.6 303.53 113ZM162.53 116.81L162.53 116.67C166.17 116.85 169.82 116.89 173.44 117.25C175.06 117.41 175.65 116.87 175.62 115.47C175.49 110.18 177.56 103.98 174.85 99.88C172.64 96.56 166.47 99.2 162.09 98.72C161.6 98.67 161.09 98.72 160.6 98.72C158.48 98.61 157.38 99.66 157.69 101.72C158.4 106.44 156.69 108.22 151.78 107.87C148.01 107.6 148.78 110.94 148.58 113.34C148.38 115.74 149.49 116.95 152.07 116.85C155.5 116.72 158.99 116.81 162.48 116.81L162.53 116.81ZM235.27 107.81C238.74 107.81 242.22 107.81 245.7 107.81C247.83 107.81 249.75 107.81 249.62 104.81C249.52 102.38 250.15 100.02 246.4 99.37C239.63 98.2 232.86 99.19 226.12 98.7C222.72 98.46 221.5 99.6 221.46 103.15C221.41 106.91 222.66 108.2 226.33 107.88C229.24 107.6 232.24 107.81 235.22 107.81L235.27 107.81ZM184.69 107.48C184.791 109.145 184.791 110.815 184.69 112.48C184.25 116.14 186.04 116.76 189.31 116.9C193.42 117.07 194.03 115.16 193.78 111.8C193.59 109.153 193.59 106.497 193.78 103.85C194.01 100.58 193.57 98.72 189.41 98.64C185 98.56 184.41 100.54 184.73 104.03C184.764 105.181 184.734 106.333 184.64 107.48L184.69 107.48ZM217.3 62.75C214.03 62.23 212.3 63.03 212.47 66.91C212.66 70.1 213.35 71.91 217 71.86C220.39 71.86 221.73 70.68 221.77 67.19C221.81 63.7 220.9 62.01 217.25 62.75L217.3 62.75ZM258.61 131.1C258.06 134.38 259.04 135.87 262.76 135.9C266.48 135.93 267.32 133.76 267.51 131.03C267.72 128.08 266.25 126.63 263.01 126.59C259.77 126.55 257.85 127.49 258.56 131.1L258.61 131.1ZM330.61 94.1C331.14 90.97 330.08 89.68 326.68 89.61C322.91 89.53 322.36 91.22 322.4 94.38C322.4 97.38 323 98.86 326.47 98.88C330.16 98.91 331.11 97.32 330.58 94.11L330.61 94.1Z" fill="#EC7382"/>
<path d="M148.73 80.78C147.397 80.8392 146.061 80.8225 144.73 80.73C141.05 80.27 138.9 81.29 139.57 85.52C140.07 88.7 138.74 90.15 135.41 89.84C133.256 89.695 131.094 89.695 128.94 89.84C124.2 90.03 119.38 90.73 120.5 83.15C120.96 80.01 117.9 80.9 116.1 80.87C114.3 80.84 111.78 80.18 111.77 83.39C111.76 86.6 111.45 90.1 112.02 93.33C112.405 95.5535 112.405 97.8265 112.02 100.05C111.79 101.62 109.59 105.42 114.51 105.05C115.46 104.98 114.96 105.95 114.79 106.53C113.27 111.84 113.06 116.61 119.28 119.29C120.79 119.94 121.19 121.63 118.99 121.89C109.82 122.96 111.67 129.65 111.8 135.51C102.67 136.05 102.8 136.05 102.63 126.98C102.39 115.77 102.96 104.56 102.17 93.32C101.91 89.68 101.64 85.18 103.31 81.23C104.23 79.05 105.67 78.68 107.64 78.83C109.24 80.55 111.64 80.49 111.44 78.29C110.69 70.29 116.27 71.59 120.84 71.17C120.746 71.9764 120.71 72.7884 120.73 73.6C121.01 76.17 120.62 79.86 123.63 80.32C128.25 81.02 133.16 81.73 137.75 79.73C138.25 79.5 138.63 78.23 138.53 77.52C137.95 73.2 139.96 71.62 144.08 71.34C146.6 71.17 148.52 70.04 148.68 66.64C148.84 63.24 146.74 62.97 144.57 62.31C151.93 61.97 159.31 60.97 166.57 62.92C166.33 72.64 168.57 71.71 157.69 71.79C147.35 71.87 148.5 70.13 148.59 80.85L148.73 80.78ZM114.24 120.33L115.07 119.33C114.707 119.008 114.315 118.721 113.9 118.47C113.36 118.21 112.9 118.47 112.9 119.07C112.9 119.67 113.17 120.39 114.22 120.33L114.24 120.33Z" fill="#F5AFB8"/>
<path d="M432.38 144.74C432.46 135.79 432.46 135.74 423.86 135.67C417.45 135.59 411.03 135.56 404.61 135.51C403.7 133.75 402.89 132.01 403.4 129.89C403.78 128.32 403.62 126.84 401.47 126.68C399.195 126.358 396.898 126.215 394.6 126.25C385.36 126.99 385.07 126.77 385.81 117.36C400.63 116.61 415.46 116.91 430.29 117.24C431.135 118.828 431.535 120.614 431.45 122.41C431.27 124.48 431.84 126.07 434.33 125.82C438.06 125.43 439.33 127.82 440.33 130.75L440.33 144.62L432.38 144.74Z" fill="#EC7382"/>
<path d="M403.64 80.94C410.38 80.94 417.1 80.19 423.85 81.52C429.41 82.62 431.28 80.81 431.41 75.27C431.41 74.11 431.52 72.96 431.57 71.8C434.48 71.8 437.4 71.8 440.31 71.8L440.2 89.57C432.64 89.78 432.65 89.78 431.06 97.29C430.915 97.7656 430.72 98.2248 430.48 98.66C415.52 98.66 400.567 98.6333 385.62 98.58C385.55 87.88 384.71 90.01 394.18 89.76C394.35 89.76 394.52 89.76 394.68 89.76C403.5 89.74 403.5 89.74 403.64 80.94Z" fill="#EC7382"/>
<path d="M144.61 62.29C146.78 62.95 148.88 63.19 148.72 66.62C148.56 70.05 146.64 71.15 144.12 71.32C140 71.6 137.99 73.18 138.57 77.5C138.67 78.21 138.29 79.5 137.79 79.71C133.2 81.71 128.29 81 123.67 80.3C120.67 79.84 121.05 76.15 120.77 73.58C120.734 72.7494 120.757 71.9172 120.84 71.09L121.01 68.85C121.105 68.7847 121.183 68.6974 121.236 68.5955C121.29 68.4935 121.318 68.3801 121.318 68.265C121.318 68.1498 121.29 68.0364 121.236 67.9345C121.183 67.8326 121.105 67.7452 121.01 67.68C120.96 65.81 120.59 63.85 122.6 62.68L124.76 62.59C125.67 62.59 126.59 62.59 127.51 62.59C131.57 62.84 135.65 63.41 139.67 62.28L144.61 62.29Z" fill="#EC7382"/>
<path d="M303.54 135.76C303.63 125.82 303.63 125.82 313.54 125.76C314.702 125.68 315.868 125.68 317.03 125.76C320.5 126.22 322.03 124.83 321.54 121.31C320.96 117.42 322.81 116.6 326.4 116.62C330.15 116.62 332.12 117.49 331.52 121.62C331.17 124.04 331.68 126.13 334.87 125.62C339.74 124.81 341.03 127.18 340.47 131.53C340.405 132.865 340.455 134.203 340.62 135.53C337.19 135.45 333.77 135.36 330.34 135.28C330.4 133.97 330.39 132.66 330.52 131.35C330.83 128.25 330.14 126.5 326.35 126.54C322.75 126.54 322.25 128.3 322.47 131.14C322.58 132.61 322.56 134.09 322.6 135.57C322.503 135.661 322.382 135.723 322.25 135.748C322.119 135.773 321.984 135.76 321.86 135.71C315.773 135.75 309.667 135.767 303.54 135.76Z" fill="#F5AFB8"/>
<path d="M385.81 117.36C385.07 126.77 385.36 126.99 394.6 126.25C396.898 126.215 399.195 126.358 401.47 126.68C403.62 126.84 403.78 128.32 403.4 129.89C402.89 132.01 403.7 133.75 404.61 135.51L375.47 135.6C377.65 130.6 376.19 125.27 376.4 120.1C376.5 117.68 373.78 118.1 372.47 117.04C376.911 116.541 381.398 116.649 385.81 117.36Z" fill="#F5AFB8"/>
<path d="M403.64 80.94C403.5 89.74 403.5 89.74 394.64 89.79C394.48 89.79 394.31 89.79 394.14 89.79C384.67 90.04 385.51 87.91 385.58 98.61C382.53 98.61 379.49 98.66 376.44 98.68L376.44 80.76C385.533 80.8266 394.6 80.8866 403.64 80.94Z" fill="#F5AFB8"/>
<path d="M148.73 135.48C148.62 146.28 147.39 144.68 157.73 144.67C166.53 144.67 166.53 144.55 166.73 153.55C160.65 153.55 154.573 153.55 148.5 153.55C148.085 151.971 147.814 150.358 147.69 148.73C147.69 145.73 146.25 144.49 143.43 144.78C139.85 145.15 139.43 143.12 139.43 140.24C139.43 137.36 139.63 135.13 143.29 135.7C146.57 136.22 147.46 133.96 148.36 131.62L148.73 135.48Z" fill="#F5AFB8"/>
<path d="M193.9 136.02C193.8 134.37 193.77 132.71 193.6 131.07C193.26 127.73 194.21 125.68 198.02 125.43C201.1 125.23 203.36 123.95 202.65 120.08C202.16 117.43 203.77 116.46 206.2 116.76C208.63 117.06 211.79 115.55 212.55 119.64C213.55 124.87 212.48 126.46 207.19 126.64C204.34 126.72 203.36 127.81 203.52 130.54C203.538 132.363 203.451 134.186 203.26 136C200.16 135.497 196.998 135.503 193.9 136.02V136.02Z" fill="#F5AFB8"/>
<path d="M203.26 80.45C203.453 81.5893 203.534 82.7449 203.5 83.9C203 88.16 204.15 90.55 209.06 89.79C213.06 89.16 212.61 92.18 212.53 94.64C212.45 97.1 213.41 99.64 209.24 99.81C203.09 99.98 202.84 100 202.62 93.93C202.55 91.93 202.89 89.4 199.83 89.93C193.55 90.93 193.07 87.32 193.57 82.66C193.68 81.66 193.68 80.66 193.73 79.66C196.86 80.44 199.99 81.27 203.26 80.45Z" fill="#F5AFB8"/>
<path d="M258.59 71.77C258.39 76.5 257.74 81.1 265.1 81.09C267.6 81.09 267.48 84.94 267.53 87.38C267.58 89.82 265.72 89.61 264.04 89.78C259.95 90.18 256.65 89.87 257.57 84.29C257.84 82.66 257.67 81.14 255.26 80.72C248.95 79.65 248.68 79.14 248.59 71.78C251.93 71.78 255.26 71.77 258.59 71.77Z" fill="#F5AFB8"/>
<path d="M303.54 135.76C309.66 135.76 315.78 135.76 321.9 135.76L321.65 140.7L321.58 143.56C320.21 145.41 318.29 144.4 316.58 144.56C314.82 143.16 312.77 143.83 310.85 143.79C302.91 143.64 303.59 144.69 303.59 136.74L303.59 135.74L303.54 135.76Z" fill="#EC7382"/>
<path d="M330.56 171.73C330.88 168.73 329.76 165.73 331.26 162.82C332.593 162.902 333.93 162.882 335.26 162.76C340.05 161.99 340.73 164.56 340.55 168.53C340.41 171.53 339.23 172.83 336.32 172.53C334.37 172.37 332.29 173.22 330.56 171.73Z" fill="#F5AFB8"/>
<path d="M211.6 153.68C211.71 151.86 211.7 150.03 211.93 148.23C212.29 145.45 213.93 144.15 216.75 144.66C218.51 144.97 221.21 143.66 221.49 146.74C221.73 149.48 222.37 152.43 220.32 154.87C220.11 155.12 219.45 155.13 219.03 155.06C212.89 154.06 212.9 154.06 212.6 160.3C212.552 160.795 212.468 161.287 212.35 161.77C210.95 159.18 212 156.36 211.6 153.68Z" fill="#F5AFB8"/>
<path d="M303.58 135.72L303.58 136.72C303.58 144.67 302.9 143.62 310.84 143.77C312.76 143.77 314.84 143.14 316.57 144.54C308.89 144.54 301.223 144.573 293.57 144.64L294.22 143.31C295.29 140.99 293.12 137.44 295.84 136.16C298.02 135.14 300.97 135.8 303.58 135.72Z" fill="#F5AFB8"/>
<path d="M330.83 54.05C329.83 50.74 332.32 47.59 331.26 44.28C332.9 44.15 334.53 44.05 336.16 43.87C339.89 43.47 340.51 45.61 340.53 48.72C340.55 51.83 340.01 53.92 336.23 53.67C334.423 53.6728 332.619 53.7998 330.83 54.05V54.05Z" fill="#F5AFB8"/>
<path d="M121.64 135.73C121.25 138.73 122.53 141.84 120.82 144.73C120.66 144.73 120.5 144.73 120.33 144.73C111.2 144.42 111.5 146.9 111.93 135.58C115.17 135.64 118.42 135.7 121.66 135.77L121.64 135.73Z" fill="#F5AFB8"/>
<path d="M440.34 130.75C439.34 127.87 438.06 125.43 434.34 125.82C431.85 126.07 431.28 124.48 431.46 122.41C431.545 120.614 431.145 118.828 430.3 117.24C440.22 115.98 440.24 115.98 440.47 125.85C440.5 127.48 440.39 129.12 440.34 130.75Z" fill="#F5AFB8"/>
<path d="M440.31 71.84C437.4 71.84 434.48 71.84 431.57 71.84C431.57 69.84 431.68 67.9 431.47 65.95C431.12 62.57 432.73 61.95 435.78 61.86C439.38 61.74 441.04 62.69 440.5 66.49C440.338 68.2684 440.274 70.0545 440.31 71.84V71.84Z" fill="#F5AFB8"/>
<path d="M248.49 144.55C248.597 143.22 248.634 141.884 248.6 140.55C248.37 137.32 249.38 135.62 253.03 135.62C256.32 135.62 258.33 136.42 257.61 140.04C256.89 143.66 259.81 143.48 261.61 144.56L248.49 144.55Z" fill="#F5AFB8"/>
<path d="M303.62 71.85L303.56 80.76C294.56 80.82 294.56 80.82 294.56 71.81C297.56 71.82 300.59 71.84 303.62 71.85Z" fill="#F5AFB8"/>
<path d="M430.48 98.7C430.721 98.2648 430.915 97.8056 431.06 97.33C432.65 89.82 432.64 89.82 440.2 89.61C441.04 98.91 441.04 98.91 430.48 98.7Z" fill="#F5AFB8"/>
<path d="M276.43 144.44C276.43 142.79 276.43 141.14 276.53 139.5C276.61 138.11 276.07 136.18 278.16 135.92C280.25 135.66 282.78 135.08 284.85 136.42C285.34 136.74 285.43 137.88 285.48 138.66C285.61 140.66 285.6 142.61 285.65 144.58C282.57 144.53 279.5 144.49 276.43 144.44Z" fill="#F5AFB8"/>
<path d="M285.57 71.74C285.57 72.74 285.51 73.74 285.57 74.68C285.67 78.02 286.14 80.98 280.84 80.9C275.54 80.82 276.68 77.65 276.6 74.71C276.6 73.71 276.6 72.71 276.6 71.77L285.57 71.74Z" fill="#F5AFB8"/>
<path d="M432.38 144.74L440.3 144.62C440.3 145.43 440.44 146.25 440.44 147.06C440.44 150.55 441.5 154.3 435.38 153.89C429.03 153.47 432.31 149.1 431.58 146.39C431.46 145.94 432.09 145.29 432.38 144.74Z" fill="#F5AFB8"/>
<path d="M248.82 44.19C248.714 45.1631 248.657 46.1411 248.65 47.12C248.8 50.39 249.01 53.03 244.09 53.03C239.17 53.03 239.39 50.37 239.54 47.11C239.535 46.1307 239.475 45.1525 239.36 44.18C242.493 43.6633 245.689 43.6667 248.82 44.19V44.19Z" fill="#F5AFB8"/>
<path d="M321.73 154C321.73 155.49 321.56 157 321.65 158.47C321.85 161.7 320.37 162.89 317.21 162.86C314.21 162.86 312.34 162.04 312.55 158.66C312.806 157.004 312.451 155.312 311.55 153.9C314.91 153.927 318.303 153.96 321.73 154Z" fill="#F5AFB8"/>
<path d="M239.54 171.67C239.54 170.52 239.64 169.36 239.54 168.22C239.26 164.76 240.01 162.76 244.26 162.62C248.98 162.47 248.79 165.11 248.63 168.24C248.57 169.39 248.63 170.54 248.63 171.69C245.59 171.68 242.56 171.68 239.54 171.67Z" fill="#F5AFB8"/>
<path d="M312.32 62.16C312.86 60.78 313.74 59.46 313.41 57.89C312.88 55.44 312.34 53.3 316.27 53.6C319.17 53.82 322.19 53.27 321.6 57.77C321.36 59.66 321.6 61.44 323.6 62.41C319.85 62.9164 316.044 62.832 312.32 62.16Z" fill="#F5AFB8"/>
<path d="M339.67 80.95C339.67 81.95 339.67 82.95 339.62 83.95C339.48 86.71 340.74 89.9 335.62 89.95C330.5 90 331.29 86.51 330.57 83.78C330.36 82.98 331.05 81.93 331.32 81L339.67 80.95Z" fill="#F5AFB8"/>
<path d="M322.64 135.6C322.64 134.12 322.64 132.6 322.51 131.17C322.29 128.33 322.79 126.61 326.39 126.57C330.18 126.57 330.87 128.28 330.56 131.38C330.43 132.69 330.44 134 330.38 135.31C327.8 135.44 325.22 135.53 322.64 135.6Z" fill="#EC7382"/>
<path d="M331.08 160.94C328.2 159.42 329.95 156.8 329.59 154.68C333.91 155.86 330.73 158.83 331.08 160.94Z" fill="#F5AFB8"/>
<path d="M203.34 136.1C204.91 135.99 206.55 135.26 208.15 136.69C206.96 138.52 205.3 138.8 203.42 138.58L203.34 136.1Z" fill="#F5AFB8"/>
<path d="M139.73 62.28C135.73 63.41 131.63 62.84 127.57 62.59C131.55 61.14 135.62 61.77 139.73 62.28Z" fill="#F5AFB8"/>
<path d="M212.83 53.23C212.27 55.72 213.22 58.36 212.09 60.8C211.84 58.22 210.52 55.55 212.83 53.23Z" fill="#F5AFB8"/>
<path d="M357.48 135.6C358.565 134.995 359.787 134.677 361.03 134.677C362.273 134.677 363.495 134.995 364.58 135.6C362.21 135.6 359.85 135.6 357.48 135.6Z" fill="#F5AFB8"/>
<path d="M327.51 62.39L330.77 60.77C330.94 63.83 328.96 62.6 327.51 62.39Z" fill="#F5AFB8"/>
<path d="M181.57 144.6C181.835 144.327 182.152 144.109 182.502 143.961C182.853 143.812 183.229 143.736 183.61 143.736C183.991 143.736 184.367 143.812 184.718 143.961C185.068 144.109 185.385 144.327 185.65 144.6C184.29 144.55 182.93 144.6 181.57 144.6Z" fill="#F5AFB8"/>
<path d="M321.58 143.6L321.65 140.74C322.6 141.69 322.73 142.6 321.58 143.6Z" fill="#F5AFB8"/>
<path d="M124.78 62.55L122.62 62.64C123.31 61.73 124.03 61.8 124.78 62.55Z" fill="#F5AFB8"/>
<path d="M121.07 151.6L121.77 153.48C120.64 153.23 120.73 152.49 121.07 151.6Z" fill="#F5AFB8"/>
<path d="M187.57 144.55C188.28 143.71 188.98 143.73 189.68 144.55L187.57 144.55Z" fill="#F5AFB8"/>
<path d="M223.73 43.96C223.04 44.22 222.34 44.48 221.65 44.75C221.98 43.66 222.79 43.72 223.73 43.96Z" fill="#F5AFB8"/>
<path d="M317.65 44.05C317.25 44.58 316.85 44.58 316.45 44.05C316.85 44.05 317.25 44.05 317.65 44.05Z" fill="#F5AFB8"/>
<path d="M121.03 67.68C121.125 67.7452 121.202 67.8326 121.256 67.9345C121.31 68.0364 121.338 68.1498 121.338 68.265C121.338 68.3801 121.31 68.4935 121.256 68.5955C121.202 68.6974 121.125 68.7847 121.03 68.85L121.03 67.68Z" fill="#F5AFB8"/>
<path d="M121.04 146.6C121.135 146.671 121.212 146.763 121.266 146.869C121.319 146.975 121.347 147.091 121.347 147.21C121.347 147.329 121.319 147.445 121.266 147.551C121.212 147.657 121.135 147.749 121.04 147.82L121.04 146.6Z" fill="#F5AFB8"/>
<path d="M192.55 144.6L193.61 143.81C193.603 143.936 193.569 144.059 193.509 144.17C193.45 144.281 193.366 144.378 193.265 144.453C193.164 144.529 193.048 144.581 192.924 144.606C192.8 144.632 192.673 144.63 192.55 144.6V144.6Z" fill="#F5AFB8"/>
<path d="M193.73 74.87L193.55 73.81C194.41 74.03 194.3 74.41 193.73 74.87Z" fill="#F5AFB8"/>
<path d="M107.66 78.78L107.88 78.52L107.63 78.75L107.66 78.78Z" fill="#F5AFB8"/>
<path d="M231.73 44.04C231.3 44.59 230.9 44.54 230.53 43.98L231.73 44.04Z" fill="#F5AFB8"/>
<path d="M303.53 113C303.19 114.57 304.53 117 301.92 117.55C299.51 118.01 296.92 118.3 294.55 117.31C293.09 116.68 294.43 115.24 294.47 114.18C294.59 111.36 294.75 108.78 290.68 108.69C287.43 108.61 285 108.86 285.57 113.09C285.87 115.37 285.22 117.01 282.38 116.85C279.54 116.69 276.48 117.59 275.9 113.4C275.57 110.98 275.67 108.27 272.19 107.87C269.3 107.55 267.48 107.87 267.49 111.6C267.49 116.68 266.14 117.38 260.49 116.84C255.88 116.4 257.9 113 257.7 110.77C257.5 108.54 259.26 107.68 261.35 107.77C265.02 107.88 267.06 106.46 266.61 102.45C266.11 98 269.39 98.95 271.92 98.81C274.62 98.66 277.1 98.73 276.61 102.57C276.12 106.41 277.69 107.95 281.68 107.87C284.85 107.8 285.84 106.61 285.53 103.7C285.22 100.79 285.59 98.59 289.6 98.7C293.13 98.81 295.1 99.76 294.6 103.56C294.18 106.89 295.6 108.22 298.85 107.72C303.14 107.04 304.14 109.27 303.53 113Z" fill="#F5AFB8"/>
<path d="M162.48 116.81C158.99 116.81 155.48 116.72 152.02 116.81C149.44 116.91 148.35 115.81 148.53 113.3C148.71 110.79 147.96 107.56 151.73 107.83C156.62 108.18 158.35 106.4 157.64 101.68C157.33 99.63 158.43 98.58 160.55 98.68C161.05 98.68 161.55 98.63 162.04 98.68C166.42 99.16 172.59 96.52 174.8 99.84C177.51 103.94 175.44 110.14 175.57 115.43C175.57 116.83 175.01 117.37 173.39 117.21C169.77 116.85 166.12 116.81 162.48 116.63L162.48 116.81Z" fill="#F5AFB8"/>
<path d="M235.22 107.81C232.22 107.81 229.22 107.6 226.28 107.86C222.61 108.18 221.36 106.86 221.41 103.13C221.41 99.58 222.67 98.44 226.07 98.68C232.81 99.17 239.58 98.18 246.35 99.35C250.1 100 249.47 102.35 249.57 104.79C249.7 107.79 247.78 107.79 245.65 107.79C242.17 107.79 238.65 107.79 235.22 107.79L235.22 107.81Z" fill="#F5AFB8"/>
<path d="M121.66 135.75C120.37 133.34 121.56 130.91 121.56 128.49C121.56 126.27 122.8 125.66 124.74 125.74C128.83 125.9 132.95 125.74 136.99 126.27C140.33 126.71 138.37 129.71 138.66 131.52C139.01 133.72 138.83 135.88 135.53 135.79C130.91 135.65 126.27 135.74 121.64 135.73L121.66 135.75Z" fill="#F5AFB8"/>
<path d="M184.64 107.48C184.705 106.321 184.705 105.159 184.64 104C184.29 100.51 184.91 98.53 189.32 98.61C193.48 98.69 193.92 100.55 193.69 103.82C193.5 106.467 193.5 109.123 193.69 111.77C193.94 115.13 193.33 117.04 189.22 116.87C185.95 116.73 184.16 116.11 184.6 112.45C184.713 110.796 184.727 109.136 184.64 107.48V107.48Z" fill="#EB625D"/>
<path d="M303.56 80.76C308.18 80.76 312.8 80.83 317.42 80.67C321.17 80.53 321.57 82.67 321.7 85.67C321.84 89.11 320.33 89.96 317.28 89.76C314.649 89.505 312 89.505 309.37 89.76C304.45 90.39 302.81 88.29 303.54 83.66C303.617 82.6614 303.617 81.6585 303.54 80.66L303.56 80.76Z" fill="#F5AFB8"/>
<path d="M274.57 53.75C271.21 53.33 273.25 49.65 270.47 48.44C274.19 46.77 277.32 48.09 280.2 48.13C283.08 48.17 282.2 52.13 283.02 54.29C283.67 55.97 283.61 57.29 281.35 57.29C281.18 57.29 280.96 57.29 280.87 57.34C279.51 58.73 278.25 60.73 275.96 59.55C273.5 58.27 274.71 55.78 274.6 53.75L274.86 53.33L274.57 53.75Z" fill="#F5AFB8"/>
<path d="M148.73 135.48L148.47 131.63C148.71 129.36 147.6 126.31 151.61 126.27C151.954 126.492 152.363 126.59 152.77 126.548C153.178 126.507 153.558 126.327 153.85 126.04C154.72 126.04 155.58 126.04 156.45 126.04L157.64 126.77C157.6 136.75 159.51 135.67 148.73 135.48Z" fill="#FCFCFC"/>
<path d="M148.48 83.71L148.71 80.78L151.65 80.63L152.71 80.63C156.97 79.97 157.84 81.98 157.84 85.94C157.84 90.27 155.3 89.78 152.69 89.69C151.27 89.64 149.69 90.23 148.54 88.79L148.48 83.71Z" fill="#FCFCFC"/>
<path d="M217.25 62.75C220.9 62.01 221.75 63.75 221.72 67.19C221.69 70.63 220.34 71.85 216.95 71.86C213.3 71.86 212.61 70.1 212.42 66.91C212.2 63.03 213.98 62.23 217.25 62.75Z" fill="#F5AFB8"/>
<path d="M258.56 131.1C257.85 127.49 259.56 126.55 262.96 126.59C266.36 126.63 267.67 128.08 267.46 131.03C267.27 133.76 266.46 135.93 262.71 135.9C258.96 135.87 258.01 134.38 258.56 131.1Z" fill="#F5AFB8"/>
<path d="M330.58 94.11C331.11 97.32 330.16 98.91 326.44 98.89C322.97 98.89 322.44 97.38 322.37 94.39C322.37 91.23 322.88 89.54 326.65 89.62C330.05 89.69 331.11 90.98 330.58 94.11Z" fill="#F5AFB8"/>
<path d="M148.48 83.71L148.48 88.81C147.904 88.0848 147.591 87.186 147.591 86.26C147.591 85.3339 147.904 84.4351 148.48 83.71Z" fill="#F5AFB8"/>
<path d="M153.8 126.04C153.508 126.327 153.128 126.507 152.72 126.549C152.313 126.59 151.904 126.492 151.56 126.27C151.875 126.027 152.252 125.877 152.647 125.837C153.043 125.796 153.442 125.866 153.8 126.04V126.04Z" fill="#F5AFB8"/>
<path d="M152.66 80.6L151.6 80.6C151.839 80.4643 152.09 80.3505 152.35 80.26C152.42 80.32 152.56 80.54 152.66 80.6Z" fill="#F5AFB8"/>
<path d="M157.59 126.79L156.4 126.06C156.526 126.016 156.661 126 156.793 126.014C156.926 126.029 157.054 126.072 157.168 126.142C157.282 126.212 157.379 126.306 157.452 126.418C157.525 126.531 157.572 126.657 157.59 126.79V126.79Z" fill="#F5AFB8"/>
<path d="M114.22 120.33C113.17 120.39 112.89 119.84 112.91 119.12C112.93 118.4 113.34 118.26 113.91 118.52C114.325 118.771 114.717 119.058 115.08 119.38L114.22 120.33Z" fill="#EC7382"/>
<path d="M274.57 53.75L274.86 53.37L274.6 53.79L274.57 53.75Z" fill="#EC7382"/>
</g>
<defs>
<clipPath id="clip0_5_531">
<rect width="133.86" height="338.6" fill="white" transform="translate(102 172.86) rotate(-90)"/>
</clipPath>
</defs>
</svg>
