<svg width="339" height="134" viewBox="0 0 339 134" fill="none" xmlns="http://www.w3.org/2000/svg">
<g clip-path="url(#clip0_4_198)">
<path d="M167.49 2.66998C166.34 2.83998 164.59 2.45998 165.63 4.66998C159.363 4.84331 153.093 5.01663 146.82 5.18997C143.685 4.66999 140.485 4.66999 137.35 5.18997C134.797 5.14997 132.247 5.1033 129.7 5.04997L128.5 4.98997C126.23 4.98997 123.95 4.98997 121.68 4.98997C120.79 4.74997 119.98 4.68996 119.6 5.77996C119.28 13.62 119.28 13.62 111.31 14.17C111.148 14.1902 110.988 14.2202 110.83 14.26C108.52 16.58 109.83 19.26 110.09 21.82C109.39 23.99 107.52 23.82 105.94 23.58C101.94 23.07 101.13 24.97 101.32 28.5C101.55 32.81 101.32 37.15 101.26 41.5C97.9901 42.32 94.8601 41.5 91.7301 40.69L91.7301 35.92C92.2701 35.46 92.3801 35.08 91.5501 34.86C90.7424 34.0441 89.7574 33.4256 88.6716 33.0527C87.5858 32.6798 86.4286 32.5625 85.2901 32.71C82.3401 32.89 79.3701 32.71 76.4101 32.71C74.8501 32.71 73.6901 32.64 73.8001 30.28C74.1101 23.9 73.9401 23.89 67.5701 23.91C66.5701 23.91 65.5701 23.91 64.5701 23.97C57.2801 21.97 49.9001 22.97 42.5701 23.36L37.7301 23.36C33.6601 22.85 29.5901 22.22 25.5701 23.67C24.6501 23.67 23.7301 23.67 22.8201 23.67C22.0701 22.92 21.3501 22.85 20.6601 23.76C18.6601 24.97 19.0201 26.93 19.0701 28.76L19.0701 29.93L18.9001 32.17C14.3301 32.59 8.7501 31.29 9.5001 39.29C9.7101 41.49 7.30009 41.55 5.70009 39.83L5.95009 39.6L5.73009 39.86C3.73009 39.71 2.32009 40.08 1.40009 42.26C-0.269908 46.21 9.25245e-05 50.71 0.260093 54.35C1.05009 65.59 0.4801 76.8 0.720101 88.01C0.920101 97.08 0.720094 97.08 9.90009 96.54L9.99009 96.64C9.56009 107.96 9.2601 105.48 18.3901 105.79C18.5601 105.79 18.7201 105.79 18.8901 105.79L19.1001 107.71L19.1001 108.93L19.1001 112.6C18.7301 113.45 18.6701 114.19 19.8001 114.48C28.7068 114.48 37.6201 114.48 46.5401 114.48L64.7301 114.48C66.3801 114.54 68.0401 114.48 69.6801 114.66C72.5501 114.97 74.2701 114.06 73.6801 110.89C72.6301 105.68 75.6801 105.11 79.6001 105.49C80.9601 105.49 82.3201 105.49 83.6801 105.49L85.6001 105.49L87.7101 105.49L90.5801 105.49C90.7028 105.52 90.8304 105.522 90.954 105.496C91.0776 105.471 91.1941 105.419 91.2952 105.343C91.3964 105.268 91.4797 105.171 91.5393 105.06C91.5989 104.949 91.6333 104.826 91.6401 104.7L91.9301 96.92C95.0293 96.4099 98.1909 96.4099 101.29 96.92L101.37 97.04L101.44 99.52C101.44 101.84 101.44 104.17 101.44 106.52C101.57 116.09 100.28 114.52 109.62 114.64C110.02 117.32 108.97 120.14 110.37 122.73C115.23 124.3 120.59 124.37 125.31 127.57C124.54 127.8 124.05 128.13 123.7 128.02C119.9 126.74 119.99 130.08 119.77 131.87C119.42 134.63 121.99 133.66 123.36 133.61C128.1 133.41 132.83 132.98 137.56 132.61C140.56 132.61 143.61 132.61 146.63 132.61C146.915 132.711 147.21 132.778 147.51 132.81C148.093 133.319 148.837 133.605 149.611 133.62C150.384 133.635 151.138 133.376 151.74 132.89L184.46 132.89C189.482 133.98 194.679 133.98 199.7 132.89C209.327 132.81 218.953 132.727 228.58 132.64C230.31 134.13 232.39 133.28 234.31 133.47C237.22 133.74 238.4 132.47 238.54 129.47C238.72 125.47 238.04 122.93 233.25 123.7C231.92 123.821 230.583 123.841 229.25 123.76L229.08 121.88C228.7 119.77 231.91 116.8 227.59 115.62C225.1 113.79 222.35 114.88 219.69 114.94C216.29 114.9 212.893 114.867 209.5 114.84C206.84 114.84 204.18 114.77 201.5 114.76C181.72 114.76 161.93 114.76 142.15 114.65C140.67 114.65 138.76 115.51 137.83 113.33C135.99 109.03 138.2 105.73 142.99 105.66C144.15 105.66 145.31 105.55 146.47 105.49L159.59 105.49C164.53 105.437 169.47 105.39 174.41 105.35C177.48 105.4 180.55 105.44 183.63 105.49C186.27 105.49 188.91 105.49 191.55 105.49C199.223 105.49 206.89 105.457 214.55 105.39C216.26 105.27 218.18 106.28 219.55 104.39C220.74 103.46 220.55 102.51 219.62 101.53L219.87 96.59C219.994 96.6396 220.129 96.6528 220.261 96.628C220.392 96.6031 220.513 96.5414 220.61 96.45C223.19 96.35 225.77 96.26 228.35 96.16C231.78 96.24 235.2 96.33 238.63 96.41C244.243 96.41 249.85 96.41 255.45 96.41C257.82 96.41 260.18 96.41 262.55 96.41C266.18 96.41 269.81 96.41 273.44 96.41L302.58 96.32C309 96.32 315.42 96.4 321.83 96.48C330.43 96.59 330.43 96.6 330.35 105.55C330.06 106.1 329.43 106.75 329.55 107.2C330.28 109.91 327 114.28 333.35 114.7C339.47 115.11 338.41 111.36 338.41 107.87C338.41 107.06 338.32 106.24 338.27 105.43L338.27 91.56C338.27 89.93 338.43 88.29 338.39 86.66C338.16 76.79 338.14 76.79 328.22 78.05C313.39 77.72 298.56 77.42 283.74 78.17C279.329 77.4587 274.841 77.3511 270.4 77.85C261.08 77.85 251.76 77.69 242.45 77.85C239.12 77.91 238.1 76.71 238.2 73.5C238.3 70.5 238.37 68.04 242.37 68.69C246.37 69.34 248.05 67.89 247.37 63.84C246.77 60.16 248.64 59.42 251.94 59.51C259.42 59.69 266.94 59.51 274.39 59.51C277.44 59.51 280.48 59.51 283.53 59.44C298.477 59.44 313.43 59.4666 328.39 59.52C338.95 59.73 338.95 59.7299 338.11 50.4299L338.22 32.66C338.183 30.8612 338.246 29.0617 338.41 27.27C338.95 23.47 337.29 22.52 333.69 22.64C330.69 22.74 329.03 23.35 329.38 26.73C329.59 28.68 329.46 30.66 329.48 32.62C329.43 33.78 329.35 34.93 329.32 36.09C329.19 41.63 327.32 43.44 321.76 42.34C315.01 41.01 308.29 41.72 301.55 41.76C292.51 41.7 283.47 41.6433 274.43 41.59L237.58 41.77L229.26 41.83C228.932 41.749 228.597 41.6988 228.26 41.68C223.16 41.85 218.36 41.87 219.58 34.34C219.92 32.2 217.69 32.52 216.3 32.52C211.36 32.52 206.43 32.61 201.5 32.67L192.4 32.67C189.4 32.67 186.4 32.62 183.4 32.6L174.4 32.6L156.4 32.6C153.07 32.6 149.74 32.6 146.4 32.6C144.4 32.54 142.4 32.48 140.4 32.41C136.66 32.29 137.6 29.41 137.48 27.29C137.36 25.17 137.36 23.29 140.4 23.29C153.76 23.29 167.13 22.95 180.49 23.09C190.36 23.2 200.22 23.51 210.09 22.98C213.801 23.6478 217.593 23.7322 221.33 23.23C222.65 23.23 223.96 23.23 225.28 23.23C226.73 23.43 228.71 24.67 228.54 21.61L228.6 14.89C230.389 14.6398 232.194 14.5128 234 14.51C237.78 14.76 238.31 12.65 238.3 9.55997C238.29 6.46997 237.66 4.30997 233.93 4.70997C232.3 4.88997 230.67 4.98996 229.03 5.12996L215.42 4.88996L214.22 4.88996C212.07 4.88996 209.93 4.88996 207.79 4.79996C194.32 4.37996 180.79 5.37997 167.37 4.41998L167.37 2.64997C169.83 3.64997 171.84 2.06997 173.99 1.42997C174.41 1.30997 173.99 0.0499686 173.34 -0.0400314C171.11 -0.190031 168.73 -0.120024 167.49 2.66998Z" fill="#FCFCFC"/>
<path d="M91.9 97.02L91.61 104.8L90.55 105.59C89.55 105.59 88.63 105.59 87.68 105.59C86.98 104.74 86.28 104.72 85.57 105.59L83.65 105.59C83.3852 105.317 83.0681 105.099 82.7177 104.951C82.3673 104.802 81.9906 104.726 81.61 104.726C81.2294 104.726 80.8527 104.802 80.5022 104.951C80.1518 105.099 79.8347 105.317 79.57 105.59C75.62 105.21 72.57 105.78 73.65 110.99C74.28 114.16 72.56 115.07 69.65 114.76C68.01 114.59 66.35 114.64 64.7 114.58C64.45 105.58 64.45 105.68 55.7 105.7C45.35 105.7 46.58 107.31 46.7 96.51C57.53 96.7 55.62 97.78 55.61 87.82C55.5923 87.6875 55.5452 87.5606 55.4723 87.4485C55.3994 87.3364 55.3025 87.242 55.1885 87.1721C55.0745 87.1022 54.9464 87.0585 54.8135 87.0443C54.6805 87.0301 54.5461 87.0457 54.42 87.09L51.82 87.09C51.4642 86.917 51.0675 86.8459 50.6739 86.8848C50.2802 86.9236 49.905 87.0708 49.59 87.31C45.59 87.31 46.68 90.41 46.44 92.68C45.54 95.02 44.65 97.28 41.37 96.76C37.71 96.19 37.54 98.53 37.51 101.3C37.48 104.07 37.88 106.21 41.51 105.84C44.33 105.55 45.79 106.76 45.77 109.79C45.8943 111.418 46.1654 113.031 46.58 114.61C37.6733 114.61 28.76 114.61 19.84 114.61L19.14 112.73L19.14 108.93C19.2351 108.859 19.3124 108.767 19.3657 108.661C19.4189 108.555 19.4466 108.439 19.4466 108.32C19.4466 108.201 19.4189 108.085 19.3657 107.979C19.3124 107.873 19.2351 107.781 19.14 107.71L18.92 105.79C20.63 102.93 19.35 99.79 19.74 96.79C24.37 96.79 29.01 96.71 33.63 96.85C36.93 96.94 37.11 94.78 36.76 92.58C36.47 90.77 38.43 87.77 35.09 87.33C31.09 86.79 26.93 86.96 22.84 86.8C20.9 86.72 19.65 87.33 19.66 89.55C19.66 91.97 18.47 94.4 19.76 96.81C16.52 96.74 13.27 96.68 10.03 96.62L9.92996 96.52C9.79996 90.66 7.92996 83.97 17.12 82.9C19.32 82.64 18.92 80.95 17.41 80.3C11.19 77.62 11.41 72.85 12.92 67.54C13.09 66.96 13.59 65.99 12.64 66.06C7.71997 66.46 9.91996 62.66 10.15 61.06C10.5348 58.8365 10.5348 56.5634 10.15 54.34C9.57996 51.11 9.88996 47.72 9.89996 44.4C9.90996 41.08 12.38 41.84 14.23 41.88C16.08 41.92 19.09 41.02 18.63 44.16C17.51 51.74 22.33 51.04 27.07 50.85C29.2242 50.705 31.3857 50.705 33.54 50.85C36.87 51.16 38.2 49.71 37.7 46.53C37.03 42.3 39.18 41.28 42.86 41.74C44.1913 41.8325 45.5268 41.8492 46.86 41.79L46.63 44.72C46.054 45.4451 45.7405 46.3439 45.7405 47.27C45.7405 48.196 46.054 49.0948 46.63 49.82C47.76 51.26 49.36 50.67 50.78 50.72C53.39 50.81 55.93 51.3 55.93 46.97C55.93 42.97 55.06 40.97 50.8 41.66C50.7 41.55 50.56 41.33 50.49 41.35C50.2321 41.4412 49.9814 41.5515 49.74 41.68C48.74 41.74 47.74 41.79 46.81 41.84C46.71 31.12 45.56 32.84 55.9 32.78C66.83 32.7 64.5399 33.63 64.7799 23.91C65.7799 23.91 66.7799 23.86 67.7799 23.85C74.1499 23.85 74.32 23.85 74.01 30.22C73.9 32.58 75.01 32.63 76.62 32.65C79.62 32.7 82.5499 32.85 85.4999 32.65C86.6385 32.5025 87.7957 32.6198 88.8815 32.9927C89.9672 33.3656 90.9523 33.9841 91.76 34.8L91.94 35.86L91.94 40.63C91.89 41.63 91.8899 42.63 91.7799 43.63C91.2799 48.29 91.78 51.89 98.04 50.9C101.1 50.41 100.76 52.96 100.83 54.9C101.05 60.97 101.3 60.95 107.45 60.78C111.62 60.65 110.67 57.93 110.74 55.61C110.81 53.29 111.28 50.13 107.27 50.76C102.36 51.52 101.21 49.13 101.71 44.87C101.744 43.7149 101.663 42.5593 101.47 41.42C101.47 37.09 101.76 32.75 101.53 28.42C101.34 24.89 102.18 22.99 106.15 23.5C107.73 23.7 109.6 23.91 110.3 21.75C111.43 19.31 110.48 16.67 111.04 14.18C111.198 14.1402 111.358 14.1102 111.52 14.09C119.52 13.54 119.52 13.54 119.81 5.69998C120.5 5.42998 121.2 5.16997 121.89 4.90997C124.16 4.90997 126.44 4.90997 128.71 4.90997C129.08 5.46997 129.48 5.51997 129.91 4.96997C132.457 5.0233 135.01 5.06996 137.57 5.10996C137.684 6.08252 137.744 7.06072 137.75 8.03997C137.6 11.3 137.36 13.96 142.3 13.96C147.24 13.96 147.01 11.32 146.86 8.04997C146.867 7.07106 146.924 6.09315 147.03 5.11997C153.303 4.94664 159.573 4.7733 165.84 4.59997L167.84 4.50997C181.31 5.50997 194.79 4.50996 208.26 4.88996C210.4 4.95996 212.54 4.94996 214.69 4.96996C215.09 5.50996 215.49 5.50996 215.89 4.96996C220.43 5.04996 224.967 5.12664 229.5 5.19997C230.56 8.50997 228.07 11.66 229.07 14.97L229.01 21.69L225.75 23.31C224.43 23.31 223.12 23.31 221.8 23.31C219.8 22.31 219.6 20.56 219.8 18.67C220.39 14.17 217.37 14.72 214.47 14.5C210.54 14.2 211.08 16.34 211.61 18.79C211.94 20.36 211.06 21.68 210.52 23.06C200.65 23.59 190.79 23.28 180.92 23.17C167.56 23.03 154.19 23.35 140.83 23.37C137.83 23.37 137.83 25.29 137.91 27.37C137.99 29.45 137.09 32.37 140.83 32.49C142.83 32.56 144.83 32.62 146.83 32.68C146.92 40.04 147.19 40.55 153.5 41.62C155.91 42.04 156.08 43.56 155.81 45.19C154.89 50.77 158.19 51.08 162.28 50.68C163.96 50.51 165.82 50.74 165.77 48.28C165.72 45.82 165.84 41.99 163.34 41.99C155.98 41.99 156.63 37.4 156.83 32.67L174.83 32.67C174.83 33.67 174.83 34.67 174.83 35.61C174.91 38.55 173.83 41.73 179.07 41.8C184.31 41.87 183.9 38.92 183.8 35.58C183.8 34.58 183.8 33.58 183.8 32.64C186.8 32.64 189.8 32.69 192.8 32.71C192.87 41.71 192.87 41.71 201.8 41.66C201.877 42.6585 201.877 43.6614 201.8 44.66C201.07 49.29 202.71 51.39 207.63 50.76C210.26 50.505 212.909 50.505 215.54 50.76C218.59 50.96 220.1 50.11 219.96 46.67C219.83 43.62 219.43 41.49 215.68 41.67C211.06 41.83 206.44 41.74 201.82 41.76L201.88 32.85C206.81 32.79 211.74 32.71 216.68 32.7C218.07 32.7 220.3 32.38 219.96 34.52C218.74 42.05 223.54 42.03 228.64 41.86C228.977 41.8787 229.312 41.929 229.64 42.01C229.37 42.94 228.64 44.01 228.89 44.79C229.61 47.52 228.95 51.06 233.94 50.96C238.93 50.86 237.77 47.68 237.94 44.96C237.99 43.96 237.94 42.96 237.99 41.96L274.84 41.78L274.84 59.7C267.36 59.7 259.84 59.9 252.39 59.7C249.09 59.61 247.22 60.35 247.82 64.03C248.48 68.08 246.65 69.5 242.82 68.88C238.99 68.26 238.75 70.73 238.65 73.69C238.55 76.9 239.57 78.1 242.9 78.04C252.21 77.87 261.53 78.04 270.85 78.04C272.16 79.04 274.85 78.68 274.78 81.1C274.57 86.27 276.03 91.56 273.85 96.6C270.22 96.6 266.59 96.6 262.96 96.6C261.875 95.9948 260.653 95.6772 259.41 95.6772C258.167 95.6772 256.945 95.9948 255.86 96.6C250.26 96.6 244.653 96.6 239.04 96.6C238.875 95.2735 238.824 93.9351 238.89 92.6C239.45 88.25 238.16 85.88 233.29 86.69C230.1 87.21 229.59 85.12 229.94 82.69C230.54 78.55 228.57 77.69 224.82 77.69C221.23 77.69 219.38 78.49 219.96 82.38C220.49 85.9 218.96 87.29 215.45 86.83C214.288 86.7499 213.122 86.7499 211.96 86.83C201.96 86.83 201.96 86.83 201.96 96.83C199.35 96.91 196.4 96.25 194.22 97.26C191.5 98.54 193.67 102.09 192.6 104.41L191.95 105.74C189.31 105.74 186.67 105.74 184.03 105.74C183.98 103.74 184.03 101.74 183.86 99.82C183.81 99.04 183.72 97.9 183.23 97.58C181.16 96.24 178.77 96.82 176.54 97.08C174.31 97.34 174.99 99.27 174.91 100.66C174.82 102.3 174.84 103.95 174.81 105.6C169.87 105.64 164.93 105.687 159.99 105.74C158.19 104.66 155.3 104.69 155.99 101.22C156.68 97.75 154.7 96.8 151.41 96.8C147.76 96.8 146.75 98.5 146.98 101.73C147.014 103.064 146.977 104.4 146.87 105.73C145.71 105.79 144.55 105.89 143.39 105.9C138.6 105.97 136.39 109.27 138.23 113.57C139.16 115.75 141.07 114.89 142.55 114.89C162.33 114.98 182.12 114.98 201.9 115C204.56 115 207.22 115 209.9 115.08C210.801 116.492 211.156 118.184 210.9 119.84C210.69 123.22 212.58 124 215.56 124.04C218.72 124.04 220.2 122.88 220 119.65C219.91 118.16 220.05 116.65 220.08 115.18C222.74 115.12 225.49 114.03 227.98 115.86C228.34 117.98 226.59 120.6 229.47 122.12L229.65 124C228.15 126.87 229.27 129.95 228.95 132.91C219.323 133.003 209.697 133.087 200.07 133.16C195 132.71 189.9 132.71 184.83 133.16C173.93 133.16 163.023 133.16 152.11 133.16C150.7 133.16 149.29 133.1 147.88 133.08C147.58 133.048 147.284 132.981 147 132.88C147 131.73 147 130.58 147 129.43C147.16 126.3 147.35 123.66 142.63 123.81C138.38 123.95 137.63 125.95 137.91 129.41C138 130.55 137.91 131.71 137.91 132.86C133.18 133.21 128.45 133.64 123.71 133.86C122.34 133.91 119.77 134.86 120.12 132.12C120.34 130.33 120.25 126.99 124.05 128.27C124.4 128.38 124.89 128.05 125.66 127.82C120.94 124.62 115.58 124.55 110.72 122.98C110.838 122.497 110.922 122.005 110.97 121.51C111.27 115.3 111.26 115.3 117.4 116.27C117.82 116.34 118.48 116.33 118.69 116.08C120.74 113.64 120.1 110.69 119.86 107.95C119.58 104.86 116.86 106.18 115.12 105.87C112.27 105.36 110.66 106.66 110.3 109.44C110.07 111.24 110.08 113.07 109.97 114.89C100.63 114.8 101.92 116.34 101.79 106.77C101.79 104.44 101.79 102.11 101.79 99.77C103.67 99.99 105.33 99.71 106.52 97.88C104.92 96.45 103.28 97.18 101.71 97.29L101.63 97.17C101.821 95.3565 101.908 93.5334 101.89 91.71C101.73 88.98 102.71 87.89 105.56 87.81C110.85 87.65 111.88 86.06 110.92 80.81C110.16 76.72 106.97 78.22 104.57 77.93C102.17 77.64 100.57 78.6 101.02 81.25C101.73 85.12 99.47 86.4 96.39 86.6C92.58 86.85 91.63 88.9 91.97 92.24C91.73 93.71 91.8 95.37 91.9 97.02ZM172.6 14.79C172.71 16.79 171.5 19.31 173.96 20.59C176.25 21.77 177.51 19.77 178.87 18.38C178.96 18.29 179.18 18.38 179.35 18.33C181.61 18.26 181.67 16.97 181.02 15.33C180.17 13.15 181.02 9.20998 178.2 9.16998C175.38 9.12998 172.2 7.80997 168.47 9.47997C171.25 10.69 169.21 14.37 172.57 14.79L172.6 14.79ZM201.53 74C202.14 70.27 201.14 68 196.85 68.71C193.62 69.21 192.18 67.88 192.6 64.55C193.09 60.75 191.12 59.8 187.6 59.69C183.6 59.56 183.21 61.69 183.53 64.69C183.85 67.69 182.85 68.79 179.68 68.86C175.68 68.94 174.11 67.42 174.61 63.56C175.11 59.7 172.61 59.65 169.92 59.8C167.39 59.94 164.11 58.99 164.61 63.44C165.06 67.44 163.02 68.87 159.35 68.76C157.26 68.7 155.49 69.45 155.7 71.76C155.91 74.07 153.88 77.39 158.49 77.83C164.15 78.37 165.49 77.67 165.49 72.59C165.49 68.86 167.3 68.54 170.19 68.86C173.67 69.26 173.57 71.97 173.9 74.39C174.48 78.58 177.64 77.68 180.38 77.84C183.12 78 183.87 76.36 183.57 74.08C183 69.85 185.43 69.6 188.68 69.68C192.75 69.77 192.59 72.35 192.47 75.17C192.47 76.23 191.09 77.67 192.55 78.3C194.88 79.3 197.55 79 199.92 78.54C202.54 78.04 201.19 75.6 201.53 74ZM60.53 77.81L60.53 77.67C64.17 77.85 67.82 77.89 71.44 78.25C73.06 78.41 73.65 77.87 73.62 76.47C73.49 71.18 75.56 64.98 72.85 60.88C70.64 57.56 64.47 60.2 60.09 59.72C59.6 59.67 59.09 59.72 58.6 59.72C56.48 59.61 55.38 60.66 55.69 62.72C56.4 67.44 54.69 69.22 49.78 68.87C46.01 68.6 46.78 71.94 46.58 74.34C46.38 76.74 47.49 77.95 50.07 77.85C53.5 77.72 56.99 77.81 60.48 77.81L60.53 77.81ZM133.27 68.81C136.74 68.81 140.22 68.81 143.7 68.81C145.83 68.81 147.75 68.81 147.62 65.81C147.52 63.38 148.15 61.02 144.4 60.37C137.63 59.2 130.86 60.19 124.12 59.7C120.72 59.46 119.5 60.6 119.46 64.15C119.41 67.91 120.66 69.2 124.33 68.88C127.24 68.6 130.24 68.81 133.22 68.81L133.27 68.81ZM82.69 68.48C82.7912 70.1451 82.7912 71.8148 82.69 73.48C82.25 77.14 84.0399 77.76 87.3099 77.9C91.4199 78.07 92.03 76.16 91.78 72.8C91.5899 70.1534 91.5899 67.4966 91.7799 64.85C92.0099 61.58 91.57 59.72 87.41 59.64C83 59.56 82.41 61.54 82.73 65.03C82.7639 66.1807 82.7339 67.3325 82.64 68.48L82.69 68.48ZM115.3 23.75C112.03 23.23 110.3 24.03 110.47 27.91C110.66 31.1 111.35 32.91 115 32.86C118.39 32.86 119.73 31.68 119.77 28.19C119.81 24.7 118.9 23.01 115.25 23.75L115.3 23.75ZM156.61 92.1C156.06 95.38 157.04 96.87 160.76 96.9C164.48 96.93 165.32 94.76 165.51 92.03C165.72 89.08 164.25 87.63 161.01 87.59C157.77 87.55 155.85 88.49 156.56 92.1L156.61 92.1ZM228.61 55.1C229.14 51.97 228.08 50.68 224.68 50.61C220.91 50.53 220.36 52.22 220.4 55.38C220.4 58.38 221 59.86 224.47 59.88C228.16 59.91 229.11 58.32 228.58 55.11L228.61 55.1Z" fill="#EC7382"/>
<path d="M46.73 41.78C45.3968 41.8392 44.0613 41.8225 42.73 41.73C39.05 41.27 36.9 42.29 37.57 46.52C38.07 49.7 36.74 51.15 33.41 50.84C31.2558 50.695 29.0942 50.695 26.94 50.84C22.2 51.03 17.38 51.73 18.5 44.15C18.96 41.01 15.9 41.9 14.1 41.87C12.3 41.84 9.78 41.18 9.77 44.39C9.76 47.6 9.45 51.1 10.02 54.33C10.4049 56.5535 10.4049 58.8265 10.02 61.05C9.79 62.62 7.59 66.42 12.51 66.05C13.46 65.98 12.96 66.95 12.79 67.53C11.27 72.84 11.06 77.61 17.28 80.29C18.79 80.94 19.19 82.63 16.99 82.89C7.82 83.96 9.67001 90.65 9.80001 96.51C0.670013 97.05 0.8 97.05 0.629999 87.98C0.389999 76.77 0.960007 65.56 0.170006 54.32C-0.0899937 50.68 -0.359994 46.18 1.31001 42.23C2.23001 40.05 3.67001 39.68 5.64001 39.83C7.24001 41.55 9.64001 41.49 9.44001 39.29C8.69001 31.29 14.27 32.59 18.84 32.17C18.7464 32.9764 18.7096 33.7884 18.73 34.6C19.01 37.17 18.62 40.86 21.63 41.32C26.25 42.02 31.16 42.73 35.75 40.73C36.25 40.5 36.63 39.23 36.53 38.52C35.95 34.2 37.96 32.62 42.08 32.34C44.6 32.17 46.52 31.04 46.68 27.64C46.84 24.24 44.74 23.97 42.57 23.31C49.93 22.97 57.31 21.97 64.57 23.92C64.33 33.64 66.57 32.71 55.69 32.79C45.35 32.87 46.5 31.13 46.59 41.85L46.73 41.78ZM12.24 81.33L13.07 80.33C12.7069 80.0085 12.3153 79.7206 11.9 79.47C11.36 79.21 10.9 79.47 10.9 80.07C10.9 80.67 11.17 81.39 12.22 81.33L12.24 81.33Z" fill="#F5AFB8"/>
<path d="M330.38 105.74C330.46 96.79 330.46 96.74 321.86 96.67C315.45 96.59 309.03 96.56 302.61 96.51C301.7 94.75 300.89 93.01 301.4 90.89C301.78 89.32 301.62 87.84 299.47 87.68C297.195 87.3585 294.898 87.2147 292.6 87.25C283.36 87.99 283.07 87.77 283.81 78.36C298.63 77.61 313.46 77.91 328.29 78.24C329.135 79.8277 329.535 81.6137 329.45 83.41C329.27 85.48 329.84 87.07 332.33 86.82C336.06 86.43 337.33 88.82 338.33 91.75L338.33 105.62L330.38 105.74Z" fill="#EC7382"/>
<path d="M301.64 41.94C308.38 41.94 315.1 41.19 321.85 42.52C327.41 43.62 329.28 41.81 329.41 36.27C329.41 35.11 329.52 33.96 329.57 32.8C332.48 32.8 335.4 32.8 338.31 32.8L338.2 50.57C330.64 50.78 330.65 50.78 329.06 58.29C328.915 58.7656 328.72 59.2248 328.48 59.66C313.52 59.66 298.567 59.6333 283.62 59.58C283.55 48.88 282.71 51.01 292.18 50.76C292.35 50.76 292.52 50.76 292.68 50.76C301.5 50.74 301.5 50.74 301.64 41.94Z" fill="#EC7382"/>
<path d="M42.6101 23.29C44.7801 23.95 46.8801 24.19 46.7201 27.62C46.5601 31.05 44.6401 32.15 42.1201 32.32C38.0001 32.6 35.9901 34.18 36.5701 38.5C36.6701 39.21 36.2901 40.5 35.7901 40.71C31.2001 42.71 26.2901 42 21.6701 41.3C18.6701 40.84 19.0501 37.15 18.7701 34.58C18.7336 33.7494 18.757 32.9172 18.8401 32.09L19.0101 29.85C19.105 29.7847 19.1826 29.6974 19.2362 29.5955C19.2898 29.4935 19.3178 29.3801 19.3178 29.265C19.3178 29.1498 19.2898 29.0364 19.2362 28.9345C19.1826 28.8326 19.105 28.7452 19.0101 28.68C18.9601 26.81 18.5901 24.85 20.6001 23.68L22.7601 23.59C23.6701 23.59 24.5901 23.59 25.5101 23.59C29.5701 23.84 33.6501 24.41 37.6701 23.28L42.6101 23.29Z" fill="#EC7382"/>
<path d="M201.54 96.76C201.63 86.82 201.63 86.82 211.54 86.76C212.702 86.6799 213.868 86.6799 215.03 86.76C218.5 87.22 220.03 85.83 219.54 82.31C218.96 78.42 220.81 77.6 224.4 77.62C228.15 77.62 230.12 78.49 229.52 82.62C229.17 85.04 229.68 87.13 232.87 86.62C237.74 85.81 239.03 88.18 238.47 92.53C238.405 93.8651 238.455 95.2035 238.62 96.53C235.19 96.45 231.77 96.36 228.34 96.28C228.4 94.97 228.39 93.66 228.52 92.35C228.83 89.25 228.14 87.5 224.35 87.54C220.75 87.54 220.25 89.3 220.47 92.14C220.58 93.61 220.56 95.09 220.6 96.57C220.503 96.6614 220.382 96.7232 220.25 96.748C220.119 96.7728 219.984 96.7596 219.86 96.71C213.773 96.75 207.667 96.7667 201.54 96.76Z" fill="#F5AFB8"/>
<path d="M283.81 78.36C283.07 87.77 283.36 87.99 292.6 87.25C294.898 87.2147 297.195 87.3585 299.47 87.68C301.62 87.84 301.78 89.32 301.4 90.89C300.89 93.01 301.7 94.75 302.61 96.51L273.47 96.6C275.65 91.6 274.19 86.27 274.4 81.1C274.5 78.68 271.78 79.1 270.47 78.04C274.911 77.5411 279.398 77.6488 283.81 78.36Z" fill="#F5AFB8"/>
<path d="M301.64 41.94C301.5 50.74 301.5 50.74 292.64 50.79C292.48 50.79 292.31 50.79 292.14 50.79C282.67 51.04 283.51 48.91 283.58 59.61C280.53 59.61 277.49 59.66 274.44 59.68L274.44 41.76C283.533 41.8266 292.6 41.8866 301.64 41.94Z" fill="#F5AFB8"/>
<path d="M46.7299 96.48C46.6199 107.28 45.3899 105.68 55.7299 105.67C64.5299 105.67 64.5299 105.55 64.7299 114.55C58.6499 114.55 52.5733 114.55 46.4999 114.55C46.0854 112.971 45.8143 111.358 45.6899 109.73C45.6899 106.73 44.2499 105.49 41.4299 105.78C37.8499 106.15 37.4299 104.12 37.4299 101.24C37.4299 98.36 37.6299 96.13 41.2899 96.7C44.5699 97.22 45.4599 94.96 46.3599 92.62L46.7299 96.48Z" fill="#F5AFB8"/>
<path d="M91.8999 97.02C91.7999 95.37 91.7699 93.71 91.5999 92.07C91.2599 88.73 92.2099 86.68 96.0199 86.43C99.0999 86.23 101.36 84.95 100.65 81.08C100.16 78.43 101.77 77.46 104.2 77.76C106.63 78.06 109.79 76.55 110.55 80.64C111.55 85.87 110.48 87.46 105.19 87.64C102.34 87.72 101.36 88.81 101.52 91.54C101.538 93.3635 101.451 95.1864 101.26 97C98.1596 96.4966 94.998 96.5033 91.8999 97.02V97.02Z" fill="#F5AFB8"/>
<path d="M101.26 41.45C101.453 42.5893 101.534 43.7449 101.5 44.9C101 49.16 102.15 51.55 107.06 50.79C111.06 50.16 110.61 53.18 110.53 55.64C110.45 58.1 111.41 60.64 107.24 60.81C101.09 60.98 100.84 61 100.62 54.93C100.55 52.93 100.89 50.4 97.83 50.93C91.55 51.93 91.07 48.32 91.57 43.66C91.68 42.66 91.68 41.66 91.73 40.66C94.86 41.44 97.99 42.27 101.26 41.45Z" fill="#F5AFB8"/>
<path d="M156.59 32.77C156.39 37.5 155.74 42.1 163.1 42.09C165.6 42.09 165.48 45.94 165.53 48.38C165.58 50.82 163.72 50.61 162.04 50.78C157.95 51.18 154.65 50.87 155.57 45.29C155.84 43.66 155.67 42.14 153.26 41.72C146.95 40.65 146.68 40.14 146.59 32.78C149.93 32.78 153.26 32.77 156.59 32.77Z" fill="#F5AFB8"/>
<path d="M201.54 96.76C207.66 96.76 213.78 96.76 219.9 96.76L219.65 101.7L219.58 104.56C218.21 106.41 216.29 105.4 214.58 105.56C212.82 104.16 210.77 104.83 208.85 104.79C200.91 104.64 201.59 105.69 201.59 97.74L201.59 96.74L201.54 96.76Z" fill="#EC7382"/>
<path d="M228.56 132.73C228.88 129.73 227.76 126.73 229.26 123.82C230.593 123.902 231.93 123.882 233.26 123.76C238.05 122.99 238.73 125.56 238.55 129.53C238.41 132.53 237.23 133.83 234.32 133.53C232.37 133.37 230.29 134.22 228.56 132.73Z" fill="#F5AFB8"/>
<path d="M109.6 114.68C109.71 112.86 109.7 111.03 109.93 109.23C110.29 106.45 111.93 105.15 114.75 105.66C116.51 105.97 119.21 104.66 119.49 107.74C119.73 110.48 120.37 113.43 118.32 115.87C118.11 116.12 117.45 116.13 117.03 116.06C110.89 115.06 110.9 115.06 110.6 121.3C110.552 121.795 110.468 122.287 110.35 122.77C108.95 120.18 110 117.36 109.6 114.68Z" fill="#F5AFB8"/>
<path d="M201.58 96.72L201.58 97.72C201.58 105.67 200.9 104.62 208.84 104.77C210.76 104.77 212.84 104.14 214.57 105.54C206.89 105.54 199.223 105.573 191.57 105.64L192.22 104.31C193.29 101.99 191.12 98.44 193.84 97.16C196.02 96.14 198.97 96.8 201.58 96.72Z" fill="#F5AFB8"/>
<path d="M228.83 15.05C227.83 11.74 230.32 8.58995 229.26 5.27995C230.9 5.14995 232.53 5.04996 234.16 4.86996C237.89 4.46996 238.51 6.60996 238.53 9.71996C238.55 12.83 238.01 14.92 234.23 14.67C232.423 14.6728 230.619 14.7998 228.83 15.05V15.05Z" fill="#F5AFB8"/>
<path d="M19.64 96.73C19.25 99.73 20.53 102.84 18.82 105.73C18.66 105.73 18.5 105.73 18.33 105.73C9.19998 105.42 9.49998 107.9 9.92998 96.58C13.17 96.64 16.42 96.7 19.66 96.77L19.64 96.73Z" fill="#F5AFB8"/>
<path d="M338.34 91.75C337.34 88.87 336.06 86.43 332.34 86.82C329.85 87.07 329.28 85.48 329.46 83.41C329.545 81.6137 329.145 79.8277 328.3 78.24C338.22 76.98 338.24 76.98 338.47 86.85C338.5 88.48 338.39 90.12 338.34 91.75Z" fill="#F5AFB8"/>
<path d="M338.31 32.84C335.4 32.84 332.48 32.84 329.57 32.84C329.57 30.84 329.68 28.9 329.47 26.95C329.12 23.57 330.73 22.95 333.78 22.86C337.38 22.74 339.04 23.69 338.5 27.49C338.338 29.2684 338.274 31.0545 338.31 32.84V32.84Z" fill="#F5AFB8"/>
<path d="M146.49 105.55C146.597 104.22 146.634 102.884 146.6 101.55C146.37 98.32 147.38 96.62 151.03 96.62C154.32 96.62 156.33 97.42 155.61 101.04C154.89 104.66 157.81 104.48 159.61 105.56L146.49 105.55Z" fill="#F5AFB8"/>
<path d="M201.62 32.85L201.56 41.76C192.56 41.82 192.56 41.82 192.56 32.81C195.56 32.82 198.59 32.84 201.62 32.85Z" fill="#F5AFB8"/>
<path d="M328.48 59.7C328.721 59.2648 328.915 58.8056 329.06 58.33C330.65 50.82 330.64 50.82 338.2 50.61C339.04 59.91 339.04 59.91 328.48 59.7Z" fill="#F5AFB8"/>
<path d="M174.43 105.44C174.43 103.79 174.43 102.14 174.53 100.5C174.61 99.11 174.07 97.18 176.16 96.92C178.25 96.66 180.78 96.08 182.85 97.42C183.34 97.74 183.43 98.88 183.48 99.66C183.61 101.66 183.6 103.61 183.65 105.58C180.57 105.53 177.5 105.49 174.43 105.44Z" fill="#F5AFB8"/>
<path d="M183.57 32.74C183.57 33.74 183.51 34.74 183.57 35.68C183.67 39.02 184.14 41.98 178.84 41.9C173.54 41.82 174.68 38.65 174.6 35.71C174.6 34.71 174.6 33.71 174.6 32.77L183.57 32.74Z" fill="#F5AFB8"/>
<path d="M330.38 105.74L338.3 105.62C338.3 106.43 338.44 107.25 338.44 108.06C338.44 111.55 339.5 115.3 333.38 114.89C327.03 114.47 330.31 110.1 329.58 107.39C329.46 106.94 330.09 106.29 330.38 105.74Z" fill="#F5AFB8"/>
<path d="M146.82 5.18997C146.714 6.16314 146.657 7.14107 146.65 8.11998C146.8 11.39 147.01 14.03 142.09 14.03C137.17 14.03 137.39 11.37 137.54 8.10997C137.535 7.13072 137.475 6.15254 137.36 5.17998C140.493 4.66332 143.689 4.66669 146.82 5.18997V5.18997Z" fill="#F5AFB8"/>
<path d="M219.73 115C219.73 116.49 219.56 118 219.65 119.47C219.85 122.7 218.37 123.89 215.21 123.86C212.21 123.86 210.34 123.04 210.55 119.66C210.806 118.004 210.451 116.312 209.55 114.9C212.91 114.927 216.303 114.96 219.73 115Z" fill="#F5AFB8"/>
<path d="M137.54 132.67C137.54 131.52 137.64 130.36 137.54 129.22C137.26 125.76 138.01 123.76 142.26 123.62C146.98 123.47 146.79 126.11 146.63 129.24C146.57 130.39 146.63 131.54 146.63 132.69C143.59 132.68 140.56 132.68 137.54 132.67Z" fill="#F5AFB8"/>
<path d="M210.32 23.16C210.86 21.78 211.74 20.46 211.41 18.89C210.88 16.44 210.34 14.3 214.27 14.6C217.17 14.82 220.19 14.27 219.6 18.77C219.36 20.66 219.6 22.44 221.6 23.41C217.85 23.9164 214.044 23.832 210.32 23.16Z" fill="#F5AFB8"/>
<path d="M237.67 41.95C237.67 42.95 237.67 43.95 237.62 44.95C237.48 47.71 238.74 50.9 233.62 50.95C228.5 51 229.29 47.51 228.57 44.78C228.36 43.98 229.05 42.93 229.32 42L237.67 41.95Z" fill="#F5AFB8"/>
<path d="M220.64 96.6C220.64 95.12 220.64 93.6 220.51 92.17C220.29 89.33 220.79 87.61 224.39 87.57C228.18 87.57 228.87 89.28 228.56 92.38C228.43 93.69 228.44 95 228.38 96.31C225.8 96.44 223.22 96.53 220.64 96.6Z" fill="#EC7382"/>
<path d="M229.08 121.94C226.2 120.42 227.95 117.8 227.59 115.68C231.91 116.86 228.73 119.83 229.08 121.94Z" fill="#F5AFB8"/>
<path d="M101.34 97.1C102.91 96.99 104.55 96.26 106.15 97.69C104.96 99.52 103.3 99.8 101.42 99.58L101.34 97.1Z" fill="#F5AFB8"/>
<path d="M37.7301 23.28C33.7301 24.41 29.6301 23.84 25.5701 23.59C29.5501 22.14 33.6201 22.77 37.7301 23.28Z" fill="#F5AFB8"/>
<path d="M110.83 14.23C110.27 16.72 111.22 19.36 110.09 21.8C109.84 19.22 108.52 16.55 110.83 14.23Z" fill="#F5AFB8"/>
<path d="M255.48 96.6C256.565 95.9948 257.787 95.6772 259.03 95.6772C260.273 95.6772 261.495 95.9948 262.58 96.6C260.21 96.6 257.85 96.6 255.48 96.6Z" fill="#F5AFB8"/>
<path d="M225.51 23.39L228.77 21.77C228.94 24.83 226.96 23.6 225.51 23.39Z" fill="#F5AFB8"/>
<path d="M79.5701 105.6C79.8349 105.327 80.1519 105.109 80.5023 104.961C80.8528 104.812 81.2295 104.736 81.6101 104.736C81.9907 104.736 82.3674 104.812 82.7178 104.961C83.0682 105.109 83.3853 105.327 83.6501 105.6C82.2901 105.55 80.9301 105.6 79.5701 105.6Z" fill="#F5AFB8"/>
<path d="M219.58 104.6L219.65 101.74C220.6 102.69 220.73 103.6 219.58 104.6Z" fill="#F5AFB8"/>
<path d="M22.7799 23.55L20.6199 23.64C21.3099 22.73 22.0299 22.8 22.7799 23.55Z" fill="#F5AFB8"/>
<path d="M19.0699 112.6L19.7699 114.48C18.6399 114.23 18.7299 113.49 19.0699 112.6Z" fill="#F5AFB8"/>
<path d="M85.5701 105.55C86.2801 104.71 86.9801 104.73 87.6801 105.55L85.5701 105.55Z" fill="#F5AFB8"/>
<path d="M121.73 4.95998C121.04 5.21998 120.34 5.47997 119.65 5.74997C119.98 4.65997 120.79 4.71998 121.73 4.95998Z" fill="#F5AFB8"/>
<path d="M215.65 5.04998C215.25 5.57998 214.85 5.57998 214.45 5.04998C214.85 5.04998 215.25 5.04998 215.65 5.04998Z" fill="#F5AFB8"/>
<path d="M19.03 28.68C19.1249 28.7452 19.2025 28.8326 19.2561 28.9345C19.3097 29.0364 19.3377 29.1498 19.3377 29.265C19.3377 29.3801 19.3097 29.4935 19.2561 29.5955C19.2025 29.6974 19.1249 29.7847 19.03 29.85L19.03 28.68Z" fill="#F5AFB8"/>
<path d="M19.04 107.6C19.1352 107.671 19.2125 107.763 19.2657 107.869C19.319 107.975 19.3467 108.091 19.3467 108.21C19.3467 108.329 19.319 108.445 19.2657 108.551C19.2125 108.657 19.1352 108.749 19.04 108.82L19.04 107.6Z" fill="#F5AFB8"/>
<path d="M90.55 105.6L91.61 104.81C91.6033 104.936 91.5689 105.059 91.5093 105.17C91.4497 105.281 91.3664 105.378 91.2652 105.453C91.164 105.529 91.0475 105.581 90.924 105.606C90.8004 105.632 90.6727 105.63 90.55 105.6V105.6Z" fill="#F5AFB8"/>
<path d="M91.73 35.87L91.55 34.81C92.41 35.03 92.3 35.41 91.73 35.87Z" fill="#F5AFB8"/>
<path d="M5.65988 39.78L5.87988 39.52L5.62988 39.75L5.65988 39.78Z" fill="#F5AFB8"/>
<path d="M129.73 5.03997C129.3 5.58997 128.9 5.53998 128.53 4.97998L129.73 5.03997Z" fill="#F5AFB8"/>
<path d="M201.53 74C201.19 75.57 202.53 78 199.92 78.55C197.51 79.01 194.92 79.3 192.55 78.31C191.09 77.68 192.43 76.2399 192.47 75.1799C192.59 72.3599 192.75 69.78 188.68 69.69C185.43 69.61 183 69.86 183.57 74.09C183.87 76.37 183.22 78.01 180.38 77.85C177.54 77.69 174.48 78.59 173.9 74.4C173.57 71.98 173.67 69.27 170.19 68.87C167.3 68.55 165.48 68.87 165.49 72.6C165.49 77.68 164.14 78.38 158.49 77.84C153.88 77.4 155.9 74 155.7 71.77C155.5 69.54 157.26 68.68 159.35 68.77C163.02 68.88 165.06 67.46 164.61 63.45C164.11 59 167.39 59.95 169.92 59.81C172.62 59.66 175.1 59.73 174.61 63.57C174.12 67.41 175.69 68.95 179.68 68.87C182.85 68.8 183.84 67.61 183.53 64.7C183.22 61.79 183.59 59.59 187.6 59.7C191.13 59.81 193.1 60.76 192.6 64.56C192.18 67.89 193.6 69.22 196.85 68.72C201.14 68.04 202.14 70.27 201.53 74Z" fill="#F5AFB8"/>
<path d="M60.48 77.81C56.99 77.81 53.48 77.72 50.02 77.81C47.44 77.91 46.35 76.81 46.53 74.3C46.71 71.79 45.96 68.56 49.73 68.83C54.62 69.18 56.35 67.4 55.64 62.68C55.33 60.63 56.43 59.58 58.55 59.68C59.05 59.68 59.55 59.63 60.04 59.68C64.42 60.16 70.59 57.52 72.8 60.84C75.51 64.94 73.44 71.14 73.57 76.43C73.57 77.83 73.01 78.37 71.39 78.21C67.77 77.85 64.12 77.81 60.48 77.63L60.48 77.81Z" fill="#F5AFB8"/>
<path d="M133.22 68.81C130.22 68.81 127.22 68.6 124.28 68.86C120.61 69.18 119.36 67.86 119.41 64.13C119.41 60.58 120.67 59.44 124.07 59.68C130.81 60.17 137.58 59.18 144.35 60.35C148.1 61 147.47 63.35 147.57 65.79C147.7 68.79 145.78 68.79 143.65 68.79C140.17 68.79 136.65 68.79 133.22 68.79L133.22 68.81Z" fill="#F5AFB8"/>
<path d="M19.66 96.75C18.37 94.34 19.56 91.91 19.56 89.49C19.56 87.27 20.8 86.66 22.74 86.74C26.83 86.9 30.95 86.74 34.99 87.27C38.33 87.71 36.37 90.71 36.66 92.52C37.01 94.72 36.83 96.88 33.53 96.79C28.91 96.65 24.27 96.74 19.64 96.73L19.66 96.75Z" fill="#F5AFB8"/>
<path d="M82.64 68.48C82.7051 67.3209 82.7051 66.1591 82.64 65C82.29 61.51 82.91 59.53 87.32 59.61C91.48 59.69 91.92 61.55 91.69 64.82C91.5 67.4666 91.5 70.1234 91.69 72.77C91.94 76.13 91.33 78.04 87.22 77.87C83.95 77.73 82.16 77.11 82.6 73.45C82.7134 71.7956 82.7268 70.1359 82.64 68.48V68.48Z" fill="#EB625D"/>
<path d="M201.56 41.76C206.18 41.76 210.8 41.83 215.42 41.67C219.17 41.53 219.57 43.67 219.7 46.67C219.84 50.11 218.33 50.96 215.28 50.76C212.649 50.505 210 50.505 207.37 50.76C202.45 51.39 200.81 49.29 201.54 44.66C201.617 43.6614 201.617 42.6585 201.54 41.66L201.56 41.76Z" fill="#F5AFB8"/>
<path d="M172.57 14.75C169.21 14.33 171.25 10.65 168.47 9.43998C172.19 7.76998 175.32 9.08998 178.2 9.12998C181.08 9.16998 180.2 13.13 181.02 15.29C181.67 16.97 181.61 18.29 179.35 18.29C179.18 18.29 178.96 18.29 178.87 18.34C177.51 19.73 176.25 21.73 173.96 20.55C171.5 19.27 172.71 16.78 172.6 14.75L172.86 14.33L172.57 14.75Z" fill="#F5AFB8"/>
<path d="M46.73 96.48L46.47 92.63C46.71 90.36 45.6 87.31 49.61 87.27C49.9538 87.4921 50.3632 87.5903 50.7704 87.5485C51.1776 87.5067 51.5584 87.3273 51.85 87.04C52.72 87.04 53.58 87.04 54.45 87.04L55.64 87.77C55.6 97.75 57.51 96.67 46.73 96.48Z" fill="#FCFCFC"/>
<path d="M46.48 44.71L46.71 41.78L49.65 41.63L50.71 41.63C54.97 40.97 55.84 42.98 55.84 46.94C55.84 51.27 53.3 50.78 50.69 50.69C49.27 50.64 47.69 51.23 46.54 49.79L46.48 44.71Z" fill="#FCFCFC"/>
<path d="M115.25 23.75C118.9 23.01 119.75 24.75 119.72 28.19C119.69 31.63 118.34 32.85 114.95 32.86C111.3 32.86 110.61 31.1 110.42 27.91C110.2 24.03 111.98 23.23 115.25 23.75Z" fill="#F5AFB8"/>
<path d="M156.56 92.1C155.85 88.49 157.56 87.55 160.96 87.59C164.36 87.63 165.67 89.08 165.46 92.03C165.27 94.76 164.46 96.93 160.71 96.9C156.96 96.87 156.01 95.38 156.56 92.1Z" fill="#F5AFB8"/>
<path d="M228.58 55.11C229.11 58.32 228.16 59.91 224.44 59.89C220.97 59.89 220.44 58.38 220.37 55.39C220.37 52.23 220.88 50.54 224.65 50.62C228.05 50.69 229.11 51.98 228.58 55.11Z" fill="#F5AFB8"/>
<path d="M46.48 44.71L46.48 49.81C45.9041 49.0848 45.5906 48.186 45.5906 47.26C45.5906 46.3339 45.9041 45.4351 46.48 44.71Z" fill="#F5AFB8"/>
<path d="M51.8001 87.04C51.5085 87.3273 51.1277 87.5067 50.7205 87.5485C50.3132 87.5903 49.9039 87.4921 49.5601 87.27C49.8752 87.0273 50.2517 86.8772 50.6474 86.8366C51.043 86.7959 51.4422 86.8664 51.8001 87.04V87.04Z" fill="#F5AFB8"/>
<path d="M50.6601 41.6L49.6001 41.6C49.8393 41.4643 50.0904 41.3505 50.3501 41.26C50.4201 41.32 50.5601 41.54 50.6601 41.6Z" fill="#F5AFB8"/>
<path d="M55.5899 87.79L54.3999 87.06C54.5261 87.0157 54.6605 87.0001 54.7934 87.0143C54.9264 87.0285 55.0545 87.0722 55.1684 87.1421C55.2824 87.212 55.3794 87.3064 55.4523 87.4185C55.5252 87.5306 55.5722 87.6575 55.5899 87.79V87.79Z" fill="#F5AFB8"/>
<path d="M12.2199 81.33C11.1699 81.39 10.8899 80.84 10.9099 80.12C10.9299 79.4 11.3399 79.26 11.9099 79.52C12.3252 79.7706 12.7168 80.0584 13.0799 80.38L12.2199 81.33Z" fill="#EC7382"/>
<path d="M172.57 14.75L172.86 14.37L172.6 14.79L172.57 14.75Z" fill="#EC7382"/>
</g>
<defs>
<clipPath id="clip0_4_198">
<rect width="133.86" height="338.6" fill="white" transform="translate(0 133.86) rotate(-90)"/>
</clipPath>
</defs>
</svg>
