<svg width="144" height="205" viewBox="0 0 144 205" fill="none" xmlns="http://www.w3.org/2000/svg">
<g clip-path="url(#clip0_4_269)">
<path d="M120.04 77.1011L120.948 79.4288C119.887 81.5585 119.282 83.8849 119.172 86.26C119.061 88.6352 119.448 91.0073 120.307 93.2257C121.457 95.9151 127.075 93.5031 130.67 93.9855C132.251 94.0881 133.836 94.0881 135.416 93.9855C135.416 96.8076 135.416 99.6216 135.416 102.428H128.128C119.653 102.428 119.653 102.428 119.653 110.641C119.653 120.361 119.653 130.082 119.653 139.802L118.66 140.731L117.292 141.66C108.459 142.128 99.6059 142.084 90.778 141.527C90.3179 140.49 89.8215 140.321 89.2767 141.527C89.2251 141.604 89.1569 141.669 89.0772 141.717C88.9974 141.765 88.908 141.794 88.8153 141.803C88.7227 141.813 88.6292 141.801 88.5414 141.77C88.4537 141.739 88.3741 141.689 88.3081 141.623C87.7391 139.814 89.422 136.582 86.032 136.57C83.0416 136.57 83.4411 139.465 83.308 141.587C80.5419 142.102 77.7072 142.134 74.93 141.684C74.9512 141.373 74.9101 141.062 74.8089 140.767C72.3875 139.368 72.3875 137.016 72.2907 134.665C72.2907 134.363 72.1696 134.074 72.0969 133.772C74.0341 125.8 72.6175 124.522 64.2395 126.645C61.6002 126.102 59.2394 127.32 56.7575 127.851C56.7575 118.818 56.8543 109.76 56.6848 100.763C56.6848 97.6397 57.0117 95.2036 60.6317 94.5885C61.6345 94.4946 62.565 94.028 63.2381 93.2816C63.9111 92.5351 64.2773 91.5636 64.2638 90.5604C64.4333 89.0408 65.1476 87.087 67.0484 87.0749C71.2253 87.0749 72.3028 85.0247 72.6781 81.1172C73.1381 76.3775 77.5209 79.3082 79.9422 78.3675C88.0297 78.7654 88.0297 78.7654 88.2476 86.8096C80.4749 86.9664 79.4216 88.1121 81.3103 94.3111C79.8817 97.0005 80.3297 99.7864 80.8745 102.584C81.2619 104.996 79.579 108.458 84.3128 108.615C89.422 108.747 87.9449 105.129 88.1023 102.44L87.9571 94.6367C88.0418 92.0317 88.1265 89.4146 88.2234 86.8096C92.0855 86.8096 96.6983 88.2689 96.6983 81.7081C96.6983 79.5132 98.6838 79.5373 100.33 79.5252C104.544 79.5252 108.805 79.5252 112.97 79.5252C115.621 79.3805 118.37 79.8629 120.04 77.1011ZM80.1602 127.899L79.8938 128.381L80.1965 128.84C79.6033 134.134 83.0174 134.942 86.6979 133.664C90.1847 132.458 87.5333 128.84 88.2597 126.5C88.2597 123.67 88.2597 120.856 88.2597 118.058C88.3502 117.071 88.3502 116.078 88.2597 115.091C88.0055 113.246 89.543 110.194 85.693 110.496C83.9617 110.629 81.1408 109.181 80.7655 112.076C80.475 114.331 78.6831 117.937 83.3806 118.468C81.8915 120.88 80.3781 123.159 80.9592 126.162L80.1602 127.899ZM72.5086 109.398C72.5086 106.19 72.448 102.994 72.5086 99.7503C72.5812 97.0608 72.2301 95.0588 68.7191 95.1191C65.5592 95.1191 65.1718 96.9282 65.196 99.4126C65.2606 105.845 65.2606 112.245 65.196 118.612C65.196 121.025 65.4987 122.858 68.6707 122.942C72.1817 123.014 72.5691 121.049 72.4965 118.347C72.4359 115.392 72.5086 112.389 72.5086 109.398ZM100.355 126.283C97.3399 125.692 96.0808 126.753 96.2745 130.009C96.4319 132.494 96.553 134.146 99.7613 133.941C102.304 133.784 104.41 134.05 104.18 130.323C103.987 127.634 103.914 125.523 100.282 126.271L100.355 126.283ZM96.4077 114.223C95.7902 117.358 97.0857 118.383 100.258 118.263C102.836 118.166 104.326 117.889 104.144 114.753C103.999 112.16 104.144 110.182 100.512 110.363C97.6668 110.472 95.6813 110.725 96.3835 114.198L96.4077 114.223ZM100.536 102.428C102.667 102.693 104.168 102.343 104.168 99.3884C104.168 96.4337 102.873 95.7704 100.185 95.7704C97.4973 95.7704 96.3229 96.7593 96.335 99.6658C96.3229 102.946 98.3932 102.416 100.512 102.404L100.536 102.428Z" fill="#EEEEED"/>
<path d="M119.653 180.819H79.8454H72.5812C72.5812 172.835 72.7265 164.851 72.4602 156.892C72.3391 152.924 73.7677 151.73 77.654 151.778C91.6739 151.959 105.694 151.851 119.714 151.778C119.673 161.483 119.653 171.163 119.653 180.819Z" fill="#EEEEED"/>
<path d="M79.8333 62.653L80.0512 31.7787C90.8385 31.5134 101.638 30.4883 112.389 32.3335C111.862 42.4573 111.862 52.6015 112.389 62.7253L112.498 62.6168C108.866 62.7012 105.234 62.6891 101.674 62.9183C98.1147 63.1474 95.7539 62.7494 96.3471 58.2872C96.8072 54.6691 93.9257 55.4651 91.8676 55.3083C89.4462 55.1274 87.957 55.6821 88.2355 58.5284C88.2999 59.9233 88.2797 61.3208 88.1749 62.7133L88.2718 62.6168L79.8333 62.653ZM104.047 43.3566C104.737 39.7385 102.485 39.7385 99.8218 39.6541C96.6377 39.4973 96.4198 41.1134 96.2745 43.6219C96.0808 47.1073 97.921 47.3364 100.657 47.4088C103.732 47.4209 104.41 45.9495 104.011 43.2963L104.047 43.3566ZM84.216 39.7385C81.2134 39.1355 80.7171 40.7274 80.5839 43.3566C80.4507 46.5767 81.6735 47.3003 84.7002 47.3847C88.3323 47.4691 88.2234 45.5274 88.3323 42.9345C88.5624 39.5576 86.6374 39.4611 84.1796 39.6903L84.216 39.7385Z" fill="#F5C098"/>
<path d="M112.389 32.3335C101.638 30.4883 90.8384 31.5134 80.0511 31.7787C80.0511 26.3999 78.7678 20.9245 80.9471 15.7024C89.1919 15.7024 97.4367 15.9678 105.657 15.5698C110.754 15.3286 113.418 16.5467 112.437 22.1064C111.457 27.6662 114.169 30.223 119.701 30.1265V32.4782L112.389 32.3335Z" fill="#EEEEED"/>
<path d="M120.04 77.1011C118.37 79.8629 115.621 79.3805 113.043 79.3926C108.829 79.3926 104.568 79.3926 100.403 79.3926C98.7805 79.3926 96.7708 79.3926 96.7708 81.5755C96.7708 88.1362 92.1459 86.7131 88.2959 86.677C88.078 78.6328 88.078 78.6328 79.9905 78.2348C79.9905 76.2328 79.8937 74.2308 79.8331 72.2047C79.9062 71.863 79.881 71.5076 79.7605 71.1795C88.4533 70.866 88.4533 70.866 88.2354 62.5565L88.1385 62.653C90.4509 64.4861 95.9354 60.2409 95.8506 66.1504C95.778 70.661 97.6182 71.4811 101.444 71.0831C103.82 70.872 106.211 70.872 108.587 71.0831C111.505 71.3122 112.498 70.07 112.219 67.2841C112.188 65.7058 112.252 64.127 112.413 62.5565L112.304 62.665C114.698 63.4552 117.283 63.4552 119.677 62.665C119.73 62.6302 119.791 62.6078 119.854 62.5994C119.917 62.591 119.981 62.5969 120.041 62.6166C120.102 62.6363 120.157 62.6693 120.203 62.7132C120.249 62.7571 120.284 62.8107 120.307 62.87C120.149 63.6057 119.992 64.3293 119.847 65.065L119.956 67.477C119.956 69.8891 119.956 72.3011 120.016 74.7132L120.04 77.1011Z" fill="#F5C098"/>
<path d="M79.8694 8.45423C77.896 8.28539 75.7652 8.93664 73.9976 7.73062C72.23 6.52459 72.4358 4.63113 72.7021 2.83416C73.0774 0.651253 74.724 0.0482408 76.6974 0.0482408C92.727 0.0482408 108.757 0.0482408 124.774 0.0482408C127.982 -1.30638e-07 128.128 1.92964 128.188 4.34169C128.249 6.97082 127.547 8.62307 124.556 8.44217C122.97 8.34569 121.36 8.44217 119.713 8.44217L79.8694 8.45423Z" fill="#EEEEED"/>
<path d="M74.9662 141.66C77.7434 142.11 80.5781 142.078 83.3442 141.563C84.9722 142.069 86.7164 142.069 88.3444 141.563C88.4103 141.629 88.49 141.679 88.5777 141.71C88.6654 141.741 88.7589 141.752 88.8515 141.743C88.9442 141.734 89.0336 141.704 89.1134 141.656C89.1932 141.609 89.2613 141.544 89.3129 141.467H90.8142C99.6422 142.023 108.495 142.068 117.328 141.599C120.864 142.395 124.593 141.02 128.055 142.371V149.065L119.665 149.752C106.505 149.68 93.3203 149.27 80.1722 149.68C74.1187 149.873 71.2494 148.594 72.569 142.19L74.9662 141.66Z" fill="#383838"/>
<path d="M119.653 149.836L128.043 149.149C127.994 165.077 127.938 181 127.873 196.92L119.943 196.787L119.653 180.819C119.653 171.171 119.653 161.523 119.653 151.875C119.653 151.175 119.653 150.5 119.653 149.836Z" fill="#E0E0E0"/>
<path d="M79.8695 8.45423H119.713V30.1627C114.205 30.2592 111.469 27.8592 112.449 22.1426C113.43 16.4261 110.766 15.3648 105.669 15.606C97.4488 16.0039 89.204 15.7266 80.9591 15.7386C79.6153 13.4351 79.7 10.9386 79.8695 8.45423Z" fill="#E0E0E0"/>
<path d="M128.055 142.456C124.556 141.105 120.864 142.456 117.328 141.684L118.696 140.755L119.689 139.826C119.689 130.106 119.689 120.385 119.689 110.665C119.689 102.464 119.689 102.464 128.164 102.452L128.055 142.456Z" fill="#E0E0E0"/>
<path d="M119.762 62.665C117.368 63.4552 114.782 63.4552 112.389 62.665C111.862 52.5412 111.862 42.397 112.389 32.2732L119.725 32.4179L119.762 62.665Z" fill="#383838"/>
<path d="M88.2838 62.6168C88.4896 70.9263 88.4896 70.9263 79.809 71.2399L78.5983 71.3002C74.9662 71.3002 71.3341 71.4328 72.3995 65.8489C73.0291 62.5806 70.2929 63.0148 68.4769 63.2319C64.6995 63.6781 64.3605 61.7484 64.3242 58.6731C64.2879 55.5977 65.6802 55.2359 68.2832 55.1515C71.4552 55.0309 72.9322 55.646 72.7022 59.2882C72.2905 65.8007 77.327 61.7967 79.8695 62.653L88.2838 62.6168Z" fill="#383838"/>
<path d="M135.392 94.0096C133.812 94.1122 132.226 94.1122 130.646 94.0096C127.014 93.5272 121.433 95.9392 120.282 93.2498C119.423 91.0314 119.037 88.6593 119.147 86.2841C119.258 83.909 119.863 81.5827 120.924 79.4529C125.271 78.0298 129.012 77.4871 128.188 84.1202C128.043 85.4106 128.745 86.7735 130.138 86.6287C136.494 85.9654 135.392 90.3071 135.392 94.0096Z" fill="#E0E0E0"/>
<path d="M143.867 110.834C143.867 116.092 143.867 121.346 143.867 126.596H135.525V109.64C138.213 110.399 140.925 111.28 143.867 110.834Z" fill="#EEEEED"/>
<path d="M72.5569 180.819H79.821C80.0147 185.643 81.5523 190.359 80.9106 195.292H72.4358L72.5569 180.819Z" fill="#E0E0E0"/>
<path d="M80.6565 197.149C79.2763 199.561 83.4896 204.288 77.4361 204.928C69.5787 205.748 73.1865 200.104 72.5933 196.703C75.3174 196.666 78.0293 196.1 80.6565 197.149Z" fill="#383838"/>
<path d="M119.919 196.787L127.849 196.92C127.365 200.2 130.682 205.639 123.2 204.916C116.796 204.288 120.864 199.537 119.919 196.787Z" fill="#383838"/>
<path d="M143.709 134.038C142.923 136.884 146.458 141.599 140.211 142.082C132.946 142.624 136.167 137.258 135.622 134.001L143.709 134.038Z" fill="#F5C098"/>
<path d="M143.867 110.834C140.973 111.28 138.261 110.399 135.537 109.628C135.537 107.216 135.537 104.804 135.537 102.391C143.952 102.416 143.952 102.416 143.867 110.834Z" fill="#E0E0E0"/>
<path d="M143.709 134.038H135.622C135.622 131.561 135.578 129.093 135.489 126.633H143.867C143.794 129.069 143.746 131.553 143.709 134.038Z" fill="#E0E0E0"/>
<path d="M64.1063 129.25C62.266 130.456 63.2951 134.954 59.1545 133.519C59.2514 131.782 59.0214 130.263 56.7332 130.166C56.7332 129.358 56.7332 128.562 56.7332 127.754C59.1545 127.284 61.5759 126.066 64.2153 126.548C64.2153 127.501 64.1668 128.381 64.1063 129.25Z" fill="#E0E0E0"/>
<path d="M120.101 74.7614C120.101 72.3494 120.101 69.9373 120.04 67.5253C123.285 69.865 123.285 72.3011 120.101 74.7614Z" fill="#EEEEED"/>
<path d="M80.6565 197.149C78.0293 196.112 75.3174 196.666 72.6296 196.703C72.6296 196.22 72.557 195.738 72.5085 195.243H80.9834L80.6565 197.149Z" fill="#EEEEED"/>
<path d="M56.7815 130.166C59.0213 130.263 59.2029 131.782 59.2029 133.519L56.7815 133.857V130.166Z" fill="#EEEEED"/>
<path d="M74.9663 141.66L72.5449 142.275C72.8476 141.069 73.8767 140.948 74.8574 140.743C74.9544 141.038 74.9915 141.35 74.9663 141.66V141.66Z" fill="#E0E0E0"/>
<path d="M119.931 65.065C120.077 64.3293 120.234 63.6057 120.391 62.87C120.547 63.0286 120.661 63.2227 120.723 63.4354C120.785 63.6481 120.794 63.8728 120.748 64.0896C120.703 64.3065 120.605 64.5089 120.462 64.679C120.32 64.8491 120.137 64.9816 119.931 65.065V65.065Z" fill="#EEEEED"/>
<path d="M1.2229 195.497L1.97354 196.461L1.2229 195.497Z" fill="#F5C098"/>
<path d="M9.47974 196.015L9.62501 195.521L9.97612 195.69L9.47974 196.015Z" fill="#F5C098"/>
<path d="M65.2563 136.16C65.6438 135.762 66.0191 135.364 66.467 134.954C66.0191 135.364 65.6438 135.798 65.2563 136.16Z" fill="#EEEEED"/>
<path d="M25.122 158.194C25.2672 158.556 25.122 158.785 24.8072 158.882L24.6377 158.411L25.122 158.194Z" fill="#F5C098"/>
<path d="M55.7405 157.76L56.7211 157.024L55.7405 157.76Z" fill="#F5C098"/>
<path d="M78.562 71.3002L79.7727 71.2399C79.8932 71.568 79.9184 71.9233 79.8453 72.265L78.562 71.3002Z" fill="#EEEEED"/>
<path d="M32.7493 151.175L32.6888 151.477H32.2529L32.7493 151.175Z" fill="#F5C098"/>
<path d="M72.5084 109.398C72.5084 112.389 72.4479 115.429 72.5084 118.395C72.5811 121.097 72.1937 123.063 68.6826 122.99C65.5106 122.906 65.1837 121.121 65.208 118.661C65.2564 112.229 65.2564 105.829 65.208 99.4608C65.208 96.9764 65.5712 95.2277 68.7311 95.1674C72.2421 95.1674 72.5932 97.1091 72.5206 99.7985C72.4358 102.994 72.5084 106.19 72.5084 109.398Z" fill="white"/>
<path d="M88.0416 94.5161L88.1869 102.319L80.9228 102.5C80.3779 99.702 79.93 96.9161 81.3586 94.2267L88.0416 94.5161Z" fill="#383838"/>
<path d="M88.0417 94.5161L81.3949 94.2267C79.5063 88.0277 80.5596 86.882 88.3322 86.7252C88.1748 89.294 88.1748 91.9111 88.0417 94.5161Z" fill="#E0E0E0"/>
<path d="M88.175 118.009V126.452L80.9108 126.15C80.3902 123.147 81.9036 120.807 83.3322 118.456L88.175 118.009Z" fill="#E0E0E0"/>
<path d="M100.282 126.271C103.914 125.523 103.914 127.634 104.107 130.347C104.338 134.038 102.231 133.772 99.6885 133.965C96.4801 134.17 96.3591 132.518 96.2017 130.034C96.0564 126.741 97.3155 125.68 100.282 126.271Z" fill="#383838"/>
<path d="M80.9107 126.15L88.2718 126.548C87.5454 128.96 90.1968 132.578 86.71 133.712C83.0779 134.978 79.6153 134.17 80.2085 128.888L80.4749 128.405L80.1722 127.947L80.9107 126.15Z" fill="#383838"/>
<path d="M96.3834 114.198C95.6812 110.725 97.6667 110.484 100.463 110.339C104.095 110.158 103.974 112.136 104.095 114.729C104.277 117.865 102.788 118.142 100.209 118.239C97.0614 118.359 95.7659 117.334 96.3834 114.198Z" fill="#383838"/>
<path d="M88.1748 118.009L83.3321 118.42C78.6346 117.889 80.4264 114.283 80.717 112.028C81.0923 109.133 83.9132 110.58 85.6445 110.448C89.4945 110.146 87.9569 113.197 88.2112 115.043C88.2896 116.031 88.2774 117.024 88.1748 118.009V118.009Z" fill="#383838"/>
<path d="M80.9106 102.5L88.1748 102.319C87.9569 105.009 89.4945 108.627 84.3853 108.494C79.6999 108.373 81.3465 104.924 80.9106 102.5Z" fill="#E0E0E0"/>
<path d="M100.512 102.404C98.3932 102.404 96.3229 102.946 96.3108 99.6659C96.3108 96.7593 97.352 95.8186 100.161 95.7704C102.97 95.7222 104.192 96.2528 104.144 99.3885C104.096 102.524 102.703 102.669 100.512 102.404Z" fill="#383838"/>
<path d="M88.3444 141.599C86.7164 142.106 84.9722 142.106 83.3442 141.599C83.4774 139.477 83.0779 136.582 86.0683 136.582C89.4582 136.558 87.7754 139.79 88.3444 141.599Z" fill="#E0E0E0"/>
<path d="M119.653 139.826L118.66 140.755L119.653 139.826Z" fill="white"/>
<path d="M90.8142 141.551H89.313C89.8578 140.393 90.3542 140.514 90.8142 141.551Z" fill="white"/>
<path d="M80.1479 127.887L80.4627 128.357L80.1843 128.84L79.8816 128.369L80.1479 127.887Z" fill="#E0E0E0"/>
<path d="M112.498 62.6168C112.337 64.1873 112.272 65.7661 112.304 67.3444C112.546 70.1303 111.553 71.3725 108.672 71.1434C106.296 70.9323 103.905 70.9323 101.529 71.1434C97.7031 71.5414 95.8629 70.7213 95.9355 66.2107C96.0203 60.3012 90.5358 64.5464 88.2234 62.7133C88.3281 61.3208 88.3483 59.9233 88.2839 58.5284C87.9934 55.6821 89.4946 55.1274 91.916 55.3083C94.0105 55.465 96.8557 54.7053 96.3956 58.2871C95.8024 62.7494 98.2964 63.1112 101.723 62.9183C105.149 62.7253 108.89 62.7012 112.498 62.6168Z" fill="#383838"/>
<path d="M104.011 43.2963C104.41 45.9495 103.732 47.4209 100.621 47.3485C97.8846 47.2761 96.0444 47.047 96.2381 43.5616C96.3834 41.0531 96.6013 39.437 99.7854 39.5938C102.449 39.7264 104.701 39.7264 104.011 43.2963Z" fill="#383838"/>
<path d="M84.1796 39.6903C86.6009 39.4611 88.5623 39.5576 88.3686 42.9345C88.2112 45.5274 88.3686 47.4691 84.7365 47.3847C81.7097 47.3003 80.4869 46.5767 80.6201 43.3566C80.6806 40.6792 81.177 39.0872 84.1796 39.6903Z" fill="#383838"/>
</g>
<defs>
<clipPath id="clip0_4_269">
<rect width="144" height="205" fill="white"/>
</clipPath>
</defs>
</svg>
