<svg width="73" height="74" viewBox="0 0 73 74" fill="none" xmlns="http://www.w3.org/2000/svg">
<path d="M21.3809 39.96C25.9089 39.8273 23.9355 36.0404 24.8435 33.9299C25.2067 33.8334 25.3036 33.6042 25.1583 33.2424C25.3079 33.0814 25.4698 32.9322 25.6426 32.7962C28.2214 32.362 31.9019 34.4364 32.6525 29.7691L32.7251 26.5249L32.7857 26.2234L34.2143 24.5711C36.1877 24.4143 38.3912 25.4877 40.0377 23.5219C40.2678 22.943 40.5099 22.3158 40.7399 21.8093C40.8489 20.4103 40.9579 19.0234 41.0547 17.6244L41.3211 17.1058C56.1279 16.7561 56.1279 16.7561 56.9269 30.9389C56.9445 31.1389 56.981 31.3367 57.0359 31.5299C56.939 31.7108 56.8422 31.8917 56.7574 32.0726L55.7768 32.8083L55.3288 32.9289L53.4764 33.0736L50.5345 33.2424C47.0477 33.6284 49.9775 38.7901 46.7571 38.766C40.2435 38.766 40.8126 42.8906 41.1031 47.1117L40.9458 47.5579C40.6552 47.8594 40.3646 48.161 40.0862 48.4745L39.614 48.6554C37.5679 48.7881 34.8681 46.967 33.9358 50.5127C33.6574 52.2373 33.391 53.9619 33.1247 55.6745L31.6597 56.5187L18.5237 57.1699C15.9207 58.9187 17.313 61.6081 16.9498 63.8754L15.3275 64.4543C13.5114 64.382 11.5501 63.3327 10.0004 65.2021C9.90354 66.987 9.80668 68.8201 9.69772 70.5689L9.55244 71.0634L9.22555 71.4613L2.43355 71.787L2.00982 71.5096L1.25918 70.5448L1.04126 69.8935C1.04126 68.5186 1.04126 67.1438 1.04126 65.7689C1.54975 63.7669 3.1963 63.7066 4.79442 63.5378C6.00511 63.4172 8.12383 63.2242 7.93011 62.4765C5.90825 54.7097 18.8264 56.6514 16.8045 48.571C16.1749 46.0745 14.8553 42.2273 18.4511 39.9962L21.3809 39.96Z" fill="#FCC700"/>
<path d="M57.0359 31.4817C56.981 31.2885 56.9445 31.0907 56.9269 30.8907C56.1278 16.7079 56.1278 16.7079 41.321 17.0576C42.7012 13.4395 45.8732 15.1038 48.0283 15.2606C53.089 15.6466 56.5637 14.6576 56.8179 8.85665L59.2393 8.51896C63.3799 9.95413 62.3508 5.46772 64.1911 4.24963C64.3363 10.2798 68.828 8.5069 72.218 8.76016C72.2906 9.04961 72.3511 9.33906 72.4117 9.64056L66.4914 9.97825C66.1039 10.3642 65.7286 10.7622 65.2807 11.1843C65.0264 14.0305 65.9345 17.3591 60.9948 17.3953C58.1739 17.3953 59.2272 20.3742 58.7671 22.2194C57.9439 25.2706 60.789 28.9731 57.0359 31.4817Z" fill="#F5C098"/>
<path d="M41.1031 47.0635C40.8125 42.8424 40.2435 38.6213 46.757 38.7178C49.9775 38.7178 47.0476 33.5801 50.5344 33.1942C50.825 37.8374 50.6191 41.757 44.0451 41.5037C40.7036 41.3831 43.0644 45.6645 41.1031 47.0635Z" fill="#F5C098"/>
<path d="M32.6525 29.7209C31.9019 34.3882 28.2214 32.3138 25.6426 32.748C27.1802 29.8897 30.2432 30.553 32.6525 29.7209Z" fill="#F5C098"/>
<path d="M2.43359 71.7387L9.22559 71.4131C7.09477 75.0553 4.81866 74.2352 2.43359 71.7387Z" fill="#F5C098"/>
<path d="M16.9498 63.8634C17.3251 61.5961 15.9207 58.9066 18.5237 57.1579C18.7053 59.5217 20.4124 62.2594 16.9498 63.8634Z" fill="#F5C098"/>
<path d="M33.9358 50.4645C34.868 46.9188 37.5679 48.7399 39.6139 48.6072C38.5727 51.9479 35.9334 50.1509 33.9358 50.4645Z" fill="#F5C098"/>
<path d="M40.0378 23.4737C38.3913 25.4395 36.1878 24.3661 34.2144 24.5229C35.7277 21.8093 37.7617 21.9782 40.0378 23.4737Z" fill="#F5C098"/>
<path d="M10.0005 65.1539C11.5502 63.2845 13.5115 64.3338 15.3276 64.4061C13.7052 65.7327 11.7923 65.0694 10.0005 65.1539Z" fill="#F5C098"/>
<path d="M41.0547 17.5762C40.9578 18.9752 40.8489 20.3621 40.7399 21.7611C39.9045 20.2897 39.6382 18.8666 41.0547 17.5762Z" fill="#F5C098"/>
<path d="M1.04125 65.8171C1.04125 67.192 1.04125 68.5669 1.04125 69.9417C0.718204 69.7027 0.455785 69.3918 0.274981 69.0337C0.0941781 68.6756 0 68.2803 0 67.8794C0 67.4786 0.0941781 67.0833 0.274981 66.7252C0.455785 66.3671 0.718204 66.0561 1.04125 65.8171Z" fill="#F5C098"/>
<path d="M21.3809 39.96L18.4873 40.0444C19.4195 38.8505 20.4123 38.9469 21.3809 39.96Z" fill="#F5C098"/>
<path d="M64.1426 4.24962C64.1426 3.38128 64.2515 2.50088 64.3121 1.62049C72.6901 -0.502114 74.1066 0.776275 72.1695 8.74809C68.8401 8.50689 64.2879 10.2315 64.1426 4.24962Z" fill="#FCC700"/>
</svg>
