<svg width="92" height="92" viewBox="0 0 92 92" fill="none" xmlns="http://www.w3.org/2000/svg">
<g clip-path="url(#clip0_5_565)">
<path d="M91.954 43.2806C91.954 41.4217 91.908 39.5628 91.954 37.7038C92 36.2325 91.5073 35.3326 89.9044 35.5231C87.533 35.7989 87.2768 34.4721 87.2768 32.5475C87.3688 27.8444 87.2768 23.1412 87.3293 18.4381C87.3293 16.3953 86.9615 14.9108 84.485 15.1538C82.6259 15.3377 81.8573 14.5363 82.0478 12.6971C82.2646 10.5164 81.1085 9.82664 79.072 9.87919C75.7875 9.96458 72.503 9.81352 69.2184 9.93175C67.2477 9.99744 66.0126 9.59017 66.282 7.27145C66.5053 5.30087 65.1521 5.22861 63.7397 5.30087C61.9464 5.35999 60.8954 4.51265 61.4143 2.72598C62.1764 0.098537 60.7574 0.0328533 58.8458 0.0394219C48.6769 0.0394219 38.4816 0.105108 28.3389 0.0394219C26.1712 0.0394219 25.35 0.735693 25.5668 2.87049C25.7376 4.55206 25.442 5.65558 23.202 4.9199C20.9619 4.18421 20.1868 5.53735 20.351 7.54734C20.5021 9.45881 19.6086 9.99744 17.8284 9.95146C14.4388 9.8595 11.0491 9.95145 7.65949 9.90547C5.68876 9.85949 4.37493 10.3916 4.60485 12.638C4.75594 14.3853 4.19759 15.4034 2.24657 15.1669C0.295552 14.9305 -0.0460279 16.126 -0.0394589 17.7944C-4.43564e-05 29.8193 -4.43564e-05 41.8465 -0.0394589 53.8758C-0.0394589 55.8464 0.525482 56.7528 2.58817 56.5426C3.90199 56.4047 4.4998 56.9367 4.66403 58.3687C5.6033 67.0407 5.63634 75.787 4.76258 84.4658C4.5458 86.7386 5.41948 87.7501 7.46904 87.2706C9.51859 86.7911 10.0966 87.3232 9.87326 89.2412C9.59736 91.422 10.5302 92.0328 12.6783 92.0263C33.13 91.965 53.5796 91.965 74.0269 92.0263C76.1225 92.0263 77.0553 91.4614 76.8713 89.2543C76.7859 88.1968 76.4575 86.3838 78.5202 87.0144C82.0346 88.1048 82.1069 86.0357 82.0938 83.5659C82.0544 75.4734 82.0938 67.3808 82.0543 59.262C82.0543 57.4425 82.3565 56.2602 84.5375 56.4966C86.587 56.72 87.1651 55.3931 87.3096 53.6787C87.395 52.6277 87.1585 51.1498 88.7877 51.3337C92.3021 51.7278 92.0263 49.4748 91.9474 47.2218C91.9146 45.908 91.954 44.5943 91.954 43.2806Z" fill="white"/>
<path d="M91.9539 43.2806C91.9539 44.5943 91.9145 45.908 91.9539 47.2218C92.0327 49.4748 92.3086 51.7278 88.7942 51.3337C87.165 51.1498 87.4015 52.6474 87.3161 53.6787C87.1782 55.3931 86.5935 56.72 84.544 56.4966C82.363 56.2602 82.0477 57.4425 82.0608 59.262C82.12 67.3545 82.0609 75.4471 82.1003 83.5659C82.1003 86.0357 82.0411 88.1048 78.5267 87.0144C76.464 86.3575 76.7924 88.1968 76.8778 89.2543C77.0618 91.4614 76.129 92.0328 74.0334 92.0263C53.5817 91.965 33.1321 91.965 12.6848 92.0263C10.5695 92.0263 9.60386 91.422 9.87976 89.2412C10.1294 87.3297 9.47254 86.8042 7.47554 87.2706C5.47854 87.737 4.55222 86.7385 4.769 84.4658C5.64275 75.787 5.6098 67.0407 4.67053 58.3687C4.5063 56.9367 3.90192 56.3981 2.59467 56.5426C0.558258 56.7528 -0.032959 55.8332 -0.032959 53.8758C0.0327318 41.8508 0.0327318 29.8237 -0.032959 17.7944C-0.032959 16.1325 0.216653 14.9305 2.25307 15.1669C4.28948 15.4034 4.76244 14.3853 4.61135 12.638C4.41427 10.3915 5.70183 9.85948 7.66599 9.90546C11.0556 9.97772 14.4453 9.85949 17.8349 9.95145C19.6151 9.99743 20.5086 9.4588 20.3575 7.54733C20.1933 5.51763 21.0144 4.1645 23.2085 4.91989C25.4025 5.67528 25.7441 4.55205 25.5733 2.87048C25.3565 0.735683 26.1776 0.0197051 28.3454 0.039411C38.5144 0.131372 48.7096 0.0919599 58.8523 0.039411C60.7376 0.039411 62.1829 0.105095 61.4208 2.72597C60.9019 4.51263 61.9529 5.35341 63.7462 5.30086C65.1586 5.24831 66.5118 5.30086 66.2885 7.27144C66.0191 9.59016 67.241 9.99743 69.2249 9.93174C72.5095 9.81351 75.794 9.96457 79.0785 9.87918C81.1149 9.82663 82.271 10.536 82.0543 12.6971C81.8769 14.5363 82.6324 15.3246 84.4914 15.1538C86.968 14.9042 87.3621 16.3887 87.3358 18.4381C87.2636 23.1412 87.3753 27.8443 87.2833 32.5475C87.2439 34.4721 87.5198 35.7989 89.9109 35.5231C91.5138 35.3326 92.0065 36.2325 91.9605 37.7038C91.9079 39.5628 91.9539 41.4217 91.9539 43.2806ZM13.5584 15.2523C12.2446 15.3443 10.7535 14.8319 10.0506 16.5332L10.09 17.6039C10.0309 18.5498 9.97177 19.4956 9.91922 20.4481C9.05569 20.4681 8.19167 20.4418 7.33096 20.3693C5.42592 20.0999 4.87412 20.9407 5.03178 22.7274C5.2617 25.414 4.74936 28.1268 5.33401 30.8002C5.4851 31.1615 5.67555 31.2797 5.93831 30.8856C7.01467 30.601 8.1465 30.601 9.22286 30.8856L9.87976 31.5425V34.8268L9.22286 35.5362C8.14341 35.8079 7.01211 35.7966 5.93831 35.5033C5.66898 35.1027 5.4851 35.234 5.33401 35.5953C4.72965 39.2934 5.45882 43.0507 4.99898 46.7225C4.56542 50.2302 5.65586 51.7541 9.24258 51.3206C9.24258 60.2407 9.24258 69.1609 9.24258 78.0811C9.24258 79.2109 8.7499 80.5049 9.89949 81.418C10.5564 81.8318 10.8652 82.8105 11.9753 82.6134C14.2942 82.1931 15.6212 82.8762 15.1876 85.589C14.9577 87.0604 16.1993 86.9027 17.1584 86.9816H70.7489C71.5832 86.7517 71.6554 86.0488 71.5503 85.4117C71.097 82.6529 71.9576 81.3588 74.9794 81.8712C77.1209 82.2325 76.7399 80.5246 76.7399 79.2437C76.7399 70.7045 76.7793 62.1654 76.7004 53.6262C76.7004 51.9183 76.891 50.9133 78.9274 51.1892C81.0689 51.4782 82.3368 50.7097 81.8638 48.2727C81.4171 45.9409 82.8557 45.7175 84.544 45.9869C86.7906 46.3481 86.9548 45.1658 86.9811 43.3594C86.9811 41.4479 86.633 40.3904 84.4849 40.7911C82.3368 41.1918 81.5025 40.259 81.8572 38.1636C82.212 36.0682 81.1346 35.4902 79.2296 35.6676C77.9749 35.7858 76.6479 36.0945 76.6677 33.894C76.6677 31.9891 77.0093 31.1024 79.1574 31.2666C81.1872 31.4308 82.0806 30.2222 81.8704 28.1728C81.785 27.3123 81.8704 26.4255 81.8704 25.5453C81.8704 20.2904 81.8703 20.2904 76.799 20.3561C76.7315 19.8159 76.7161 19.2703 76.7531 18.7271C77.2129 15.9486 76.3129 14.7859 73.2846 15.1078C70.1511 15.4165 66.9586 15.0553 63.8054 15.226C61.8347 15.3311 60.9675 14.7465 61.2894 12.6971C61.5784 10.8842 61.1252 9.7084 58.8983 10.0303C56.9275 10.3127 56.0473 9.27486 56.2706 7.35026C56.494 5.42566 55.6663 4.93959 53.8532 4.9593C46.8769 5.05126 39.8939 5.07096 32.9176 4.9593C30.9863 4.9593 30.4016 5.61616 30.5987 7.4094C30.6281 8.16788 30.6017 8.9275 30.5198 9.68213L29.8038 10.05C27.5966 10.6214 24.496 10.05 25.3697 14.1882C25.6588 15.5019 24.0033 14.9961 23.1822 15.1932L13.5584 15.2523ZM31.6694 4.12509L31.7811 4.39439H55.0882V4.12509H31.6694ZM4.07929 29.9988L4.34865 30.1368V21.2954H4.07929V29.9988Z" fill="#E5E7EC"/>
<path d="M5.3342 30.8002C4.74956 28.1268 5.26189 25.414 5.03197 22.7274C4.87431 20.9407 5.42612 20.1 7.33115 20.3693C8.19186 20.4418 9.05588 20.4681 9.91941 20.4481V20.4087C10.07 21.4732 10.1556 22.5459 10.1756 23.6207C10.1362 25.0133 10.6617 25.5453 12.0806 25.5256C21.6517 25.414 31.2229 25.3549 40.7941 25.2826L66.223 25.3746C67.8587 25.4271 69.5075 25.5191 71.1301 25.5322C76.5955 25.5716 76.5955 25.5322 76.878 20.389C81.9625 20.343 81.9626 20.343 81.9494 25.5782C81.9494 26.4518 81.8706 27.3386 81.9494 28.2056C82.1596 30.255 81.2925 31.4899 79.2364 31.2995C77.0883 31.1155 76.7598 32.0023 76.7467 33.9269C76.7467 36.1274 78.0605 35.8187 79.3086 35.7004C81.2137 35.5231 82.2976 36.0683 81.9363 38.1965C81.575 40.3247 82.3961 41.2443 84.5639 40.824C86.7317 40.4036 87.0864 41.4808 87.0601 43.3923C87.0601 45.1987 86.8696 46.381 84.623 46.0197C82.9347 45.7504 81.4961 45.9737 81.9428 48.3056C82.4158 50.7425 81.1479 51.5111 79.0064 51.2221C76.97 50.9462 76.7664 51.9512 76.7795 53.659C76.8584 62.1982 76.8255 70.7374 76.8189 79.2766C76.8189 80.5312 77.1999 82.239 75.0584 81.904C72.0366 81.3917 71.1761 82.6857 71.6293 85.4445C71.7344 86.1014 71.6294 86.7583 70.8411 87.0144H17.2374C16.2914 86.9553 15.0499 87.0933 15.2667 85.6219C15.7002 82.909 14.3732 82.2259 12.0544 82.6463C10.9442 82.8434 10.6617 81.8646 9.97851 81.4508C10.0135 72.0051 10.0398 62.5573 10.0573 53.1072C10.0573 52.4504 10.5041 51.4914 9.26908 51.3534C5.70864 51.8067 4.59184 50.2828 5.0254 46.7554C5.48523 43.0836 4.75607 39.3263 5.36043 35.6282H5.67573L5.96481 35.5099C7.03861 35.8032 8.1699 35.8145 9.24935 35.5428C9.82086 35.6347 10.0114 35.3654 9.90626 34.8334C9.90626 33.743 9.90626 32.646 9.90626 31.5491C9.98509 31.017 9.76174 30.7937 9.24935 30.8922C8.173 30.6076 7.04116 30.6076 5.96481 30.8922C5.87351 30.8301 5.76933 30.7896 5.66009 30.7737C5.55085 30.7577 5.43942 30.7668 5.3342 30.8002V30.8002ZM70.9658 41.0801L66.3675 40.8305C66.3675 38.0126 65.9077 34.9188 70.4469 35.4968C71.1433 35.5888 71.4257 34.8399 71.5637 34.1174C72.0498 31.6739 71.0447 30.6754 67.9441 30.6754H19.8321C15.0104 30.6754 14.9316 30.774 15.7133 35.7595C15.2535 38.3147 15.8972 41.5136 11.3449 41.0801C9.79455 40.9356 10.5238 43.2149 10.4121 44.4104C10.2873 45.7832 11.2595 46.1051 12.3434 45.9343C15.1418 45.5074 15.5556 46.9525 15.5359 49.3434C15.4308 59.0847 15.5359 68.8194 15.4637 78.5606C15.4637 80.4524 15.6936 81.661 18.0913 81.6413C32.5433 81.5165 46.9953 81.4968 61.4079 81.4443C63.6939 81.5953 66.0062 81.7201 68.2594 81.904C70.6899 82.1011 71.7542 81.3194 71.6885 78.6197C71.498 71.3943 71.6359 64.2082 71.6293 57.0025C71.6293 51.4717 71.6293 51.4717 66.3741 50.9396C66.3741 49.2843 66.3741 47.629 66.3741 45.9737L71.025 45.8227C73.7512 45.8752 76.4773 45.8621 79.1969 46C81.0166 46.092 81.7064 45.4548 81.6998 43.5762C81.6932 41.6976 81.299 40.686 79.1706 40.8305C76.4182 41.0079 73.6854 41.0013 70.9658 41.0801Z" fill="#231928"/>
<path d="M30.5923 9.74784C30.6795 8.99141 30.7081 8.22936 30.6777 7.46853C30.4806 5.6753 31.0653 4.99215 32.9966 5.01843C39.973 5.12353 46.9559 5.10382 53.9323 5.01843C55.7453 5.01843 56.5598 5.49795 56.3496 7.40941C56.1394 9.32088 56.9671 10.3718 58.9773 10.0894C61.2042 9.76754 61.6575 10.9433 61.3684 12.7563C61.0465 14.8057 61.8809 15.3837 63.8844 15.2852C67.0376 15.1144 70.2301 15.4757 73.3636 15.1669C76.3919 14.8714 77.305 16.0077 76.8321 18.7862C76.7951 19.3295 76.8105 19.875 76.878 20.4153L66.2821 20.6123C65.6252 20.5795 64.9683 20.5598 64.3114 20.5072C61.8348 20.3102 58.7736 21.5385 57.0197 19.9949C55.2657 18.4512 56.4482 15.2523 56.3628 12.8022C56.3037 10.9499 55.6599 10.3127 53.8468 10.3653C49.4915 10.4835 45.1362 10.4638 40.7744 10.5032C37.411 9.69528 33.9228 10.6412 30.5923 9.74784Z" fill="#231928"/>
<path d="M23.2349 15.2523C24.056 15.0553 25.7114 15.5873 25.4224 14.2473C24.5487 10.1222 27.6493 10.6806 29.8565 10.1157C31.6236 11.5739 30.0339 13.7021 30.8944 15.3377C30.809 16.9996 30.7236 18.6549 30.6448 20.3167L9.89307 20.4087V20.4481C9.94562 19.4956 10.0047 18.5498 10.0639 17.617C10.0639 17.2689 10.0638 16.901 10.0244 16.5332C10.7273 14.8319 12.2382 15.3443 13.5061 15.2589L23.2349 15.2523Z" fill="#231928"/>
<path d="M30.8943 15.3377C30.0338 13.7021 31.6235 11.5739 29.8564 10.1157C30.0929 9.9843 30.3294 9.86607 30.5659 9.74783C33.9227 10.6412 37.4109 9.69527 40.7743 10.4769L40.7348 15.075L35.5321 15.4362L30.8943 15.3377Z" fill="#DEB600"/>
<path d="M9.2427 51.3271C10.4777 51.4651 10.031 52.4438 10.031 53.081C10.031 62.5354 10.0047 71.9833 9.95213 81.4245C8.77627 80.5115 9.29523 79.2175 9.29523 78.0877C9.22954 69.1544 9.2427 60.2342 9.2427 51.3271Z" fill="white"/>
<path d="M31.6694 4.1251H55.0882V4.3944H31.7811L31.6694 4.1251Z" fill="white"/>
<path d="M4.06616 29.9989V21.302H4.33552V30.1434L4.06616 29.9989Z" fill="white"/>
<path d="M10.0508 16.5135C10.0508 16.8813 10.0508 17.2492 10.0902 17.5973L10.0508 16.5135Z" fill="#DEB600"/>
<path d="M9.22949 30.879C9.76159 30.8002 9.98494 31.0236 9.8864 31.5359L9.22949 30.879Z" fill="white"/>
<path d="M5.33423 30.8002C5.43515 30.7699 5.54143 30.7619 5.64576 30.7767C5.75009 30.7914 5.84995 30.8286 5.93853 30.8856C5.67577 31.2797 5.48532 31.1615 5.33423 30.8002Z" fill="white"/>
<path d="M5.93853 35.5165L5.64953 35.6347H5.33423C5.48532 35.2472 5.6692 35.1158 5.93853 35.5165Z" fill="white"/>
<path d="M9.91277 34.8399C9.98503 35.372 9.79452 35.6413 9.25586 35.5493L9.91277 34.8399Z" fill="white"/>
<path d="M66.3346 45.9672C66.3346 47.6224 66.3346 49.2777 66.3346 50.933C63.8318 50.9987 61.3224 51.1432 58.8261 51.1038C57.0919 51.071 56.1525 51.5045 56.297 53.4751C56.4087 55.0712 56.2379 56.6871 58.6028 56.4244C60.9676 56.1616 61.4997 57.4097 61.4669 59.5576C61.3486 66.8553 61.3815 74.1596 61.3618 81.4639C46.9098 81.5165 32.4578 81.5362 18.0453 81.661C15.6673 81.661 15.4176 80.4721 15.4176 78.5803C15.4702 68.8391 15.4176 59.1044 15.4899 49.3631C15.4899 46.9722 15.0957 45.5271 12.2973 45.954C11.2134 46.1248 10.2412 45.8029 10.366 44.4301C10.4776 43.2346 9.7485 40.9553 11.2988 41.0998C15.8512 41.5333 15.2403 38.3344 15.6673 35.7792C29.9484 35.7464 44.2296 35.7464 58.5108 35.661C60.5604 35.661 61.6049 36.2522 61.4078 38.4527C61.4181 39.2107 61.5062 39.9656 61.6706 40.7057C60.5407 45.711 60.7902 46.0394 65.6973 46.0723C65.9176 46.0624 66.1371 46.0382 66.3542 46L66.3346 45.9672ZM40.7152 56.0828C40.7152 53.567 40.6363 51.0578 40.7152 48.5486C40.7874 46.7619 40.2356 45.8752 38.3174 46.0525C36.7869 46.2036 35.2497 45.9737 35.519 43.9177C35.9132 40.9619 34.2709 40.6925 32.0177 40.8699C30.7058 40.9691 29.3882 40.9691 28.0763 40.8699C26.2566 40.7385 25.3895 41.4414 25.6325 43.3134C25.9084 45.4876 24.9034 46.335 22.8079 46.0657C20.9094 45.8226 20.3904 46.7225 20.4233 48.5289C20.5218 53.4422 20.5415 58.3818 20.4233 63.2689C20.3707 65.3971 20.8042 66.6386 23.2611 66.3627C24.6472 66.2116 25.7705 66.8553 25.58 68.3793C25.1924 71.5716 27.1172 71.6636 29.3835 71.5059C30.4773 71.4367 31.5743 71.4367 32.6681 71.5059C34.4351 71.6307 35.6898 71.3154 35.4993 69.0952C35.3088 66.875 36.5043 66.1394 38.521 66.3364C40.3407 66.5072 40.7283 65.4956 40.6889 63.9323C40.6692 61.3246 40.7152 58.7037 40.7218 56.0828H40.7152Z" fill="#E01027"/>
<path d="M61.3881 81.4639C61.3881 74.1597 61.3881 66.8553 61.4932 59.5576C61.4932 57.4097 61.0334 56.1551 58.6291 56.4244C56.2248 56.6937 56.4351 55.0713 56.3234 53.4751C56.1789 51.5045 57.1182 51.071 58.8525 51.1038C61.3487 51.1432 63.8581 50.9987 66.3609 50.933C71.6161 51.4651 71.6161 51.4651 71.6161 56.9959C71.6161 64.2213 71.4848 71.414 71.6753 78.6132C71.741 81.3391 70.6768 82.1208 68.2462 81.8975C65.9602 81.7398 63.6742 81.615 61.3881 81.4639Z" fill="#444E9B"/>
<path d="M61.7166 40.7057C61.5522 39.9656 61.4641 39.2107 61.4538 38.4527C61.6509 36.2522 60.6064 35.6479 58.5568 35.661C44.2756 35.7464 29.9944 35.7464 15.7133 35.7792C14.9315 30.7937 15.0104 30.6951 19.8321 30.6951H67.944C71.0447 30.6951 72.0497 31.6936 71.5636 34.1371C71.4257 34.8399 71.1432 35.6085 70.4469 35.5165C65.9077 34.9122 66.3543 38.0323 66.3675 40.8502V40.7911L61.7166 40.7057Z" fill="#444E9B"/>
<path d="M40.7349 15.0815L40.7743 10.4835C45.1362 10.4441 49.4915 10.4835 53.8468 10.3456C55.6599 10.293 56.3036 10.9302 56.3627 12.7825C56.435 15.2326 55.1672 18.3527 57.0196 19.9752C58.8721 21.5976 61.8348 20.2904 64.3113 20.4875C64.9682 20.5401 65.6251 20.5598 66.282 20.5926C66.5515 22.1793 66.5315 23.8016 66.2229 25.3811L40.794 25.2892L40.8531 20.6123C43.5727 20.5663 46.3055 20.4218 49.0251 20.5007C51.1075 20.5663 51.2257 19.3709 51.2717 17.7944C51.3243 16.08 50.917 15.1669 48.9331 15.2064C46.1873 15.2852 43.461 15.1341 40.7349 15.0815Z" fill="#E01027"/>
<path d="M40.8269 20.6057L40.7678 25.2826C31.1966 25.3549 21.6255 25.414 12.0543 25.5256C10.6354 25.5256 10.0836 25.0133 10.1493 23.6207C10.1292 22.5458 10.0437 21.4732 9.89307 20.4087L30.6448 20.3167C32.3143 20.6025 34.0203 20.6025 35.6899 20.3167L40.8269 20.6057Z" fill="#DEB600"/>
<path d="M70.9658 41.0801C73.6854 41.0013 76.4182 41.0079 79.1312 40.8239C81.2596 40.6794 81.6603 41.6976 81.6603 43.5696C81.6603 45.4417 81.0034 46.0854 79.1575 45.9934C76.4379 45.8555 73.7117 45.8686 70.9855 45.8161L70.9658 41.0801Z" fill="#E01027"/>
<path d="M66.1965 25.3745C66.5051 23.795 66.5252 22.1727 66.2557 20.586L76.8516 20.389C76.5692 25.565 76.5692 25.5716 71.1037 25.5322C69.468 25.5191 67.8322 25.4271 66.1965 25.3745Z" fill="#444E9B"/>
<path d="M70.9658 41.0801V45.8161L66.3149 45.9672L66.3609 46V40.7451V40.8042L70.9658 41.0801Z" fill="#DEB600"/>
<path d="M35.6899 20.3233C34.0203 20.609 32.3143 20.609 30.6448 20.3233C30.7236 18.6614 30.809 17.0061 30.8944 15.3443L35.5322 15.4494C35.2075 17.0644 35.2614 18.7326 35.6899 20.3233Z" fill="#E01027"/>
<path d="M35.6899 20.3233C35.2604 18.7306 35.2064 17.0599 35.5322 15.4428L40.7349 15.0815C43.461 15.1341 46.1872 15.2852 48.9068 15.1998C50.8776 15.1341 51.2979 16.0734 51.2454 17.7878C51.1994 19.3643 51.0812 20.5598 48.9988 20.4941C46.2792 20.4153 43.5464 20.5598 40.8268 20.6057L35.6899 20.3233Z" fill="#231928"/>
<path d="M40.7152 56.0828C40.7152 58.7103 40.6692 61.3377 40.7152 63.9651C40.7546 65.5285 40.367 66.54 38.5474 66.3693C36.5307 66.1722 35.3482 66.9867 35.5256 69.1281C35.703 71.2695 34.4614 71.6636 32.6943 71.5388C31.6005 71.4695 30.5035 71.4695 29.4098 71.5388C27.1434 71.6833 25.2187 71.6045 25.6063 68.4121C25.7968 66.8882 24.6735 66.2445 23.2874 66.3955C20.8306 66.6714 20.397 65.43 20.4496 63.3017C20.5678 58.395 20.5481 53.4488 20.4496 48.5618C20.4496 46.7554 20.9356 45.8555 22.8341 46.0985C24.9296 46.3678 25.9347 45.5205 25.6588 43.3463C25.4158 41.4742 26.3157 40.7714 28.1025 40.9028C29.4145 41.0019 30.732 41.0019 32.044 40.9028C34.2972 40.7254 35.9395 40.9947 35.5453 43.9506C35.276 46.0066 36.8132 46.2365 38.3438 46.0854C40.2619 45.908 40.8137 46.7948 40.7414 48.5815C40.6429 51.0578 40.7218 53.567 40.7152 56.0828Z" fill="#DEB600"/>
<path d="M66.3937 40.7714V46.0263C66.1766 46.0645 65.9571 46.0886 65.7368 46.0985C60.8297 46.0657 60.5801 45.7372 61.71 40.732L66.3937 40.7714Z" fill="#231928"/>
</g>
<defs>
<clipPath id="clip0_5_565">
<rect width="92" height="92" fill="white"/>
</clipPath>
</defs>
</svg>
